<svg viewBox="0 0 271 132" xmlns="http://www.w3.org/2000/svg">
  <style>
    .graphic-path {
      fill: #3C3533;
    }

    .graphic-pin-beige {
      fill: #D2C5B5;
      stroke: black;
    }

    .graphic-pin-green {
      fill: #AEBBAE;
      stroke: black;
    }
  </style>

  <!-- Wavy connection path -->
  <path d="M114.468 81.1578L114.232 81.5983L114.468 81.1578ZM188.586 60.544L188.401 60.0795L188.586 60.544ZM140.582 74.468L140.44 73.9884L140.426 73.9927L140.411 73.9979L140.582 74.468ZM166.858 67.0356L166.4 67.2344L166.858 67.0356ZM203.518 53.6695L203.067 53.4535L203.518 53.6695ZM87.3434 60.3431L87.102 60.781L87.1304 60.7966L87.1605 60.8085L87.3434 60.3431ZM98.3639 64.6744L98.7754 64.3904C98.7189 64.3086 98.6394 64.2455 98.5468 64.2091L98.3639 64.6744ZM128.292 78.9175L128.122 78.4474L128.018 78.485L127.939 78.563L128.292 78.9175ZM31.5738 80.6195C31.788 81.0713 31.788 81.0713 31.788 81.0713C31.788 81.0713 31.788 81.0713 31.788 81.0713C31.7881 81.0713 31.7881 81.0713 31.7882 81.0712C31.7884 81.0712 31.7886 81.071 31.7889 81.0709C31.7895 81.0706 31.7903 81.0702 31.7915 81.0697C31.7938 81.0686 31.7973 81.0669 31.802 81.0647C31.8113 81.0603 31.8252 81.0537 31.8435 81.045C31.8803 81.0276 31.9351 81.0016 32.0071 80.9675C32.151 80.8992 32.3638 80.7984 32.6392 80.6678C33.19 80.4067 33.991 80.0269 34.9923 79.5521L34.7781 79.1003L34.5639 78.6486C33.5626 79.1233 32.7616 79.5031 32.2108 79.7642C31.9354 79.8947 31.7227 79.9956 31.5787 80.0639C31.5067 80.098 31.452 80.1239 31.4152 80.1414C31.3968 80.1501 31.3829 80.1567 31.3736 80.1611C31.369 80.1633 31.3655 80.1649 31.3632 80.166C31.362 80.1666 31.3611 80.167 31.3605 80.1673C31.3602 80.1674 31.36 80.1675 31.3599 80.1676C31.3598 80.1676 31.3597 80.1677 31.3597 80.1677C31.3597 80.1677 31.3597 80.1677 31.3597 80.1677C31.3597 80.1677 31.3597 80.1677 31.5738 80.6195ZM41.2146 76.0477L41.4289 76.4995C43.4133 75.5582 45.5943 74.5235 47.8623 73.4472L47.6479 72.9955L47.4336 72.5437C45.1656 73.62 42.9847 74.6547 41.0003 75.596L41.2146 76.0477ZM54.0818 69.9414L54.2962 70.3931C56.4831 69.3547 58.6574 68.322 60.7289 67.3375L60.5143 66.8859L60.2997 66.4343C58.2282 67.4187 56.0541 68.4514 53.8673 69.4898L54.0818 69.9414ZM66.9453 63.8274L67.1602 64.2788C68.3313 63.7213 69.4093 63.2077 70.3664 62.7512L70.1511 62.2999L69.9359 61.8486C68.9791 62.305 67.9013 62.8185 66.7304 63.3759L66.9453 63.8274ZM70.1511 62.2999L70.3664 62.7512C71.8123 62.0614 73.1695 61.521 74.4356 61.102L74.2785 60.6273L74.1214 60.1526C72.814 60.5852 71.4181 61.1416 69.9359 61.8486L70.1511 62.2999ZM83.0346 59.3398L83.0013 59.8387C84.3749 59.9303 85.413 60.1732 86.101 60.3893C86.4451 60.4974 86.7018 60.5989 86.8693 60.6716C86.953 60.7079 87.0145 60.7371 87.0533 60.7562C87.0728 60.7658 87.0866 60.7729 87.0947 60.7771C87.0987 60.7792 87.1014 60.7807 87.1026 60.7813C87.1032 60.7816 87.1035 60.7818 87.1034 60.7817C87.1033 60.7817 87.1032 60.7816 87.103 60.7815C87.1029 60.7814 87.1027 60.7814 87.1026 60.7813C87.1025 60.7812 87.1023 60.7812 87.1023 60.7811C87.1022 60.7811 87.102 60.781 87.3434 60.3431C87.5848 59.9052 87.5846 59.9051 87.5845 59.9051C87.5844 59.905 87.5842 59.9049 87.5841 59.9049C87.5839 59.9047 87.5836 59.9046 87.5833 59.9044C87.5827 59.9041 87.582 59.9037 87.5813 59.9033C87.5797 59.9025 87.5778 59.9014 87.5755 59.9002C87.571 59.8978 87.565 59.8946 87.5576 59.8907C87.5427 59.8829 87.5219 59.8723 87.4955 59.8593C87.4425 59.8332 87.3664 59.7972 87.2674 59.7542C87.0694 59.6683 86.7798 59.5544 86.4007 59.4353C85.6422 59.197 84.5259 58.9382 83.0679 58.8409L83.0346 59.3398ZM87.3434 60.3431L87.1605 60.8085L89.9156 61.8913L90.0985 61.4259L90.2814 60.9606L87.5263 59.8778L87.3434 60.3431ZM95.6088 63.5916L95.4259 64.057L98.181 65.1398L98.3639 64.6744L98.5468 64.2091L95.7917 63.1263L95.6088 63.5916ZM98.3639 64.6744C97.9525 64.9585 97.9525 64.9585 97.9525 64.9586C97.9525 64.9586 97.9526 64.9586 97.9526 64.9587C97.9526 64.9588 97.9527 64.9589 97.9528 64.959C97.953 64.9593 97.9533 64.9597 97.9537 64.9603C97.9544 64.9614 97.9555 64.9629 97.9569 64.9649C97.9597 64.969 97.9639 64.975 97.9693 64.9828C97.9802 64.9984 97.9963 65.0215 98.0174 65.0517C98.0597 65.112 98.1222 65.2009 98.2037 65.3156C98.3668 65.5449 98.606 65.8778 98.9118 66.2933C99.5232 67.1243 100.401 68.2866 101.469 69.6138L101.858 69.3005L102.248 68.9871C101.191 67.6731 100.322 66.5224 99.7172 65.7006C99.415 65.2898 99.1789 64.9614 99.0187 64.7361C98.9386 64.6234 98.8775 64.5366 98.8365 64.4781C98.8161 64.4489 98.8006 64.4267 98.7904 64.412C98.7853 64.4046 98.7815 64.3991 98.779 64.3955C98.7777 64.3937 98.7768 64.3924 98.7762 64.3915C98.7759 64.3911 98.7757 64.3908 98.7756 64.3906C98.7755 64.3905 98.7754 64.3904 98.7754 64.3904C98.7754 64.3904 98.7754 64.3904 98.7754 64.3904C98.7754 64.3904 98.7754 64.3904 98.3639 64.6744ZM109.772 77.774L109.442 78.15C111.013 79.5276 112.639 80.7424 114.232 81.5983L114.468 81.1578L114.705 80.7174C113.202 79.91 111.64 78.7473 110.101 77.3981L109.772 77.774ZM114.468 81.1578L114.232 81.5983C115.493 82.2763 116.728 82.6773 117.913 82.87L117.993 82.3765L118.074 81.8829C116.999 81.7082 115.87 81.3435 114.705 80.7174L114.468 81.1578ZM125.236 81.0598L125.468 81.5028C126.452 80.9872 127.242 80.4339 127.786 80.0087C128.058 79.7958 128.27 79.6145 128.415 79.485C128.488 79.4203 128.543 79.3685 128.582 79.3322C128.601 79.314 128.616 79.2997 128.626 79.2896C128.632 79.2845 128.636 79.2805 128.639 79.2776C128.64 79.2761 128.641 79.2749 128.642 79.274C128.643 79.2735 128.643 79.2732 128.644 79.2728C128.644 79.2727 128.644 79.2725 128.644 79.2724C128.644 79.2724 128.644 79.2723 128.644 79.2722C128.644 79.2722 128.644 79.2721 128.292 78.9175C127.939 78.563 127.939 78.5629 127.939 78.5629C127.939 78.5628 127.939 78.5628 127.939 78.5628C127.939 78.5627 127.94 78.5627 127.94 78.5626C127.94 78.5626 127.94 78.5626 127.939 78.5627C127.939 78.5629 127.939 78.5634 127.938 78.5641C127.937 78.5656 127.934 78.5681 127.93 78.5717C127.923 78.5788 127.911 78.5901 127.895 78.6052C127.863 78.6354 127.814 78.6808 127.749 78.739C127.619 78.8554 127.424 79.0226 127.17 79.2207C126.663 79.6172 125.924 80.1351 125.004 80.6169L125.236 81.0598ZM128.292 78.9175L128.462 79.3877L131.534 78.2753L131.364 77.8052L131.194 77.335L128.122 78.4474L128.292 78.9175ZM137.509 75.5804L137.679 76.0505L140.752 74.9382L140.582 74.468L140.411 73.9979L137.339 75.1103L137.509 75.5804ZM140.582 74.468L140.723 74.9476C142.042 74.5589 143.64 74.5194 145.428 74.716L145.482 74.219L145.537 73.722C143.687 73.5185 141.939 73.5467 140.44 73.9884L140.582 74.468ZM155.108 76.4453L154.969 76.9257C158.552 77.9579 162.072 78.9939 164.718 79.0821L164.734 78.5824L164.751 78.0827C162.261 77.9996 158.884 77.0131 155.246 75.9648L155.108 76.4453ZM168.562 71.7048L169.044 71.5724C168.674 70.2253 168.106 68.6564 167.317 66.8368L166.858 67.0356L166.4 67.2344C167.175 69.0251 167.726 70.5481 168.08 71.8372L168.562 71.7048ZM166.858 67.0356L167.317 66.8368C166.648 65.2913 166.16 63.9416 165.831 62.7673L165.35 62.9021L164.868 63.037C165.212 64.2649 165.717 65.6581 166.4 67.2344L166.858 67.0356ZM167.51 55.4851L167.638 55.9684C168.621 55.7082 169.878 55.7229 171.323 55.9428C172.76 56.1617 174.344 56.5773 175.96 57.0857L176.11 56.6087L176.26 56.1317C174.62 55.6159 172.982 55.184 171.473 54.9542C169.971 54.7256 168.557 54.6906 167.382 55.0017L167.51 55.4851ZM184.365 59.5815L184.195 60.0519C185.223 60.4227 186.147 60.7316 186.897 60.9167C187.271 61.0092 187.617 61.0743 187.919 61.0984C188.21 61.1216 188.513 61.1115 188.771 61.0085L188.586 60.544L188.401 60.0795C188.355 60.0977 188.235 60.1204 187.998 60.1015C187.772 60.0835 187.484 60.0317 187.136 59.9458C186.44 59.774 185.558 59.4805 184.534 59.1112L184.365 59.5815ZM188.586 60.544L188.771 61.0085C189.215 60.8314 189.799 60.729 190.52 60.6582C191.244 60.5872 192.039 60.5529 192.932 60.4899L192.896 59.9912L192.861 59.4924C192.009 59.5526 191.162 59.5905 190.422 59.663C189.681 59.7358 188.981 59.8482 188.401 60.0795L188.586 60.544ZM200.972 57.179L201.308 57.5498C202.315 56.6386 203.221 55.4461 203.969 53.8855L203.518 53.6695L203.067 53.4535C202.371 54.9063 201.54 55.991 200.637 56.8082L200.972 57.179ZM203.518 53.6695L203.969 53.8855C204.71 52.3383 205.787 50.7979 207.046 49.319L206.665 48.9948L206.285 48.6707C204.989 50.1918 203.857 51.8047 203.067 53.4535L203.518 53.6695ZM215.012 41.4038L215.311 41.8044C216.627 40.822 217.783 40.0286 218.61 39.4812C219.024 39.2076 219.354 38.9956 219.581 38.8523C219.695 38.7807 219.782 38.7262 219.841 38.6899C219.871 38.6717 219.893 38.6581 219.908 38.6491C219.915 38.6446 219.92 38.6412 219.924 38.639C219.926 38.6379 219.927 38.6371 219.928 38.6366C219.928 38.6364 219.929 38.6362 219.929 38.6361C219.929 38.6361 219.929 38.636 219.929 38.636C219.929 38.636 219.929 38.636 219.929 38.636C219.929 38.636 219.929 38.636 219.67 38.2084C219.411 37.7807 219.411 37.7807 219.411 37.7808C219.411 37.7808 219.411 37.7808 219.411 37.7808C219.411 37.7809 219.41 37.781 219.41 37.7811C219.41 37.7813 219.41 37.7815 219.409 37.7819C219.408 37.7826 219.406 37.7836 219.404 37.7848C219.4 37.7874 219.394 37.7911 219.386 37.796C219.37 37.8058 219.346 37.8202 219.316 37.8392C219.254 37.8771 219.164 37.9333 219.048 38.0067C218.815 38.1534 218.478 38.3694 218.058 38.6473C217.218 39.2031 216.046 40.0074 214.713 41.0032L215.012 41.4038Z" class="graphic-path"/>

  <!-- Left pin (beige) -->
  <path d="M59.9015 56.6245L67.55 70.8913L40.1702 92.1443L26.879 65.4967L59.9015 56.6245Z" class="graphic-pin-beige"/>
  <path d="M26.3818 65.6199C28.1054 64.7602 30.4583 65.289 32.9523 67.1138C35.423 68.9216 37.9062 71.9217 39.7884 75.6953C41.6706 79.4689 42.5733 83.2573 42.5312 86.3184C42.4885 89.4084 41.4956 91.6061 39.772 92.4658C38.0485 93.3255 35.6955 92.7966 33.2015 90.9719C30.7309 89.1641 28.2476 86.164 26.3654 82.3904C24.4833 78.6168 23.5805 74.8284 23.6227 71.7672C23.6653 68.6773 24.6583 66.4796 26.3818 65.6199Z" class="graphic-pin-beige"/>
  <path d="M60.379 56.4858C60.6536 56.3489 61.0235 56.3308 61.5079 56.5C61.9946 56.6701 62.5555 57.0166 63.153 57.538C64.3461 58.5792 65.6085 60.249 66.6343 62.3057C67.6601 64.3624 68.2346 66.3753 68.3486 67.9548C68.4057 68.7457 68.3451 69.4023 68.1882 69.8933C68.032 70.3821 67.795 70.6667 67.5204 70.8036C67.2458 70.9406 66.876 70.9587 66.3915 70.7894C65.9049 70.6194 65.3439 70.2728 64.7465 69.7515C63.5534 68.7103 62.291 67.0405 61.2651 64.9838C60.2393 62.9271 59.6648 60.9141 59.5508 59.3347C59.4937 58.5438 59.5543 57.8872 59.7112 57.3962C59.8675 56.9074 60.1044 56.6228 60.379 56.4858Z" class="graphic-pin-beige"/>

  <!-- Right pin (green) -->
  <path d="M205.627 40.3412L208.988 56.1761L243.619 54.7496L236.582 25.8147L205.627 40.3412Z" class="graphic-pin-green"/>
  <path d="M205.173 40.5434C204.875 40.6159 204.581 40.8408 204.32 41.2826C204.058 41.7265 203.853 42.3532 203.732 43.137C203.493 44.7023 203.605 46.7925 204.149 49.0258C204.692 51.259 205.552 53.1676 206.483 54.4479C206.95 55.089 207.42 55.5516 207.857 55.8255C208.291 56.0982 208.656 56.1627 208.954 56.0902C209.252 56.0177 209.547 55.7929 209.808 55.351C210.07 54.9071 210.275 54.2804 210.395 53.4966C210.635 51.9314 210.522 49.8411 209.979 47.6079C209.436 45.3746 208.576 43.466 207.644 42.1857C207.177 41.5446 206.707 41.0821 206.271 40.8082C205.836 40.5355 205.471 40.4709 205.173 40.5434Z" class="graphic-pin-green"/>
  <path d="M237.042 25.5883C235.17 26.0435 233.714 27.9656 232.985 30.9688C232.264 33.944 232.302 37.8383 233.299 41.9358C234.295 46.0333 236.05 49.5102 238.057 51.8219C240.083 54.1552 242.26 55.1937 244.131 54.7386C246.003 54.2834 247.459 52.3613 248.187 49.3581C248.909 46.3828 248.871 42.4885 247.874 38.391C246.877 34.2935 245.123 30.8166 243.116 28.505C241.09 26.1716 238.913 25.1331 237.042 25.5883Z" class="graphic-pin-green"/>
</svg>
