<?xml version="1.0" encoding="UTF-8"?>
<svg width="400px" height="400px" viewBox="0 0 400 400" version="1.1" xmlns="http://www.w3.org/2000/svg" xmlns:xlink="http://www.w3.org/1999/xlink">
    <!-- Generator: Sketch 60.1 (88133) - https://sketch.com -->
    <title>Logo/BBVA</title>
    <desc>Created with Sketch.</desc>
    <g id="Logo/BBVA" stroke="none" stroke-width="1" fill="none" fill-rule="evenodd">
        <g id="BBVA" transform="translate(22.000000, 147.000000)" fill="#004580" fill-rule="nonzero">
            <path d="M64.5646873,56.2695247 C65.7301874,56.6602853 67.0865884,57.2414164 68.6338903,58.0129181 C71.3466923,59.565941 73.6676451,61.6900755 75.6168435,64.3953411 C77.9478438,68.2628689 79.1032965,72.9018985 79.1032965,78.3124297 C79.1032965,96.8785674 67.8501919,106.156627 45.3640777,106.156627 L1.74825017,106.156627 C0.582750056,106.156627 0,105.575495 0,104.413233 L0,15.0793509 C0,13.9170886 0.582750056,13.3359575 1.74825017,13.3359575 L47.7051253,13.3359575 C55.8535787,13.3359575 62.4346354,15.5703065 67.4784376,20.008946 C72.5121924,24.457605 75.0441409,30.3590919 75.0441409,37.703387 C75.0441409,41.9616755 74.0695417,45.7290083 72.140438,49.0154051 C70.1912396,52.3118213 67.6693385,54.7265214 64.5646873,56.2695247 Z M44.791375,92.8106495 C51.3824791,92.8106495 56.225333,91.7485822 59.3299842,89.6244478 C62.4245879,87.5003133 63.9819372,83.823156 63.9819372,78.6029953 C63.9819372,73.3828346 62.4245879,69.7156968 59.3299842,67.5815428 C56.225333,65.4574083 51.3724317,64.3953411 44.791375,64.3953411 L17.4523594,64.3953411 C15.8950102,64.3953411 15.1213592,64.9764722 15.1213592,66.1387345 L15.1213592,91.0872951 C15.1213592,92.2495574 15.8950102,92.8306885 17.4523594,92.8306885 L44.791375,92.8306885 L44.791375,92.8106495 Z M17.4523594,26.6819345 C16.2868593,26.6819345 15.7041093,27.2630657 15.7041093,28.4253279 L15.7041093,49.3059706 C15.7041093,50.4682329 16.2868593,51.049364 17.4523594,51.049364 L44.208625,51.049364 C54.286182,51.049364 59.3299842,46.9914656 59.3299842,38.8656493 C59.3299842,30.739833 54.286182,26.6819345 44.208625,26.6819345 L17.4523594,26.6819345 L17.4523594,26.6819345 Z M158.809438,56.2695247 C159.974938,56.6602853 161.140438,57.2414164 162.295891,58.0129181 C165.390494,59.565941 167.721495,61.6900755 169.278844,64.3953411 C171.991646,68.2628689 173.348047,72.9018985 173.348047,78.3124297 C173.348047,96.8785674 162.094942,106.156627 139.608828,106.156627 L95.9829533,106.156627 C94.8174531,106.156627 94.2347031,105.575495 94.2347031,104.413233 L94.2347031,15.0793509 C94.2347031,13.9170886 94.8174531,13.3359575 95.9829533,13.3359575 L141.939828,13.3359575 C149.696433,13.3359575 156.187063,15.5703065 161.431813,20.008946 C166.666516,24.457605 169.288891,30.3590919 169.288891,37.703387 C169.288891,41.9616755 168.314292,45.7290083 166.385189,49.0154051 C164.425943,52.3118213 161.904042,54.7265214 158.809438,56.2695247 Z M111.104312,26.6819345 C109.938812,26.6819345 109.356062,27.2630657 109.356062,28.4253279 L109.356062,49.3059706 C109.356062,50.4682329 109.938812,51.049364 111.104312,51.049364 L138.443328,51.049364 C148.520885,51.049364 153.564687,46.9914656 153.564687,38.8656493 C153.564687,30.739833 148.520885,26.6819345 138.443328,26.6819345 L111.104312,26.6819345 L111.104312,26.6819345 Z M139.026078,92.8106495 C145.617182,92.8106495 150.460036,91.7485822 153.564687,89.6244478 C156.659291,87.5003133 158.21664,83.823156 158.21664,78.6029953 C158.21664,73.3828346 156.659291,69.7156968 153.564687,67.5815428 C150.460036,65.4574083 145.607135,64.3953411 139.026078,64.3953411 L111.104312,64.3953411 C109.938812,64.3953411 109.356062,64.9764722 109.356062,66.1387345 L109.356062,91.0872951 C109.356062,92.2495574 109.938812,92.8306885 111.104312,92.8306885 L139.026078,92.8306885 L139.026078,92.8106495 Z M256.530594,14.4982198 C256.912396,13.7267181 257.304245,13.3359575 257.696094,13.3359575 L272.817453,13.3359575 C273.199255,13.3359575 273.591104,13.5363476 273.982953,13.9170886 C274.364755,14.3078492 274.364755,14.6986098 273.982953,15.0793509 L225.705125,105.575495 C225.313276,105.966256 224.831,106.156627 224.24825,106.156627 C223.6655,106.156627 223.173177,105.966256 222.791375,105.575495 L174.513547,15.0793509 C174.121323,14.6986098 174.021224,14.3078492 174.222172,13.9170886 C174.413073,13.5363476 174.895349,13.3359575 175.679047,13.3359575 L190.217656,13.3359575 C190.991307,13.3359575 191.574057,13.7267181 191.965907,14.4982198 L222.791375,72.5111379 C222.791375,72.9018985 223.173177,73.092269 223.956875,73.092269 C224.730526,73.092269 225.313276,72.9018985 225.705125,72.5111379 L256.530594,14.4982198 Z M273.982953,91.6584067 C273.591104,92.4399279 273.008354,92.820669 272.234703,92.820669 L257.113344,92.820669 C256.721495,92.820669 256.43012,92.6302984 256.239219,92.2395379 C256.03827,91.8587968 255.947844,91.4680362 255.947844,91.0772756 L304.235719,0.581131131 C304.617521,0.200390045 305.200271,0 305.983969,0 C306.75762,0 307.34037,0.200390045 307.732219,0.581131131 L356,91.0772756 C356,91.4680362 355.899526,91.8587968 355.708625,92.2395379 C355.507677,92.6302984 355.216302,92.820669 354.8345,92.820669 L339.713141,92.820669 C338.929442,92.820669 338.346692,92.4399279 337.96489,91.6584067 L307.712125,33.6454886 C307.320275,32.8739869 306.737525,32.4832263 305.963874,32.4832263 C305.180176,32.4832263 304.597426,32.8739869 304.215624,33.6454886 L273.982953,91.6584067 Z" id="Shape"></path>
        </g>
    </g>
</svg>