<?xml version="1.0" encoding="UTF-8"?>
<svg width="400px" height="400px" viewBox="0 0 400 400" version="1.1" xmlns="http://www.w3.org/2000/svg" xmlns:xlink="http://www.w3.org/1999/xlink">
    <!-- Generator: Sketch 60.1 (88133) - https://sketch.com -->
    <title>Logo/Braun</title>
    <desc>Created with Sketch.</desc>
    <g id="Logo/Braun" stroke="none" stroke-width="1" fill="none" fill-rule="evenodd">
        <g id="Braun_Logo" transform="translate(22.000000, 142.000000)" fill="#000000" fill-rule="nonzero">
            <path d="M28.8361272,102.640077 C23.9878332,102.640077 18.5307944,102.640077 18.5307944,102.640077 L18.5307944,78.0066183 C18.5307944,78.0066183 23.8234917,78.0066183 28.8361272,78.0066183 C35.8979956,78.0066183 39.1684123,82.0937373 39.1684123,89.4082156 C39.1684123,99.4520921 35.2443316,102.640077 28.8361272,102.640077 M18.5307944,42.2673076 C18.5307944,42.2673076 23.7357739,42.2673076 28.5840679,42.2673076 C33.7737283,42.2673076 37.9741728,45.2317397 37.9741728,53.3985918 C37.9741728,61.6519939 33.1200643,64.5069055 28.5840679,64.5069055 C23.5714324,64.5069055 18.5307944,64.5069055 18.5307944,64.5069055 L18.5307944,42.2673076 Z M46.032122,70.3262495 L46.032122,70.2585683 C50.1179005,68.0324756 56.6492253,64.2037764 56.6492253,51.8989429 C56.6492253,36.0004483 45.9628983,28.8 31.5268679,28.8 C26.6368256,28.8 0,28.8 0,28.8 L0,116.1 C0,116.1 17.5706433,116.1 31.3619992,116.1 C49.1366158,116.1 57.7922078,105.871952 57.7922078,90.6330396 C57.7922078,76.4159073 50.607219,72.4899936 46.032122,70.3262495 Z" id="path7"></path>
            <path d="M91.3638059,42.2672444 C91.3638059,42.2672444 96.5696335,42.2672444 101.424843,42.2672444 C106.618505,42.2672444 110.807388,45.2316626 110.807388,53.3984765 C110.807388,61.65184 105.96434,64.5067382 101.424843,64.5067382 C96.4078109,64.5067382 91.3638059,64.5067382 91.3638059,64.5067382 L91.3638059,42.2672444 M129.165803,86.8832329 C129.165803,76.0038567 124.812455,72.947967 118.885832,70.3260549 L118.885832,70.258374 C122.975291,68.0322917 129.454545,64.2036105 129.454545,51.8988346 C129.454545,36.0004146 118.817082,28.8 104.36991,28.8 C99.4729201,28.8 72.8181818,28.8 72.8181818,28.8 L72.8181818,116.1 L91.3511127,116.1 L91.3632744,78.0063876 C91.3632744,78.0063876 96.4072753,78.0063876 101.421138,78.0063876 C106.696238,78.0063876 110.466813,81.4060147 110.466813,89.1216233 L110.466813,116.1 L129.155751,116.1 L129.165819,86.8832329 L129.165803,86.8832329 Z" id="path9"></path>
            <path d="M165.338516,21.1438664 C165.338516,14.5962691 173.120248,13.7506101 177.419719,13.7506101 C181.719717,13.7506101 189.471262,14.5799036 189.471262,21.1438664 L189.464365,64.6291014 L165.325796,64.6291014 L165.3385,21.1438664 M177.419702,0 C169.569118,0 146.792208,1.37506195 146.792208,18.9812443 L146.792208,116.1 L165.361803,116.1 L165.361803,78.1006914 L189.473363,78.1006914 L189.466991,116.084046 L208.051948,116.084046 L208.051948,18.9812443 C208.051948,1.34233098 185.245907,0 177.419686,0 L177.419702,0 Z" id="path11"></path>
            <path d="M262.365727,28.8 L262.365727,97.5682855 C262.365727,101.067818 258.644471,103.405765 253.115894,103.405765 C247.562513,103.405765 243.909874,101.063714 243.909874,97.5682855 L243.895605,28.8 L225.393831,28.8184704 L225.38961,99.8655963 C225.38961,113.392931 243.273818,117 253.13594,117 C262.908335,117 280.87013,113.374459 280.87013,99.8495901 L280.87013,28.8 L262.365715,28.8" id="path13"></path>
            <path d="M337.498225,116.088902 L337.491363,47.335862 C337.491363,43.8355819 333.772532,41.4975457 328.246281,41.4975457 C322.692581,41.4975457 319.033927,43.8421505 319.033927,47.335862 L319.028119,116.088902 L300.519481,116.1 L300.519481,45.0380715 C300.519481,31.5078423 318.407874,27.9 328.270561,27.9 C338.043511,27.9 356,31.5263166 356,45.0540826 L356,116.088505 L337.498224,116.088505" id="path15"></path>
        </g>
    </g>
</svg>