<?xml version="1.0" encoding="UTF-8"?>
<svg width="400px" height="400px" viewBox="0 0 400 400" version="1.1" xmlns="http://www.w3.org/2000/svg" xmlns:xlink="http://www.w3.org/1999/xlink">
    <!-- Generator: Sketch 60.1 (88133) - https://sketch.com -->
    <title>Logo/Google</title>
    <desc>Created with Sketch.</desc>
    <g id="Logo/Google" stroke="none" stroke-width="1" fill="none" fill-rule="evenodd">
        <g id="Google_2015_logo" transform="translate(22.000000, 142.000000)" fill-rule="nonzero">
            <path d="M151,60.5 C151,77.4844454 137.754831,90 121.5,90 C105.245169,90 92,77.4844454 92,60.5 C92,43.3958521 105.245169,31 121.5,31 C137.754831,31 151,43.3958521 151,60.5 Z M138.086292,60.5 C138.086292,49.8863841 130.409663,42.6244364 121.5,42.6244364 C112.590337,42.6244364 104.913708,49.8863841 104.913708,60.5 C104.913708,71.0072137 112.590337,78.3755636 121.5,78.3755636 C130.409663,78.3755636 138.086292,70.9939134 138.086292,60.5 Z" id="Shape" fill="#EA4335"></path>
            <path d="M216,60.5 C216,77.4844454 202.754831,90 186.5,90 C170.245169,90 157,77.4844454 157,60.5 C157,43.4091524 170.245169,31 186.5,31 C202.754831,31 216,43.3958521 216,60.5 Z M203.086292,60.5 C203.086292,49.8863841 195.409663,42.6244364 186.5,42.6244364 C177.590337,42.6244364 169.913708,49.8863841 169.913708,60.5 C169.913708,71.0072137 177.590337,78.3755636 186.5,78.3755636 C195.409663,78.3755636 203.086292,70.9939134 203.086292,60.5 Z" id="Shape" fill="#FBBC05"></path>
            <path d="M276,33.7733147 L276,86.4698739 C276,108.14666 263.277516,117 248.237065,117 C234.079022,117 225.557855,107.484976 222.344309,99.7035653 L233.5127,95.0320722 C235.501411,99.8094348 240.374412,105.446987 248.223895,105.446987 C257.851364,105.446987 263.817498,99.4785926 263.817498,88.2431885 L263.817498,84.021641 L263.369708,84.021641 C260.498589,87.581504 254.967074,90.6914215 247.98683,90.6914215 C233.380997,90.6914215 220,77.9076755 220,61.4581971 C220,44.8896154 233.380997,32 247.98683,32 C254.953904,32 260.485419,35.1099175 263.369708,38.5639109 L263.817498,38.5639109 L263.817498,33.7865483 L276,33.7865483 L276,33.7733147 Z M264.726246,61.4581971 C264.726246,51.1226841 257.864534,43.5662463 249.132643,43.5662463 C240.28222,43.5662463 232.867357,51.1226841 232.867357,61.4581971 C232.867357,71.6878406 240.28222,79.1384088 249.132643,79.1384088 C257.864534,79.1384088 264.726246,71.6878406 264.726246,61.4581971 Z" id="Shape" fill="#4285F4"></path>
            <polygon id="Path" fill="#34A853" points="298 3 298 88 286 88 286 3"></polygon>
            <path d="M345.271572,70.2224977 L355.435346,76.9258341 C352.154974,81.7272317 344.249817,90 330.590565,90 C313.650941,90 301,77.0455365 301,60.5 C301,42.9569432 313.758494,31 329.125153,31 C344.599364,31 352.168418,43.1830478 354.642141,49.7666817 L356,53.1183499 L316.138108,69.4510821 C319.189929,75.3697024 323.935713,78.3888638 330.590565,78.3888638 C337.258861,78.3888638 341.883647,75.1435978 345.271572,70.2224977 Z M313.987045,59.6088819 L340.633341,48.6627592 C339.16793,44.9785843 334.75825,42.4116321 329.56881,42.4116321 C322.913957,42.4116321 313.650941,48.2238503 313.987045,59.6088819 L313.987045,59.6088819 Z" id="Shape" fill="#EA4335"></path>
            <path d="M45.80301,53.4930314 L45.80301,41.1977352 L87.3836984,41.1977352 C87.7901952,43.3405923 88,45.8754355 88,48.619338 C88,57.8440767 85.4692296,69.2508711 77.3130681,77.3780488 C69.3798242,85.6097561 59.2436299,90 45.8161228,90 C20.9280286,90 1.13686838e-13,69.7996516 1.13686838e-13,45 C1.13686838e-13,20.2003484 20.9280286,0 45.8161228,0 C59.5845627,0 69.392937,5.38327526 76.7623305,12.3998258 L68.0554314,21.075784 C62.770973,16.1367596 55.6113843,12.2952962 45.80301,12.2952962 C27.6286693,12.2952962 13.4143943,26.8902439 13.4143943,45 C13.4143943,63.1097561 27.6286693,77.7047038 45.80301,77.7047038 C57.5914171,77.7047038 64.3051706,72.9878049 68.606169,68.7020906 C72.0941737,65.2264808 74.3889137,60.261324 75.2936969,53.4799652 L45.80301,53.4930314 Z" id="Path" fill="#4285F4"></path>
        </g>
    </g>
</svg>