<svg width="320" height="250" viewBox="0 0 320 250" fill="none" xmlns="http://www.w3.org/2000/svg">
<g clip-path="url(#clip0_813_26)">
<path d="M35 131.978V116.875H41.1404L41.2894 118.807C42.6336 117.225 44.512 116.435 46.9247 116.435C48.2705 116.435 49.4075 116.651 50.3373 117.08C51.286 117.507 52.0479 118.152 52.6216 119.012C53.3259 118.178 54.221 117.525 55.2312 117.109C56.2791 116.659 57.4658 116.435 58.7928 116.435C60.0959 116.435 61.2637 116.651 62.2911 117.08C63.3202 117.507 64.1216 118.152 64.6952 119.012C65.2877 119.85 65.5856 120.865 65.5856 122.055V131.976H59.0582V122.961C59.0582 122.221 58.8219 121.645 58.3459 121.235C57.8921 120.824 57.3082 120.621 56.5959 120.621C56.0584 120.617 55.5286 120.748 55.0548 121.002C54.5846 121.25 54.1936 121.625 53.9264 122.084C53.6695 122.532 53.5411 123.05 53.5411 123.635V131.976H47.0137V122.961C47.0137 122.534 46.9058 122.142 46.6884 121.792C46.5023 121.432 46.2132 121.137 45.8579 120.942C45.4903 120.725 45.0694 120.613 44.6421 120.621C44.0844 120.612 43.5333 120.743 43.0394 121.002C42.5757 121.245 42.1865 121.609 41.9127 122.055C41.6465 122.538 41.513 123.083 41.5257 123.635V131.976H35V131.978ZM78.1336 132.505C76.0976 132.505 74.2688 132.192 72.6473 131.568C71.0445 130.923 69.7791 129.997 68.8493 128.788C67.9401 127.577 67.4846 126.124 67.4846 124.428C67.4846 122.787 67.9401 121.364 68.8493 120.154C69.7791 118.945 71.024 118.017 72.5873 117.374C74.1695 116.73 75.9092 116.408 77.8082 116.408C79.8253 116.408 81.6267 116.759 83.2072 117.461C84.7894 118.145 86.0257 119.14 86.9161 120.446C87.8236 121.734 88.2808 123.257 88.2808 125.011V125.774H73.9829C74.1404 126.788 74.5651 127.559 75.2569 128.085C75.9486 128.612 76.899 128.875 78.1045 128.875C78.9349 128.875 79.6284 128.749 80.1815 128.496C80.7346 128.222 81.1798 127.812 81.5171 127.265L87.7757 127.588C87.0634 129.246 85.8476 130.486 84.1284 131.305C82.4058 132.105 80.4092 132.505 78.1353 132.505H78.1336ZM81.5462 122.76C81.387 121.841 81.0017 121.159 80.3887 120.71C79.7757 120.241 78.9264 120.009 77.8373 120.009C75.6627 120.009 74.387 120.925 74.0103 122.76H81.5445H81.5462ZM104.515 111.141H111.043V131.978H105.05L104.872 130.017C103.527 131.734 101.471 132.592 98.7021 132.592C96.9212 132.592 95.3699 132.27 94.0445 131.626C92.7776 130.999 91.7249 130.011 91.0188 128.788C90.3065 127.557 89.9503 126.104 89.9503 124.428C89.9503 122.71 90.3356 121.248 91.1079 120.038C91.8712 118.832 92.9614 117.868 94.2517 117.256C95.6078 116.625 97.088 116.306 98.5839 116.321C101.094 116.321 103.072 116.993 104.515 118.338V111.141ZM100.481 128.203C101.788 128.203 102.805 127.88 103.538 127.235C104.288 126.572 104.664 125.608 104.664 124.339C104.664 123.071 104.288 122.105 103.538 121.441C102.784 120.758 101.777 120.417 100.51 120.417C99.7791 120.417 99.1164 120.554 98.524 120.828C97.921 121.088 97.4129 121.527 97.0685 122.086C96.714 122.671 96.5377 123.423 96.5377 124.339C96.5377 125.705 96.9024 126.69 97.6336 127.295C98.3853 127.899 99.3339 128.201 100.481 128.201V128.203ZM116.839 115.353C116.259 115.362 115.687 115.221 115.178 114.945C114.688 114.676 114.279 114.283 113.991 113.804C113.711 113.283 113.567 112.699 113.575 112.107C113.575 111.501 113.712 110.964 113.991 110.496C114.288 110.009 114.683 109.628 115.178 109.356C115.671 109.082 116.226 108.945 116.839 108.945C117.452 108.945 118.005 109.082 118.5 109.356C118.995 109.629 119.38 110.009 119.658 110.496C119.954 110.964 120.103 111.501 120.103 112.107C120.103 112.731 119.954 113.296 119.658 113.804C119.387 114.285 118.986 114.681 118.5 114.945C117.991 115.222 117.419 115.363 116.839 115.355V115.353ZM120.103 131.978H113.575V116.875H120.103V131.976V131.978ZM135.932 131.978C135.757 131.511 135.618 131.031 135.517 130.542C134.784 131.226 133.873 131.734 132.788 132.064C131.699 132.416 130.404 132.594 128.901 132.594C126.548 132.594 124.808 132.211 123.68 131.45C122.572 130.67 122.019 129.491 122.019 127.911C122.019 126.972 122.207 126.184 122.584 125.539C122.957 124.895 123.611 124.368 124.539 123.958C125.49 123.531 126.795 123.237 128.455 123.081L133.262 122.613C133.836 122.554 134.25 122.495 134.507 122.436C134.784 122.359 134.962 122.271 135.041 122.173C135.125 122.042 135.166 121.889 135.161 121.734V121.47C135.161 120.807 134.933 120.33 134.478 120.038C134.043 119.725 133.301 119.569 132.252 119.569C131.284 119.569 130.533 119.744 129.998 120.096C129.464 120.428 129.159 121.023 129.079 121.881L122.849 121.647C123.007 120.457 123.423 119.472 124.096 118.691C124.788 117.911 125.807 117.324 127.151 116.935C128.495 116.545 130.247 116.35 132.401 116.35C134.676 116.35 136.495 116.574 137.86 117.022C139.224 117.472 140.204 118.125 140.796 118.983C141.39 119.822 141.687 120.886 141.687 122.173V128.174C141.687 129.85 141.925 131.12 142.399 131.978H135.932ZM130.651 129.167C131.521 129.167 132.312 129.041 133.024 128.788C133.736 128.533 134.3 128.172 134.716 127.704C135.13 127.237 135.339 126.68 135.339 126.037V125.1C135.24 125.139 135.151 125.168 135.072 125.187H134.894L131.216 125.627C130.462 125.705 129.88 125.832 129.464 126.008C129.05 126.162 128.762 126.367 128.604 126.623C128.436 126.895 128.353 127.21 128.366 127.53C128.366 128.077 128.555 128.485 128.932 128.759C129.307 129.032 129.88 129.169 130.651 129.169V129.167ZM147.613 132.387C146.979 132.387 146.397 132.241 145.861 131.947C145.341 131.649 144.903 131.226 144.586 130.718C144.289 130.191 144.135 129.596 144.14 128.991C144.14 128.388 144.289 127.822 144.586 127.295C144.896 126.774 145.336 126.341 145.861 126.037C146.392 125.725 146.997 125.564 147.613 125.569C148.247 125.569 148.829 125.724 149.363 126.037C149.897 126.348 150.322 126.769 150.639 127.295C150.954 127.822 151.113 128.388 151.113 128.993C151.113 129.597 150.954 130.162 150.639 130.689C150.328 131.21 149.889 131.643 149.363 131.947C148.827 132.241 148.224 132.392 147.613 132.387ZM199.76 137.714L176.445 151L153.188 137.714V111.199L176.443 98L199.762 111.199V137.714H199.76ZM158.527 134.698L176.443 144.912L194.392 134.698V114.271L176.445 104.057L158.524 114.271V134.698H158.527ZM160.752 131.978V116.642H167.07L167.248 118.514C168.592 116.953 170.471 116.174 172.885 116.174C175.752 116.174 177.769 117.053 178.937 118.807C180.301 117.053 182.378 116.174 185.166 116.174C186.589 116.174 187.825 116.389 188.873 116.818C189.942 117.246 190.764 117.89 191.336 118.75C191.93 119.588 192.226 120.631 192.226 121.881V131.978H185.522V122.789C185.522 122.065 185.295 121.5 184.839 121.091C184.385 120.662 183.76 120.446 182.971 120.446C182.021 120.446 181.259 120.71 180.687 121.236C180.132 121.765 179.856 122.505 179.856 123.461V131.978H173.092V122.789C173.092 122.086 172.875 121.52 172.44 121.091C172.005 120.662 171.413 120.446 170.659 120.446C169.632 120.446 168.841 120.72 168.286 121.267C167.733 121.794 167.455 122.525 167.455 123.461V131.978H160.753H160.752ZM212.084 132.534C210.166 132.534 208.406 132.221 206.803 131.597C205.202 130.952 203.926 130.026 202.976 128.817C202.027 127.606 201.553 126.174 201.553 124.515C201.553 122.818 202.027 121.352 202.976 120.125C203.926 118.896 205.202 117.969 206.803 117.345C208.406 116.7 210.166 116.379 212.084 116.379C214.022 116.379 215.793 116.7 217.394 117.345C218.997 117.988 220.262 118.925 221.192 120.154C222.14 121.383 222.615 122.838 222.615 124.514C222.615 126.155 222.13 127.588 221.161 128.817C220.212 130.026 218.937 130.954 217.334 131.597C215.733 132.221 213.983 132.534 212.084 132.534ZM212.055 128.348C212.765 128.348 213.428 128.172 214.041 127.822C214.654 127.47 215.139 127.001 215.495 126.417C215.846 125.828 216.031 125.156 216.031 124.471C216.031 123.786 215.846 123.114 215.495 122.525C215.146 121.927 214.644 121.431 214.041 121.089C213.437 120.741 212.752 120.56 212.055 120.564C211.342 120.564 210.68 120.739 210.067 121.091C209.476 121.439 208.986 121.933 208.642 122.525C208.306 123.113 208.132 123.78 208.139 124.457C208.139 125.158 208.307 125.811 208.642 126.417C208.992 127.008 209.491 127.498 210.09 127.837C210.689 128.176 211.366 128.353 212.055 128.348ZM224.574 131.978V116.875H230.683L230.921 118.952C232.265 117.294 234.224 116.465 236.795 116.465C238.12 116.465 239.296 116.68 240.325 117.109C241.373 117.519 242.193 118.143 242.788 118.981C243.401 119.802 243.707 120.797 243.707 121.966V131.976H237.18V123.166C237.18 122.424 236.943 121.84 236.469 121.411C235.995 120.981 235.341 120.766 234.51 120.766C233.858 120.766 233.274 120.894 232.76 121.147C232.247 121.4 231.841 121.763 231.545 122.23C231.248 122.698 231.099 123.264 231.099 123.927V131.976H224.574V131.978ZM266.44 116.875L258.964 122.963L267.092 131.978H259.142L255.938 127.909L254.545 126.095L252.971 127.266V131.978H246.445V111.141H252.971V118.778L252.913 121.968L255.611 119.451L258.579 116.877H266.44V116.875Z" fill="#2D2D2D"/>
<path d="M275.507 132.592C269.772 132.592 266.676 130.875 266.223 127.441L272.421 127.295C272.56 127.919 272.877 128.388 273.372 128.699C273.885 128.993 274.697 129.138 275.803 129.138C276.872 129.138 277.663 129.022 278.176 128.788C278.692 128.533 278.949 128.172 278.949 127.704C278.954 127.522 278.906 127.342 278.811 127.186C278.717 127.031 278.579 126.906 278.414 126.827C278.079 126.611 277.563 126.475 276.872 126.416L273.372 126.095C271.077 125.88 269.387 125.394 268.298 124.632C267.231 123.852 266.697 122.789 266.697 121.441C266.697 119.841 267.418 118.593 268.861 117.697C270.325 116.779 272.521 116.321 275.449 116.321C278.158 116.321 280.253 116.721 281.736 117.519C283.24 118.301 284.13 119.461 284.408 121.002L278.354 121.149C278.31 120.897 278.206 120.66 278.052 120.456C277.897 120.253 277.696 120.089 277.466 119.978C277.01 119.744 276.259 119.627 275.211 119.627C274.36 119.627 273.688 119.735 273.193 119.949C272.719 120.144 272.481 120.438 272.481 120.828C272.481 121.199 272.659 121.481 273.015 121.676C273.372 121.852 273.935 121.978 274.705 122.057L278.118 122.347C282.705 122.741 285 124.319 285 127.09C285 128.983 284.188 130.378 282.567 131.275C280.945 132.152 278.592 132.592 275.507 132.592Z" fill="#2D2D2D"/>
</g>
<defs>
<clipPath id="clip0_813_26">
<rect width="250" height="53" fill="white" transform="translate(35 98)"/>
</clipPath>
</defs>
</svg>
