<svg width="275" height="215" viewBox="0 0 275 215" fill="none" xmlns="http://www.w3.org/2000/svg">
<g clip-path="url(#clip0_832_77)">
<path d="M38 114.183V102.1H42.9123L43.0315 103.645C44.1068 102.38 45.6096 101.748 47.5397 101.748C48.6164 101.748 49.526 101.921 50.2699 102.264C51.0288 102.606 51.6384 103.122 52.0973 103.81C52.6607 103.142 53.3768 102.62 54.1849 102.287C55.0233 101.928 55.9726 101.748 57.0342 101.748C58.0767 101.748 59.011 101.921 59.8329 102.264C60.6562 102.606 61.2973 103.122 61.7562 103.81C62.2301 104.48 62.4685 105.292 62.4685 106.244V114.181H57.2466V106.969C57.2466 106.377 57.0575 105.916 56.6767 105.588C56.3137 105.259 55.8466 105.097 55.2767 105.097C54.8467 105.094 54.4228 105.199 54.0438 105.402C53.6676 105.6 53.3548 105.9 53.1411 106.267C52.9356 106.626 52.8329 107.04 52.8329 107.508V114.181H47.611V106.969C47.611 106.627 47.5247 106.314 47.3507 106.033C47.2018 105.746 46.9705 105.509 46.6863 105.354C46.3922 105.18 46.0555 105.091 45.7137 105.097C45.2675 105.09 44.8267 105.195 44.4315 105.402C44.0606 105.596 43.7492 105.887 43.5301 106.244C43.3172 106.631 43.2104 107.067 43.2205 107.508V114.181H38V114.183ZM72.5069 114.604C70.8781 114.604 69.4151 114.353 68.1178 113.854C66.8356 113.339 65.8233 112.597 65.0795 111.63C64.3521 110.662 63.9877 109.499 63.9877 108.143C63.9877 106.83 64.3521 105.692 65.0795 104.723C65.8233 103.756 66.8192 103.014 68.0699 102.499C69.3356 101.984 70.7274 101.726 72.2466 101.726C73.8603 101.726 75.3014 102.007 76.5658 102.569C77.8315 103.116 78.8205 103.912 79.5329 104.957C80.2589 105.987 80.6247 107.206 80.6247 108.609V109.219H69.1863C69.3123 110.03 69.6521 110.647 70.2055 111.068C70.7589 111.489 71.5192 111.7 72.4836 111.7C73.1479 111.7 73.7027 111.599 74.1452 111.396C74.5877 111.178 74.9438 110.849 75.2137 110.412L80.2205 110.67C79.6507 111.997 78.6781 112.988 77.3027 113.644C75.9247 114.284 74.3274 114.604 72.5082 114.604H72.5069ZM75.237 106.808C75.1096 106.073 74.8014 105.527 74.311 105.168C73.8205 104.793 73.1411 104.607 72.2699 104.607C70.5301 104.607 69.5096 105.34 69.2082 106.808H75.2356H75.237ZM93.6123 97.5125H98.8342V114.183H94.0397L93.8973 112.614C92.8219 113.987 91.1767 114.674 88.9616 114.674C87.537 114.674 86.2959 114.416 85.2356 113.901C84.2221 113.399 83.3799 112.609 82.8151 111.63C82.2452 110.646 81.9603 109.483 81.9603 108.143C81.9603 106.768 82.2685 105.599 82.8863 104.63C83.497 103.666 84.3691 102.894 85.4014 102.405C86.4862 101.9 87.6704 101.645 88.8671 101.657C90.8753 101.657 92.4575 102.194 93.6123 103.271V97.5125V97.5125ZM90.3849 111.163C91.4301 111.163 92.2438 110.904 92.8301 110.388C93.4301 109.858 93.7315 109.086 93.7315 108.071C93.7315 107.057 93.4301 106.284 92.8301 105.753C92.2274 105.206 91.4219 104.934 90.4082 104.934C89.8233 104.934 89.2932 105.043 88.8192 105.262C88.3368 105.47 87.9303 105.822 87.6548 106.269C87.3712 106.737 87.2301 107.338 87.2301 108.071C87.2301 109.164 87.5219 109.952 88.1068 110.436C88.7082 110.919 89.4671 111.161 90.3849 111.161V111.163ZM103.471 100.883C103.008 100.889 102.55 100.777 102.142 100.556C101.751 100.341 101.423 100.026 101.193 99.6434C100.969 99.2262 100.854 98.7588 100.86 98.2852C100.86 97.8011 100.97 97.3716 101.193 96.9968C101.43 96.607 101.747 96.302 102.142 96.0845C102.537 95.8657 102.981 95.7563 103.471 95.7563C103.962 95.7563 104.404 95.8657 104.8 96.0845C105.196 96.3034 105.504 96.607 105.726 96.9968C105.963 97.3716 106.082 97.8011 106.082 98.2852C106.082 98.7845 105.963 99.2372 105.726 99.6434C105.509 100.028 105.188 100.345 104.8 100.556C104.393 100.777 103.935 100.89 103.471 100.884V100.883ZM106.082 114.183H100.86V102.1H106.082V114.181V114.183ZM118.745 114.183C118.605 113.809 118.494 113.425 118.414 113.034C117.827 113.581 117.099 113.987 116.23 114.251C115.359 114.533 114.323 114.675 113.121 114.675C111.238 114.675 109.847 114.369 108.944 113.76C108.058 113.136 107.615 112.192 107.615 110.929C107.615 110.178 107.766 109.547 108.067 109.032C108.366 108.516 108.889 108.095 109.632 107.766C110.392 107.424 111.436 107.189 112.764 107.065L116.61 106.69C117.068 106.644 117.4 106.596 117.605 106.549C117.827 106.488 117.97 106.416 118.033 106.339C118.1 106.234 118.133 106.111 118.129 105.987V105.776C118.129 105.246 117.947 104.864 117.582 104.63C117.234 104.38 116.641 104.255 115.801 104.255C115.027 104.255 114.426 104.395 113.999 104.677C113.571 104.942 113.327 105.418 113.263 106.105L108.279 105.917C108.405 104.965 108.738 104.177 109.277 103.552C109.83 102.929 110.645 102.46 111.721 102.148C112.796 101.836 114.197 101.68 115.921 101.68C117.741 101.68 119.196 101.859 120.288 102.217C121.379 102.577 122.163 103.1 122.637 103.786C123.112 104.458 123.349 105.309 123.349 106.339V111.139C123.349 112.48 123.54 113.496 123.919 114.183H118.745V114.183ZM114.521 111.934C115.216 111.934 115.849 111.833 116.419 111.63C116.989 111.427 117.44 111.138 117.773 110.763C118.104 110.39 118.271 109.944 118.271 109.43V108.68C118.192 108.712 118.121 108.735 118.058 108.75H117.915L114.973 109.101C114.37 109.164 113.904 109.265 113.571 109.406C113.24 109.529 113.01 109.694 112.884 109.899C112.749 110.116 112.682 110.368 112.693 110.624C112.693 111.061 112.844 111.388 113.145 111.607C113.445 111.826 113.904 111.935 114.521 111.935V111.934ZM128.09 114.509C127.584 114.509 127.118 114.393 126.689 114.158C126.273 113.919 125.922 113.581 125.668 113.174C125.431 112.753 125.308 112.277 125.312 111.793C125.312 111.31 125.432 110.858 125.668 110.436C125.917 110.019 126.268 109.673 126.689 109.43C127.114 109.18 127.598 109.051 128.09 109.055C128.597 109.055 129.063 109.179 129.49 109.43C129.918 109.679 130.258 110.015 130.511 110.436C130.763 110.858 130.89 111.31 130.89 111.794C130.89 112.277 130.763 112.73 130.511 113.151C130.262 113.568 129.911 113.915 129.49 114.158C129.062 114.393 128.579 114.514 128.09 114.509ZM169.808 118.771L151.156 129.4L132.551 118.771V97.559L151.155 87L169.81 97.559V118.771H169.808ZM136.822 116.359L151.155 124.529L165.514 116.359V100.017L151.156 91.8459L136.819 100.017V116.359H136.822ZM138.601 114.183V101.914H143.656L143.799 103.412C144.874 102.163 146.377 101.539 148.308 101.539C150.601 101.539 152.215 102.242 153.149 103.645C154.241 102.242 155.903 101.539 158.133 101.539C159.271 101.539 160.26 101.711 161.099 102.055C161.953 102.397 162.611 102.912 163.068 103.6C163.544 104.27 163.781 105.105 163.781 106.105V114.183H158.418V106.831C158.418 106.252 158.236 105.8 157.871 105.473C157.508 105.129 157.008 104.957 156.377 104.957C155.616 104.957 155.007 105.168 154.549 105.589C154.105 106.012 153.885 106.604 153.885 107.368V114.183H148.474V106.831C148.474 106.269 148.3 105.816 147.952 105.473C147.604 105.129 147.13 104.957 146.527 104.957C145.705 104.957 145.073 105.176 144.629 105.614C144.186 106.035 143.964 106.62 143.964 107.368V114.183H138.603H138.601ZM179.667 114.627C178.133 114.627 176.725 114.377 175.442 113.877C174.162 113.362 173.141 112.621 172.381 111.654C171.622 110.685 171.242 109.539 171.242 108.212C171.242 106.854 171.622 105.682 172.381 104.7C173.141 103.717 174.162 102.975 175.442 102.476C176.725 101.96 178.133 101.703 179.667 101.703C181.218 101.703 182.634 101.96 183.915 102.476C185.197 102.99 186.21 103.74 186.953 104.723C187.712 105.707 188.092 106.871 188.092 108.211C188.092 109.524 187.704 110.67 186.929 111.654C186.17 112.621 185.149 113.363 183.867 113.877C182.586 114.377 181.186 114.627 179.667 114.627ZM179.644 111.279C180.212 111.279 180.742 111.138 181.233 110.858C181.723 110.576 182.111 110.201 182.396 109.733C182.677 109.262 182.825 108.725 182.825 108.177C182.825 107.629 182.677 107.091 182.396 106.62C182.117 106.141 181.716 105.745 181.233 105.471C180.75 105.193 180.201 105.048 179.644 105.051C179.074 105.051 178.544 105.191 178.053 105.473C177.581 105.751 177.188 106.146 176.914 106.62C176.645 107.091 176.506 107.624 176.511 108.166C176.511 108.727 176.645 109.249 176.914 109.733C177.194 110.207 177.593 110.599 178.072 110.87C178.551 111.141 179.093 111.282 179.644 111.279V111.279ZM189.659 114.183V102.1H194.547L194.737 103.762C195.812 102.435 197.379 101.772 199.436 101.772C200.496 101.772 201.437 101.944 202.26 102.287C203.099 102.616 203.755 103.115 204.23 103.785C204.721 104.441 204.966 105.237 204.966 106.173V114.181H199.744V107.133C199.744 106.54 199.555 106.072 199.175 105.728C198.796 105.385 198.273 105.213 197.608 105.213C197.086 105.213 196.619 105.315 196.208 105.518C195.797 105.72 195.473 106.01 195.236 106.384C194.999 106.758 194.879 107.211 194.879 107.742V114.181H189.659V114.183ZM223.152 102.1L217.171 106.97L223.674 114.183H217.314L214.751 110.927L213.636 109.476L212.377 110.413V114.183H207.156V97.5125H212.377V103.622L212.33 106.174L214.489 104.161L216.863 102.101H223.152V102.1Z" fill="#2D2D2D"/>
<path d="M230.405 114.674C225.818 114.674 223.341 113.3 222.978 110.553L227.937 110.436C228.048 110.936 228.301 111.31 228.697 111.559C229.108 111.794 229.757 111.911 230.642 111.911C231.497 111.911 232.13 111.818 232.541 111.63C232.953 111.427 233.159 111.138 233.159 110.763C233.163 110.618 233.125 110.474 233.049 110.349C232.973 110.225 232.863 110.125 232.731 110.062C232.463 109.889 232.051 109.78 231.497 109.733L228.697 109.476C226.862 109.304 225.51 108.915 224.638 108.305C223.785 107.682 223.357 106.831 223.357 105.753C223.357 104.473 223.934 103.474 225.089 102.758C226.26 102.023 228.016 101.657 230.359 101.657C232.526 101.657 234.203 101.977 235.389 102.616C236.592 103.241 237.304 104.169 237.526 105.402L232.684 105.519C232.648 105.318 232.565 105.128 232.441 104.965C232.318 104.802 232.157 104.671 231.973 104.582C231.608 104.395 231.007 104.302 230.168 104.302C229.488 104.302 228.951 104.388 228.555 104.559C228.175 104.715 227.985 104.95 227.985 105.262C227.985 105.559 228.127 105.785 228.412 105.941C228.697 106.081 229.148 106.183 229.764 106.246L232.494 106.478C236.164 106.793 238 108.055 238 110.272C238 111.786 237.351 112.902 236.053 113.62C234.756 114.322 232.874 114.674 230.405 114.674V114.674Z" fill="#2D2D2D"/>
</g>
<defs>
<clipPath id="clip0_832_77">
<rect width="200" height="42.4" fill="white" transform="translate(38 87)"/>
</clipPath>
</defs>
</svg>
