<svg viewBox="0 0 286 113" width="100%" height="auto" xmlns="http://www.w3.org/2000/svg">
  <style>
    .rss--path {
      fill: var(--color-text-primary);
    }

    .rss--dot-beige {
      fill: var(--il-beige);
      stroke: var(--color-text-primary);
      stroke-width: 0.5;
    }

    .rss--dot-blue {
      fill: var(--il-blue-soft);
      stroke: var(--color-text-primary);
      stroke-width: 0.5;
    }

    .rss--dot-green {
      fill: var(--il-green-muted);
      stroke: var(--color-text-primary);
      stroke-width: 0.5;
    }

    .rss--plane-stroke {
      stroke: var(--color-text-primary);
      stroke-width: 1;
      fill: none;
    }

    .rss--plane-fill-blue {
      fill: var(--il-blue-light);
      stroke: var(--color-text-primary);
      stroke-width: 1;
    }

    .rss--plane-fill-gray {
      fill: var(--il-gray);
      stroke: var(--color-text-primary);
      stroke-width: 1;
    }
  </style>

  <!-- Dotted path trail -->
  <path d="M101.897 84.2512L102.111 83.7995L101.897 84.2512ZM53.511 66.3107L53.7168 66.7664L53.511 66.3107ZM130.816 76.9289L130.677 76.4484L130.664 76.4522L130.651 76.4568L130.816 76.9289ZM159.931 68.8564L159.476 69.064L159.931 68.8564ZM200.62 54.5818L201.059 54.82L200.62 54.5818ZM72.4941 63.9501L72.2749 64.3995L72.3031 64.4133L72.3329 64.4234L72.4941 63.9501ZM84.5347 68.0515L84.9355 67.7527C84.8751 67.6716 84.7915 67.6108 84.6959 67.5782L84.5347 68.0515ZM117.176 81.6828L117.011 81.2107L116.915 81.2442L116.839 81.3129L117.176 81.6828ZM10.5964 85.6083C10.8012 86.0644 10.8012 86.0644 10.8012 86.0644C10.8012 86.0644 10.8012 86.0644 10.8012 86.0644C10.8013 86.0644 10.8013 86.0644 10.8014 86.0643C10.8016 86.0642 10.8018 86.0641 10.8022 86.064C10.8028 86.0637 10.8038 86.0633 10.8051 86.0627C10.8077 86.0615 10.8116 86.0598 10.8167 86.0574C10.8271 86.0528 10.8425 86.0459 10.863 86.0367C10.9039 86.0183 10.9648 85.991 11.0449 85.955C11.205 85.8831 11.4417 85.7769 11.7481 85.6393C12.3607 85.3643 13.2518 84.9642 14.3656 84.4641L14.1608 84.0079L13.956 83.5518C12.8422 84.0519 11.9511 84.452 11.3385 84.7271C11.0322 84.8646 10.7955 84.9709 10.6353 85.0427C10.5553 85.0787 10.4943 85.106 10.4534 85.1244C10.433 85.1336 10.4175 85.1405 10.4072 85.1452C10.402 85.1475 10.3982 85.1492 10.3956 85.1504C10.3943 85.151 10.3933 85.1514 10.3926 85.1517C10.3923 85.1518 10.3921 85.152 10.3919 85.152C10.3918 85.1521 10.3918 85.1521 10.3917 85.1521C10.3917 85.1521 10.3917 85.1521 10.3917 85.1521C10.3917 85.1521 10.3917 85.1521 10.5964 85.6083ZM21.3208 80.7922L21.5256 81.2483C23.7331 80.2568 26.1592 79.1668 28.6822 78.033L28.4772 77.5769L28.2723 77.1209C25.7494 78.2546 23.3233 79.3446 21.1159 80.3361L21.3208 80.7922ZM35.6343 74.3598L35.8394 74.8159C38.2721 73.7221 40.6908 72.6342 42.9953 71.5972L42.7902 71.1412L42.585 70.6853C40.2806 71.7222 37.862 72.81 35.4293 73.9038L35.6343 74.3598ZM49.9444 67.9196L50.1499 68.3754C51.4527 67.7882 52.6521 67.2472 53.7168 66.7664L53.511 66.3107L53.3052 65.855C52.2408 66.3357 51.0417 66.8766 49.739 67.4638L49.9444 67.9196ZM53.511 66.3107L53.7168 66.7664C55.3226 66.0412 56.8283 65.467 58.2321 65.0163L58.0793 64.5403L57.9265 64.0642C56.4854 64.5269 54.9443 65.1148 53.3052 65.855L53.511 66.3107ZM67.7093 63.0379L67.6908 63.5376C69.2292 63.5947 70.3885 63.8168 71.1562 64.0211C71.5402 64.1233 71.8264 64.2211 72.0134 64.2918C72.1069 64.3271 72.1755 64.3557 72.2192 64.3746C72.241 64.384 72.2566 64.3911 72.2659 64.3953C72.2705 64.3975 72.2736 64.3989 72.2751 64.3996C72.2758 64.4 72.2762 64.4002 72.2761 64.4001C72.2761 64.4001 72.276 64.4001 72.2758 64.4C72.2757 64.3999 72.2756 64.3999 72.2754 64.3998C72.2753 64.3997 72.2752 64.3997 72.2751 64.3997C72.275 64.3996 72.2749 64.3995 72.4941 63.9501C72.7133 63.5008 72.7131 63.5007 72.713 63.5006C72.7129 63.5006 72.7127 63.5005 72.7126 63.5004C72.7124 63.5003 72.7121 63.5002 72.7118 63.5C72.7112 63.4997 72.7104 63.4994 72.7096 63.499C72.708 63.4982 72.706 63.4972 72.7035 63.4961C72.6987 63.4938 72.6922 63.4907 72.6842 63.487C72.668 63.4796 72.6455 63.4694 72.6166 63.4569C72.5588 63.4319 72.4755 63.3974 72.3669 63.3564C72.1497 63.2743 71.8313 63.166 71.4134 63.0548C70.5775 62.8323 69.3444 62.5983 67.7279 62.5383L67.7093 63.0379ZM72.4941 63.9501L72.3329 64.4234L75.343 65.4488L75.5042 64.9755L75.6654 64.5022L72.6553 63.4768L72.4941 63.9501ZM81.5245 67.0262L81.3633 67.4994L84.3734 68.5248L84.5347 68.0515L84.6959 67.5782L81.6857 66.5529L81.5245 67.0262ZM84.5347 68.0515C84.1338 68.3503 84.1338 68.3504 84.1338 68.3504C84.1338 68.3504 84.1339 68.3505 84.1339 68.3505C84.134 68.3506 84.1341 68.3507 84.1342 68.3509C84.1344 68.3512 84.1347 68.3516 84.1351 68.3521C84.1359 68.3532 84.1371 68.3548 84.1386 68.3568C84.1417 68.3609 84.1462 68.3669 84.1521 68.3747C84.1639 68.3904 84.1813 68.4136 84.2042 68.4439C84.25 68.5044 84.3178 68.5935 84.4062 68.7084C84.5829 68.9383 84.8423 69.2717 85.1739 69.6875C85.8369 70.5191 86.7894 71.6809 87.9485 73.0042L88.3246 72.6747L88.7007 72.3453C87.5536 71.0357 86.6111 69.8859 85.9557 69.0641C85.6281 68.6532 85.3724 68.3244 85.1989 68.0988C85.1121 67.986 85.0459 67.899 85.0016 67.8404C84.9795 67.8112 84.9628 67.789 84.9517 67.7742C84.9462 67.7669 84.942 67.7614 84.9393 67.7577C84.938 67.7559 84.937 67.7546 84.9363 67.7538C84.936 67.7533 84.9358 67.753 84.9357 67.7528C84.9356 67.7528 84.9355 67.7527 84.9355 67.7527C84.9355 67.7526 84.9355 67.7526 84.9355 67.7526C84.9355 67.7526 84.9355 67.7527 84.5347 68.0515ZM96.8794 81.0195L96.5695 81.4119C98.2442 82.7346 99.9775 83.8934 101.682 84.7029L101.897 84.2512L102.111 83.7995C100.497 83.033 98.8285 81.9218 97.1893 80.6271L96.8794 81.0195ZM101.897 84.2512L101.682 84.7029C103.075 85.3641 104.441 85.738 105.751 85.8992L105.812 85.403L105.873 84.9067C104.667 84.7583 103.405 84.4139 102.111 83.7995L101.897 84.2512ZM113.753 83.91L113.973 84.3585C115.066 83.8202 115.946 83.2479 116.554 82.8092C116.858 82.5896 117.095 82.4031 117.257 82.2702C117.338 82.2037 117.4 82.1507 117.443 82.1136C117.464 82.095 117.481 82.0805 117.493 82.0702C117.498 82.0651 117.503 82.0611 117.506 82.0581C117.508 82.0567 117.509 82.0555 117.51 82.0546C117.511 82.0541 117.511 82.0538 117.511 82.0534C117.511 82.0533 117.512 82.0532 117.512 82.053C117.512 82.053 117.512 82.0529 117.512 82.0529C117.512 82.0528 117.512 82.0527 117.176 81.6828C116.839 81.3129 116.839 81.3128 116.839 81.3128C116.839 81.3128 116.839 81.3127 116.839 81.3127C116.84 81.3126 116.84 81.3126 116.84 81.3126C116.84 81.3126 116.84 81.3126 116.839 81.3128C116.839 81.313 116.839 81.3135 116.838 81.3143C116.836 81.3159 116.833 81.3186 116.829 81.3224C116.82 81.33 116.807 81.3418 116.789 81.3575C116.752 81.3891 116.696 81.4364 116.623 81.4969C116.475 81.618 116.254 81.7919 115.968 81.9983C115.396 82.4114 114.564 82.9527 113.532 83.4615L113.753 83.91ZM117.176 81.6828L117.34 82.155L120.75 80.9665L120.586 80.4943L120.421 80.0222L117.011 81.2107L117.176 81.6828ZM127.406 78.1174L127.57 78.5895L130.98 77.401L130.816 76.9289L130.651 76.4568L127.241 77.6452L127.406 78.1174ZM130.816 76.9289L130.954 77.4094C131.943 77.1245 133.068 76.9957 134.298 76.9895L134.295 76.4895L134.292 75.9895C133 75.996 131.78 76.131 130.677 76.4484L130.816 76.9289ZM141.277 77.3246L141.178 77.8147C143.444 78.2727 145.768 78.8567 148.023 79.4028L148.141 78.9169L148.259 78.431C146.016 77.8878 143.666 77.2974 141.376 76.8345L141.277 77.3246ZM155.036 80.3335L154.971 80.8292C156.533 81.0346 157.965 81.0899 159.16 80.8756C160.36 80.6604 161.374 80.1622 162.01 79.2194L161.595 78.9399L161.18 78.6605C160.747 79.3036 160.023 79.7049 158.983 79.8913C157.937 80.0788 156.624 80.038 155.101 79.8377L155.036 80.3335ZM161.269 72.1433L161.741 71.979C161.392 70.9751 160.943 69.8679 160.386 68.6488L159.931 68.8564L159.476 69.064C160.023 70.2609 160.46 71.3388 160.797 72.3077L161.269 72.1433ZM159.931 68.8564L160.386 68.6488C159.633 66.9987 159.106 65.5719 158.774 64.3433L158.291 64.4739L157.808 64.6045C158.159 65.8991 158.707 67.3785 159.476 69.064L159.931 68.8564ZM161.407 57.1225L161.497 57.6143C163.791 57.1939 167.052 57.7818 170.46 58.7084L170.591 58.226L170.722 57.7435C167.321 56.8184 163.858 56.165 161.316 56.6307L161.407 57.1225ZM179.484 60.9935L179.336 61.4711C180.436 61.8114 181.422 62.0913 182.223 62.2535C182.623 62.3346 182.99 62.3889 183.31 62.4044C183.62 62.4195 183.93 62.4008 184.192 62.3009L184.014 61.8337L183.836 61.3666C183.765 61.3936 183.617 61.4182 183.358 61.4056C183.109 61.3935 182.796 61.3492 182.421 61.2734C181.672 61.1217 180.726 60.8545 179.632 60.5158L179.484 60.9935ZM184.014 61.8337L184.192 62.3009C184.694 62.1094 185.343 61.9923 186.132 61.9047C186.921 61.817 187.794 61.7638 188.761 61.6823L188.719 61.1841L188.677 60.6858C187.743 60.7645 186.827 60.8213 186.021 60.9109C185.214 61.0006 184.461 61.1282 183.836 61.3666L184.014 61.8337ZM197.629 58.2545L197.944 58.6432C199.11 57.6989 200.172 56.4569 201.059 54.82L200.62 54.5818L200.18 54.3436C199.353 55.8693 198.375 57.0077 197.315 57.8659L197.629 58.2545ZM200.62 54.5818L201.059 54.82C201.507 53.9934 202.058 53.1652 202.687 52.344L202.291 52.0398L201.894 51.7356C201.239 52.59 200.658 53.4623 200.18 54.3436L200.62 54.5818ZM206.448 47.5915L206.786 47.9602C208.304 46.5697 209.915 45.2719 211.454 44.1208L211.155 43.7204L210.855 43.32C209.296 44.4857 207.658 45.8047 206.11 47.2229L206.448 47.5915ZM216.17 40.2554L216.439 40.6768C217.222 40.1767 217.867 39.7832 218.315 39.5151C218.54 39.3811 218.715 39.2784 218.833 39.2094C218.893 39.1749 218.938 39.1489 218.968 39.1316C218.983 39.1229 218.994 39.1164 219.002 39.1122C219.006 39.11 219.008 39.1085 219.01 39.1075C219.011 39.1069 219.012 39.1066 219.012 39.1064C219.012 39.1062 219.012 39.1062 219.013 39.1061C219.013 39.1061 219.013 39.1061 219.013 39.1061C219.013 39.1061 219.013 39.1061 219.013 39.1061C219.013 39.1061 219.013 39.1061 218.766 38.671C218.52 38.236 218.52 38.236 218.52 38.236C218.52 38.236 218.52 38.236 218.52 38.236C218.52 38.2361 218.519 38.2361 218.519 38.2362C218.519 38.2363 218.519 38.2364 218.519 38.2366C218.518 38.2369 218.517 38.2374 218.516 38.238C218.514 38.2392 218.511 38.241 218.507 38.2434C218.498 38.2481 218.486 38.255 218.47 38.2641C218.439 38.2824 218.392 38.3094 218.331 38.3448C218.209 38.4158 218.03 38.5206 217.802 38.6568C217.346 38.9294 216.693 39.3281 215.901 39.8341L216.17 40.2554Z"
        class="rss--path"/>

  <!-- Paper airplane -->
  <g>
    <path d="M220.034 38.4534L210.487 18.8579L207.105 18.0169L192.299 14.5262L285.305 0.5L224.128 18.8579L220.034 38.4534Z" class="rss--plane-fill-blue"/>
    <path d="M210.487 18.8579L220.034 38.4534L224.128 18.8579L285.305 0.5M210.487 18.8579L285.305 0.5M210.487 18.8579L207.105 18.0169L192.299 14.5262L285.305 0.5"
          class="rss--plane-stroke" stroke-linejoin="round"/>
    <path d="M220.033 38.4534L285.305 0.5" class="rss--plane-stroke" stroke-linejoin="round"/>
    <path d="M285.304 0.5L235.352 22.6047L224.412 18.7159" class="rss--plane-stroke"/>
    <path d="M285.304 0.5C285.304 0.5 223.996 18.8511 224.204 18.8511C224.412 18.8511 235.428 22.6047 235.428 22.6047L285.304 0.5Z"
          class="rss--plane-fill-gray rss--plane-stroke" stroke-linejoin="round"/>
  </g>

  <!-- Dots along path -->
  <ellipse cx="4.14916" cy="88.7749" rx="4.14916" ry="4.14916" class="rss--dot-beige"/>
  <ellipse cx="67.5714" cy="63.0896" rx="4.34674" ry="4.14916" class="rss--dot-blue"/>
  <ellipse cx="105.507" cy="85.6135" rx="4.34674" ry="4.14916" class="rss--dot-green"/>
  <ellipse cx="160.04" cy="81.4642" rx="3.16127" ry="3.16127" class="rss--dot-beige"/>
  <ellipse cx="161.028" cy="56.3716" rx="4.14916" ry="4.14916" class="rss--dot-blue"/>
  <ellipse cx="204.296" cy="49.0612" rx="3.16127" ry="3.16127" class="rss--dot-green"/>
</svg>
