<svg viewBox="0 0 271 132" width="100%" height="auto" xmlns="http://www.w3.org/2000/svg">
  <style>
    .new-website--globe {
      stroke: var(--color-text-primary);
      stroke-linecap: round;
      stroke-linejoin: round;
      stroke-dasharray: 4 4;
      fill: none;
    }

    .new-website--cursor-blue {
      fill: var(--il-blue-dark);
    }

    .new-website--cursor-white {
      fill: var(--color-bg-body);
    }
  </style>

  <!-- Globe -->
  <path d="M168.916 66.1149C168.916 82.9136 155.298 96.5316 138.499 96.5316M168.916 66.1149C168.916 49.3162 155.298 35.6982 138.499 35.6982M168.916 66.1149H108.083M138.499 96.5316C121.701 96.5316 108.083 82.9136 108.083 66.1149M138.499 96.5316C146.107 88.2024 150.431 77.3933 150.666 66.1149C150.431 54.8365 146.107 44.0274 138.499 35.6982M138.499 96.5316C130.891 88.2024 126.568 77.3933 126.333 66.1149C126.568 54.8365 130.891 44.0274 138.499 35.6982M108.083 66.1149C108.083 49.3162 121.701 35.6982 138.499 35.6982" class="new-website--globe"/>

  <!-- Cursor -->
  <path d="M91.9696 90.1452L97.8541 75.2451L82.806 81.7955L89.1121 84.286L89.4493 84.5482L91.9696 90.1452Z" class="new-website--cursor-white"/>
  <path d="M83.2783 87.4335L86.0646 90.1789L94.491 81.5832L91.6377 78.7899L83.2783 87.4335Z" class="new-website--cursor-white"/>
  <path d="M90.355 81.5675L91.7859 82.9648L86.1965 88.6884L84.7656 87.291L90.355 81.5675Z" class="new-website--cursor-blue"/>
  <path d="M96.0388 77.1191L91.9284 87.5269L90.2203 83.7666L89.8718 83.4784L85.4445 81.7299L96.0388 77.1191Z" class="new-website--cursor-blue"/>
</svg>
