<svg viewBox="0 0 271 132" width="100%" height="auto" xmlns="http://www.w3.org/2000/svg">
  <style>
    .sxsw--text-blue-dark {
      fill: var(--il-blue-medium);
      stroke: var(--color-text-primary);
    }

    .sxsw--text-green {
      fill: var(--il-green-muted);
      stroke: var(--color-text-primary);
    }

    .sxsw--text-blue {
      fill: var(--il-blue-light);
      stroke: var(--color-text-primary);
    }

    .sxsw--text-beige {
      fill: var(--il-beige);
      stroke: var(--color-text-primary);
    }

    .sxsw--shape-gray {
      fill: var(--il-gray-warm);
    }

    .sxsw--shadow {
      fill: var(--color-text-primary);
    }
  </style>

  <!-- S -->
  <path d="M35.2955 52.4561C35.1136 50.6228 34.3333 49.1986 32.9545 48.1834C31.5758 47.1683 29.7045 46.6607 27.3409 46.6607C25.7348 46.6607 24.3788 46.888 23.2727 47.3425C22.1667 47.7819 21.3182 48.3955 20.7273 49.1834C20.1515 49.9713 19.8636 50.8652 19.8636 51.8652C19.8333 52.6986 20.0076 53.4258 20.3864 54.0471C20.7803 54.6683 21.3182 55.2061 22 55.6607C22.6818 56.1001 23.4697 56.4864 24.3636 56.8198C25.2576 57.138 26.2121 57.4107 27.2273 57.638L31.4091 58.638C33.4394 59.0925 35.303 59.6986 37 60.4561C38.697 61.2137 40.1667 62.1455 41.4091 63.2516C42.6515 64.3577 43.6136 65.6607 44.2955 67.1607C44.9924 68.6607 45.3485 70.3804 45.3636 72.3198C45.3485 75.1683 44.6212 77.638 43.1818 79.7289C41.7576 81.8046 39.697 83.4183 37 84.5698C34.3182 85.7061 31.0833 86.2743 27.2955 86.2743C23.5379 86.2743 20.2652 85.6986 17.4773 84.5471C14.7045 83.3955 12.5379 81.691 10.9773 79.4334C9.43182 77.1607 8.62121 74.3501 8.54545 71.0016H18.0682C18.1742 72.5622 18.6212 73.8652 19.4091 74.9107C20.2121 75.941 21.2803 76.7213 22.6136 77.2516C23.9621 77.7667 25.4848 78.0243 27.1818 78.0243C28.8485 78.0243 30.2955 77.7819 31.5227 77.2971C32.7652 76.8122 33.7273 76.138 34.4091 75.2743C35.0909 74.4107 35.4318 73.4183 35.4318 72.2971C35.4318 71.2516 35.1212 70.3728 34.5 69.6607C33.8939 68.9486 33 68.3425 31.8182 67.8425C30.6515 67.3425 29.2197 66.888 27.5227 66.4789L22.4545 65.2061C18.5303 64.2516 15.4318 62.7592 13.1591 60.7289C10.8864 58.6986 9.75758 55.9637 9.77273 52.5243C9.75758 49.7061 10.5076 47.244 12.0227 45.138C13.553 43.0319 15.6515 41.388 18.3182 40.2061C20.9848 39.0243 24.0152 38.4334 27.4091 38.4334C30.8636 38.4334 33.8788 39.0243 36.4545 40.2061C39.0455 41.388 41.0606 43.0319 42.5 45.138C43.9394 47.244 44.6818 49.6834 44.7273 52.4561H35.2955Z" class="sxsw--text-blue-dark"/>

  <!-- X -->
  <path d="M61.2102 39.0698L70.5966 54.9334H70.9602L80.392 39.0698H91.5057L77.3011 62.3425L91.8239 85.6152H80.5057L70.9602 69.7289H70.5966L61.0511 85.6152H49.7784L64.3466 62.3425L50.0511 39.0698H61.2102Z" class="sxsw--text-green"/>

  <!-- S -->
  <path d="M122.983 52.4561C122.801 50.6228 122.021 49.1986 120.642 48.1834C119.263 47.1683 117.392 46.6607 115.028 46.6607C113.422 46.6607 112.066 46.888 110.96 47.3425C109.854 47.7819 109.006 48.3955 108.415 49.1834C107.839 49.9713 107.551 50.8652 107.551 51.8652C107.521 52.6986 107.695 53.4258 108.074 54.0471C108.468 54.6683 109.006 55.2061 109.688 55.6607C110.369 56.1001 111.157 56.4864 112.051 56.8198C112.945 57.138 113.9 57.4107 114.915 57.638L119.097 58.638C121.127 59.0925 122.991 59.6986 124.688 60.4561C126.384 61.2137 127.854 62.1455 129.097 63.2516C130.339 64.3577 131.301 65.6607 131.983 67.1607C132.68 68.6607 133.036 70.3804 133.051 72.3198C133.036 75.1683 132.309 77.638 130.869 79.7289C129.445 81.8046 127.384 83.4183 124.688 84.5698C122.006 85.7061 118.771 86.2743 114.983 86.2743C111.225 86.2743 107.953 85.6986 105.165 84.5471C102.392 83.3955 100.225 81.691 98.6648 79.4334C97.1193 77.1607 96.3087 74.3501 96.233 71.0016H105.756C105.862 72.5622 106.309 73.8652 107.097 74.9107C107.9 75.941 108.968 76.7213 110.301 77.2516C111.65 77.7667 113.172 78.0243 114.869 78.0243C116.536 78.0243 117.983 77.7819 119.21 77.2971C120.453 76.8122 121.415 76.138 122.097 75.2743C122.778 74.4107 123.119 73.4183 123.119 72.2971C123.119 71.2516 122.809 70.3728 122.188 69.6607C121.581 68.9486 120.688 68.3425 119.506 67.8425C118.339 67.3425 116.907 66.888 115.21 66.4789L110.142 65.2061C106.218 64.2516 103.119 62.7592 100.847 60.7289C98.5739 58.6986 97.4451 55.9637 97.4602 52.5243C97.4451 49.7061 98.1951 47.244 99.7102 45.138C101.241 43.0319 103.339 41.388 106.006 40.2061C108.672 39.0243 111.703 38.4334 115.097 38.4334C118.551 38.4334 121.566 39.0243 124.142 40.2061C126.733 41.388 128.748 43.0319 130.188 45.138C131.627 47.244 132.369 49.6834 132.415 52.4561H122.983Z" class="sxsw--text-blue"/>

  <!-- W -->
  <path d="M150.148 85.6152L136.83 39.0698H147.58L155.284 71.4107H155.67L164.17 39.0698H173.375L181.852 71.4789H182.261L189.966 39.0698H200.716L187.398 85.6152H177.807L168.943 55.1834H168.58L159.739 85.6152H150.148Z" class="sxsw--text-beige"/>

  <!-- "17" shadow (offset +1Y) -->
  <rect x="212.209" y="88.3398" width="51.2796" height="13.9936" transform="rotate(-90 212.209 88.3398)" class="sxsw--shadow"/>
  <rect x="213.682" y="74.6162" width="52.2918" height="13.7227" class="sxsw--shadow"/>
  <rect width="58.1694" height="13.8588" transform="matrix(0.713983 -0.700163 0.713983 0.700163 214.573 76.3418)" class="sxsw--shadow"/>

  <!-- "17" geometric shapes -->
  <rect x="212.209" y="87.3398" width="51.2796" height="13.9936" transform="rotate(-90 212.209 87.3398)" class="sxsw--shape-gray"/>
  <rect x="213.682" y="73.6162" width="52.2918" height="13.7227" class="sxsw--shape-gray"/>
  <rect width="58.1694" height="13.8588" transform="matrix(0.713983 -0.700163 0.713983 0.700163 214.573 75.3418)" class="sxsw--shape-gray"/>
</svg>
