<svg width="235" height="68" viewBox="0 0 235 68" fill="none" xmlns="http://www.w3.org/2000/svg">
<path d="M33.2211 47.624C33.3686 47.4892 34.1348 47.2208 34.4482 47.0399C34.2965 47.6829 32.689 48.1063 33.2211 47.624ZM77.148 31.3339C77.3075 30.5728 77.4607 29.7542 77.5821 28.9247C76.8143 31.2127 75.758 33.7478 74.8403 35.1959C74.6906 35.4342 74.71 34.6217 74.3844 35.1975C74.0569 35.7644 74.5561 35.9005 74.138 36.7325C73.6681 37.7571 70.9547 41.1289 70.1268 42.1357C67.1567 46.0628 63.6108 49.9332 61.5589 51.705C61.6544 51.5392 61.8634 51.2634 61.9907 51.0718C62.1162 50.882 62.2011 50.7345 62.228 50.6478C62.2867 50.4696 62.1078 50.5401 61.8611 50.7021C61.6284 50.85 61.2875 51.1305 61.1333 51.264C61.0662 51.3193 61.0332 51.355 61.1758 51.2025C61.2577 51.1127 61.3609 51.0028 61.5689 50.7541C61.8221 50.4429 62.145 50.05 62.6537 49.2566C63.1771 48.2247 63.899 47.9047 64.9876 43.5647C65.2122 42.2735 65.6392 40.8271 65.1167 37.293C64.8327 34.0104 61.4603 28.0342 57.6107 25.8221C53.8822 23.4578 51.4895 23.265 50.0301 23.0218C48.5455 22.844 47.7788 22.8725 47.235 22.8713C46.1994 22.8911 46.0981 22.892 46.4946 22.7808C46.7082 22.7271 47.0657 22.6498 47.6897 22.5504C48.3437 22.4576 49.1396 22.3085 50.9891 22.2557C51.1254 22.253 51.2635 22.2516 51.4035 22.2517C58.2721 22.1706 62.8486 25.8835 64.3497 27.375C66.0761 29.0889 66.5329 29.9454 66.9123 30.5273C67.5618 31.636 67.4969 31.7874 67.4838 31.9537C67.4368 32.078 67.3524 32.1338 67.1247 31.9375C66.9992 31.8259 66.8478 31.6497 66.4474 31.1619C65.9695 30.6605 65.5917 29.8551 63.0502 27.8959C61.8014 26.9837 59.1812 25.4742 55.9739 25.0386C52.7849 24.5922 50.5602 25.203 49.7561 25.3558C50.7242 24.6616 54.4146 24.1927 55.3622 24.2681C56.464 24.2824 54.5579 23.8615 52.4879 24.0153C50.4099 24.166 49.2068 24.6382 48.9325 24.7243C48.6214 24.8384 48.9242 24.7129 49.302 24.5172C49.3819 24.4827 52.6129 23.003 54.1963 22.2138C54.7023 21.9568 55.3018 21.1394 56.021 20.7979C56.486 20.5769 56.9984 20.6364 57.6987 20.3126C61.066 18.7632 64.4255 17.426 67.8368 16.3058C66.2975 18.1815 69.576 16.2498 69.742 16.265C70.6566 16.3021 67.0571 17.6682 68.5621 17.3625C69.4614 17.0262 70.3047 16.7174 71.2088 16.3953C72.1098 16.0696 72.9923 15.7398 73.8701 15.4007C72.5268 15.7222 75.2245 13.795 75.8953 13.9627C75.3096 13.0716 83.1039 12.0348 83.7599 11.1774C83.8857 11.0129 82.5103 11.1573 85.3517 9.90899C85.6408 9.77766 85.6983 10.1271 85.8279 10.0172C85.9075 9.95027 85.8766 8.74712 86.5886 8.98415C86.7175 9.02511 86.6434 9.33051 86.7588 9.4514C86.8168 9.51155 86.9328 9.52055 87.1278 9.43388C87.2988 9.36563 87.6551 9.11342 87.6234 9.06285C87.8343 8.88648 88.0546 8.70667 88.2844 8.52412C86.1951 9.55076 89.1002 6.63707 93.4878 4.62836C97.8598 2.52891 103.083 1.94722 104.677 1.97422C104.026 1.89009 103.368 1.82442 102.702 1.7782C105.926 1.733 106.48 1.46061 107.233 1.44028C107.785 1.44489 108.399 1.471 109.078 1.52677C109.41 1.55453 109.774 1.58957 110.196 1.63891C110.642 1.69333 110.993 1.73347 111.885 1.87915C114.954 2.33119 119.777 4.13746 123.171 7.78693C126.582 11.391 127.704 15.0993 128.23 17.2766C129.07 21.3684 128.954 22.3914 129.086 23.7585C129.147 25.0539 129.114 26.3161 128.61 28.1411C128.935 27.2922 129.248 26.3601 129.521 25.2245C129.098 28.5301 128.435 30.5499 127.832 32.4049C128.311 27.6364 127.512 33.4234 127.41 33.6154C127.267 34.1273 127.173 33.2936 126.926 34.1378C126.903 34.22 127.269 34.2365 126.856 35.4625C125.994 37.9389 125.745 37.3406 125.361 38.2984C125.329 38.3781 125.734 38.2267 125.136 39.8136C123.273 44.6396 124.922 39.738 124.972 39.491C125.028 39.1838 123.116 40.5263 125.333 36.2865C124.592 37.7576 124.009 37.6492 123.928 37.8128C123.855 37.9746 122.903 40.386 122.868 40.5022C122.55 41.6978 123.341 40.8724 123.308 41.1185C123.271 41.3496 121.627 43.7643 122.46 44.7644C120.974 45.4404 121.826 43.7894 122.65 41.5479C122.584 41.1578 121.35 43.3769 121.31 43.465C120.092 46.1848 121.585 45.028 121.849 45.8285C121.987 46.2492 121.056 46.8835 122.142 46.3728C121.998 46.7417 121.897 46.9773 121.827 47.1094C121.057 48.759 121.449 47.0128 121.305 47.206C121.055 47.5593 120.64 49.0352 120.527 49.1918C120.367 49.4252 120.533 48.4313 119.974 49.3824C119.887 49.5336 119.532 51.3407 120.737 49.3788C119.335 52.103 119.754 52.0474 118.552 52.5562C118.842 55.1372 117.005 53.3922 116.524 54.0169C115.199 55.6739 116.526 55.815 116.518 55.9455C116.453 56.8697 112.518 61.2982 112.028 62.0397C111.549 61.2877 114.632 58.8785 115.035 57.9872C116.344 55.2813 112.193 61.0061 112.613 58.6408C112.32 59.498 112.014 60.3408 111.763 61.1038C111.062 61.3872 110.974 61.0991 110.785 61.1168C110.697 61.1181 110.576 61.2035 110.422 61.3807C110.348 61.4644 110.257 61.5844 110.265 61.599C110.275 61.5973 110.304 61.5816 110.478 61.3675C110.567 61.2543 110.699 61.0889 110.943 60.7225C111.202 60.2911 111.573 59.875 112.333 58.0028C112.646 57.2891 112.851 56.6652 112.947 56.4075C113.044 56.1393 113.045 56.2459 112.959 56.6398C112.874 57.0282 112.691 57.6743 112.447 58.3158C112.24 58.8663 112.013 59.3716 111.778 59.829C110.879 61.5088 110.59 61.6861 110.519 61.7772C110.449 61.8314 110.556 61.6631 110.646 61.5748C110.736 61.4845 110.814 61.463 110.83 61.6292C110.859 61.7547 110.706 62.0541 110.812 62.0182C110.874 61.9825 111.001 61.8935 111.459 61.2534C111.721 60.8616 112.039 60.4342 112.623 59.2112C113.014 57.9869 114.62 56.0371 113.928 49.7502C113.455 45.7682 110.604 41.4975 108.48 39.7884C106.445 38.0329 105.258 37.5709 105.12 37.4459C104.949 37.3694 106.067 37.7074 108.209 39.4115C110.397 40.9939 113.63 45.5765 114.108 49.7216C114.5 52.1707 114.269 54.3065 113.989 55.6874C113.746 56.8924 113.436 57.8086 113.151 58.5339C112.676 59.7269 112.253 60.4427 112.036 60.8149C111.783 61.2412 111.611 61.4928 111.497 61.6613C111.376 61.8381 111.298 61.948 111.249 62.0199C111.053 62.303 111.124 62.2648 111.204 62.319C111.279 62.3295 111.337 62.3501 111.619 62.0285C111.779 61.8318 111.984 61.5988 112.464 60.8038C112.695 60.4068 113.067 59.7734 113.531 58.6158C113.801 57.9266 114.103 57.0558 114.354 55.8615C114.627 54.5537 114.928 52.3537 114.505 49.659C114.239 45.25 109.36 38.6265 105.457 37.0618C101.794 35.2548 99.8465 35.2968 98.5808 35.1725C96.1503 35.1003 95.656 35.3277 95.1353 35.4048C94.6838 35.5039 94.5369 35.5665 94.4482 35.6116C94.3627 35.6575 94.3578 35.6871 94.3636 35.7156C94.3861 35.7695 94.4286 35.8289 94.425 35.904C94.4319 35.9392 94.4189 35.9788 94.5319 35.9836C94.5886 35.9865 94.6869 35.977 94.8984 35.9473C95.1486 35.9154 95.4327 35.8495 96.418 35.7659C95.0424 35.9112 94.8918 36.0797 94.7014 36.2204C94.5603 36.3629 94.583 36.4996 94.643 36.61C94.7738 36.8286 95.0556 36.9494 95.3218 36.6571C95.4955 36.4672 94.8365 36.211 94.6615 35.8478C94.5385 35.4568 94.2414 35.2635 96.7708 34.4164C96.9286 34.6524 96.4368 34.8949 95.9513 35.0598C95.4591 35.2279 95.0137 35.2999 95.0063 35.325C94.9681 35.405 95.6965 36.4722 95.7831 36.5053C95.8328 36.739 101.037 33.8789 102.618 33.9174C102.248 33.6898 103.262 33.2304 104.501 32.7651C105.237 32.5064 106.161 32.1846 106.281 31.9979C106.34 31.9019 105.826 31.6557 105.898 31.5691C106.326 31.0694 108.288 30.921 109.085 30.4536C109.961 29.9506 109.65 29.6826 109.698 29.6556C110.089 29.4334 109.924 29.8457 110.158 29.6959C110.502 29.5018 113.011 27.8221 113.112 27.6586C113.138 27.6184 112.473 27.5638 112.966 27.0976C113.052 27.0094 113.295 27.5047 114.792 26.0574C116.593 24.2884 113.031 26.6173 113.517 25.5415C115.24 25.1834 114.732 24.5925 115.108 24.3692C115.239 24.2912 116.535 24.0804 117.499 23.2039C116.86 23.8875 116.228 24.5508 115.601 25.1933C116.354 24.7374 117.605 23.5017 118.272 23.095C118.595 22.899 118.711 23.5083 119.322 22.959C119.455 22.8327 119.106 21.4148 117.883 23.2424C117.45 22.9992 118.411 22.5752 118.683 22.1622C118.714 22.1147 118.553 21.6651 118.801 21.4303C118.927 21.3134 119.11 21.2101 119.366 21.1487C119.65 21.1198 119.12 24.321 123.064 19.1464C123.195 18.9824 122.459 19.1774 122.583 19.0114C122.671 18.8887 124.022 18.0469 124.138 17.9215C124.258 17.783 123.459 17.9695 123.596 17.7974C124.308 16.9039 126.144 17.1409 124.294 18.3115C124.985 18.0086 125.667 17.7278 126.34 17.4654C125.196 17.1091 127.128 16.6256 127.903 16.1153C132.852 12.9094 129.17 14.431 129.88 13.6383C131.009 12.4079 130.761 14.3726 132.531 12.8339C132.69 12.7053 129.969 13.3969 134.838 11.1992C134.162 11.5873 133.486 11.9816 132.805 12.3859C133.639 12.9467 135.264 10.989 135.416 10.8994C135.925 10.592 136.191 10.4564 136.383 10.3671C136.951 10.1079 136.939 10.156 139.06 8.7912C139.325 8.6215 140.025 8.54404 140.568 8.18295C142.832 6.67578 137.22 9.38189 136.805 9.24544C136.744 9.00366 142.923 6.27998 143.114 6.35028C144.131 6.32938 140.457 7.64373 141.325 7.78804C141.698 7.72381 149.859 4.18 151.907 3.81761C152.471 3.69382 153.003 3.65349 153.486 3.64038C155.138 3.52877 156.664 3.67135 156.506 2.66112C158.184 3.71481 160.52 2.44261 163.599 2.92092C166.131 3.22233 171.271 5.0655 174.464 8.93271C177.617 12.7188 178.11 15.6086 178.481 17.1162C179.022 20.1363 178.837 20.5353 178.884 21.0245C178.881 22.6401 178.927 23.485 178.827 26.0334C178.787 26.8751 178.3 27.5268 178.333 27.8233C178.352 27.9981 178.829 27.7303 178.852 28.5863C178.999 29.8569 176.954 36.3996 176.499 36.6779C176.138 37.0793 177.182 33.9986 176.631 34.4493C175.974 36.7185 175.342 38.8141 174.491 40.8016C174.135 41.6206 174.053 41.0897 173.901 41.4395C173.841 41.6137 172.862 44.3843 173.005 44.295C173.169 44.2256 174.166 42.1594 174.997 40.1544C175.833 38.1694 176.477 36.3437 176.287 37.7137C176.213 38.252 174.992 39.7069 175.818 39.7117C174.754 42.3668 173.576 44.7409 172.478 46.8147C172.416 46.8485 172.393 46.847 172.402 46.6373C172.405 46.5235 172.42 46.3689 172.423 45.9827C172.423 45.7823 172.423 45.5294 172.387 45.0766C172.318 44.5559 172.378 44.1442 171.809 42.1759C170.611 38.1301 167.714 35.1276 165.738 33.8035C163.686 32.3959 162.251 31.9538 161.193 31.6413C159.102 31.0948 158.201 31.1701 157.48 31.1739C156.558 31.1818 155.048 31.4429 154.461 31.633C153.793 31.8282 153.559 31.9455 153.453 31.9963C153.581 32.0053 153.824 31.943 154.485 31.7964C155.066 31.6545 156.562 31.4295 157.486 31.4524C158.178 31.4855 159.038 31.4392 161.051 31.9791C162.072 32.288 163.456 32.7142 165.457 34.0812C167.379 35.364 170.242 38.2975 171.422 42.2943C171.895 43.9185 171.886 44.3885 171.952 44.8693C171.995 45.3041 172.002 45.5581 172.008 45.7597C172.017 46.1508 172.011 46.3188 172.012 46.443C172.013 46.6744 172.027 46.6955 172.024 46.665C172.024 46.6573 172.05 46.6416 172.035 46.5937C172.243 46.1042 172.362 45.6759 172.136 45.7035C172.006 45.9504 171.876 46.2015 171.747 46.4496C171.671 46.5413 171.673 46.6286 171.713 46.4881C171.732 46.4094 171.763 46.2854 171.776 45.9272C171.781 45.7408 171.785 45.5049 171.749 45.0707C171.686 44.5835 171.727 44.1627 171.198 42.363C169.874 37.9568 166.673 35.0839 164.764 33.9418C162.747 32.7109 161.462 32.4045 160.515 32.1729C160.102 32.082 161.519 32.7867 160 32.4848C159.131 32.3323 158.134 32.2193 157.502 32.179C156.991 32.1506 156.023 32.2099 155.414 32.3022C154.776 32.3931 154.39 32.4782 154.152 32.524C153.684 32.6204 153.683 32.601 153.681 32.6531C153.686 32.6698 153.745 32.7778 153.952 32.8674C154.149 32.96 154.48 33.0528 154.326 33.2601C154.053 33.7594 154.06 33.522 153.936 33.2196C153.841 32.9081 153.729 32.5027 153.91 32.4227C153.974 32.4572 157.698 31.2462 158.354 30.2166C158.978 29.1993 155.65 31.4825 155.713 30.9093C156.858 29.9381 158.277 29.1269 159.719 28.3146C160.747 27.7358 161.794 27.1514 162.76 26.5028C162.8 26.4751 162.25 26.4118 162.75 26.0324C163.614 25.3749 164.123 25.6373 164.617 25.4127C165.138 25.177 166.817 23.9994 167.14 24.0042C167.182 24.0052 167.106 24.6442 167.062 24.6897C166.423 25.3484 165.815 24.9795 165.742 25.0169C165.472 25.1636 165.356 25.5316 165.118 25.6683C164.726 25.8934 164.386 25.8431 163.879 26.1467C163.521 26.3599 164.094 26.5092 163.748 26.7085C163.619 26.7816 161.774 26.7831 162.193 27.7198C162.291 28.0719 173.419 21.2957 174.381 20.3336C173.375 20.852 172.371 21.3675 171.367 21.8826C173.433 20.8789 175.274 18.6869 176.099 19.5808C180.824 16.532 185.551 13.4548 190.333 10.3626C193.281 8.45802 196.489 6.59505 200.348 4.98771C202.491 4.24916 201.494 5.35907 205.118 3.96025C204.068 4.0138 203.044 4.10162 202.036 4.21818C203.629 3.44698 213.343 1.88827 215.077 2.11977C215.27 2.11397 215.629 1.3507 218.06 1.47928C219.607 1.58419 220.079 1.94447 220.612 2.20909C221.643 2.44565 222.694 2.6981 224.383 3.39328C226.991 4.38033 230.4 7.08161 231.968 9.70964C233.615 12.331 233.954 14.1123 234.121 14.7717C234.317 15.8043 234.133 16.3631 234.163 18.1577C234.091 20.7119 234.144 20.6047 234.223 20.8477C234.274 20.9849 234.237 21.3464 233.452 22.6472C233.551 21.97 233.64 21.214 233.683 20.2658C233.387 22.642 232.758 24.0151 232.413 24.6315C232.055 25.188 231.914 25.2246 232.308 23.305C232.442 22.5754 232.596 23.274 232.722 22.7145C233.044 20.4874 234.221 16.8442 231.05 10.9043C229.442 8.09203 226.716 6.02328 224.751 5.13036C222.777 4.20629 221.412 3.97303 220.37 3.81275C218.921 3.67681 219.24 3.81219 220.337 4.02865C221.985 4.33902 225.279 4.92496 228.661 8.30013C232.048 11.7546 232.746 16.0627 232.797 18.1653C232.807 22.6036 232.042 24.0085 231.789 25.377C230.833 27.0006 228.87 31.7071 228.793 31.6457C228.588 31.769 228.578 30.9444 227.874 31.6773C227.835 31.7171 227.631 32.1523 227.419 32.6186C226.771 34.0119 226.366 35.2124 226.233 34.3038C226.204 34.1303 226.59 33.2866 227.021 32.4325C227.202 32.0702 227.388 31.7065 227.471 31.5202C227.171 31.7049 226.921 31.9948 226.737 32.3003C226.337 32.9735 226.181 33.7931 226.191 34.3289C226.195 34.8773 226.341 35.1646 226.309 35.2185C226.161 35.4641 226.019 35.1742 225.898 34.8818C225.836 34.7393 225.776 34.6058 225.681 34.6248C225.589 34.6395 225.451 34.8255 225.335 35.1519C225.041 36.0853 225.863 35.3392 226.067 35.7274C226.128 35.8271 225.946 36.0629 225.882 36.4503C225.816 36.8247 225.878 37.3205 226.341 37.2803C226.457 37.9494 225.957 37.5767 225.924 37.6598C225.884 37.7111 226.266 39.2894 226.15 39.9465C226.134 40.0222 225.631 39.8425 225.6 39.922C225.568 40.0181 225.66 40.6943 225.765 41.2776C225.781 41.3524 225.792 41.5829 225.806 41.6583C225.866 42.0967 225.925 42.4595 225.944 42.4921C225.977 42.5452 226.35 41.9906 226.471 42.1931C226.611 42.4415 226.701 44.4867 226.831 44.5669C227.028 44.7257 226.675 42.2229 227.183 42.5952C227.172 43.793 227.661 45.608 228.106 46.1008C227.983 45.9958 227.863 45.021 227.866 44.634C228.217 44.6863 228.447 45.2828 228.51 45.706C228.572 46.1322 228.467 46.4026 228.161 46.1472C228.497 46.4799 228.621 46.2147 228.92 46.3659C228.957 46.3836 228.995 46.5039 229.034 46.5807C229.074 46.6628 229.111 46.6787 229.169 46.6625C229.181 46.6615 229.251 46.6519 229.328 46.5889C229.405 46.5301 229.494 46.4432 229.568 46.4667C229.667 46.4801 229.764 46.7114 229.731 46.4305L229.568 45.7537C229.531 45.5481 229.517 45.5318 229.571 45.7134C229.621 45.8842 229.703 46.1675 229.704 46.229C229.72 46.5536 229.468 46.161 229.258 45.9229C229.041 45.6588 228.95 45.7831 228.818 45.8538C228.799 45.8644 228.61 45.7861 228.532 46.0375C228.448 46.2661 228.468 46.7749 228.447 46.793C228.213 46.9387 228.002 46.4688 227.902 46.277C227.796 46.065 227.802 46.1543 227.564 46.2097C227.456 46.213 227.439 46.4867 227.498 46.9497C227.189 46.5171 227.019 46.2349 227.019 46.4292L227.153 46.9863C227.144 47.1219 227.084 46.9455 227.03 46.724C226.974 46.4954 226.915 46.1985 226.851 45.9087C226.722 45.3235 226.573 44.7718 226.347 44.5184C226.561 45.8435 226.792 47.2946 226.543 47.1178L226.416 46.589C226.207 46.4873 226.057 47.0269 225.547 47.185C225.296 47.2729 225.03 47.154 224.848 47.1157C224.664 47.0703 224.555 47.0901 224.489 47.1086C224.258 47.1785 224.281 47.2313 224.436 47.4699C224.586 47.6939 224.856 48.0694 224.853 48.1007C224.842 48.1578 224.823 48.1901 224.797 48.1995C224.797 48.1995 224.797 48.1995 224.797 48.1995C224.694 48.2411 224.463 47.8982 224.277 47.6344C224.086 47.3572 223.978 47.2507 223.913 47.2522L224.012 47.6634C223.978 47.6686 223.939 47.6333 223.911 47.6332C223.795 47.6233 223.53 47.7471 223.257 47.8262L223.166 47.4501C222.885 47.5554 222.628 47.7418 222.527 47.7749C222.51 47.774 222.445 47.6995 222.37 47.6609L222.452 47.9997C222.329 47.9509 222.098 47.6129 221.905 47.8599C221.818 47.96 221.765 48.0867 221.724 48.1565L221.651 47.8516C221.545 48.0368 221.732 48.6034 221.72 48.6505C221.639 48.8235 221.266 48.1657 221.115 47.9935L221.182 48.2733C221.083 48.1452 220.976 47.8561 220.924 47.8504C220.88 47.8384 220.767 48.2212 220.649 48.3882L220.588 48.1332C220.523 48.2512 220.474 48.3821 220.434 48.4028C220.385 48.4269 220.271 48.3408 220.134 48.2534L220.191 48.4872C220.037 48.3925 219.828 48.1475 219.607 48.017C219.303 47.8392 219.195 48.5027 219.135 48.3975C219.087 48.4096 218.846 46.3892 218.793 46.2623C218.706 46.1139 218.433 46.6459 218.344 46.5814C218.216 46.4938 218.263 45.7854 218.152 45.8886C218.059 45.984 217.244 48.7273 216.968 48.7276C216.442 48.8242 217.251 45.821 215.591 48.7288C215.578 48.752 215.832 49.3581 215.827 49.3715C215.578 49.7907 214.827 48.3586 215.005 49.605C215.05 49.8103 215.127 50.0746 215.257 50.4148C215.116 50.1288 214.997 49.8716 214.897 49.6411C214.897 49.6386 214.895 49.6314 214.894 49.6289C213.785 46.1618 214.198 49.9168 213.302 49.3855C212.9 49.1125 212.532 47.1605 212.489 47.1655C212.088 47.3974 212.483 47.9849 212.306 48.2261C212.199 48.3535 211.564 46.6473 211.32 47.073C211.184 47.2763 211.466 49.1884 211.469 49.3115C211.334 50.2015 210.873 49.2067 210.711 49.4221C210.644 49.5111 210.686 50.0263 210.772 50.5175C210.777 50.5592 210.814 50.6799 210.821 50.7212C210.887 51.0227 210.95 51.2481 210.945 51.2652C210.936 51.2902 210.794 51.0963 210.607 50.7779C210.6 50.7345 210.561 50.6079 210.556 50.5642C210.228 49.9312 209.856 49.1591 209.706 48.9467C209.526 48.6869 209.45 49.7616 209.363 49.5809C208.805 48.394 209.541 46.1306 208.451 48.4375C208.382 48.5757 208.532 49.4687 208.525 49.5119C208.232 50.144 207.962 48.4288 207.636 48.2197C207.048 47.7848 207.617 50.0599 207.019 48.1867C206.896 49.2216 206.889 49.8909 207.191 51.2895C207.2 51.3652 207.267 51.5844 207.28 51.6595C207.443 52.2502 207.656 52.8341 207.865 53.3416C207.67 52.8694 207.437 52.2864 207.227 51.6736C207.214 51.598 207.147 51.3773 207.137 51.3011C206.441 48.7528 206.092 48.0957 205.728 47.9413C205.562 47.9064 205.431 48.1034 205.38 48.6074C205.346 49.1605 205.299 49.7792 205.668 51.6178C205.679 51.7079 205.759 51.969 205.774 52.0585C205.8 52.1553 205.827 52.2517 205.854 52.3476C205.827 52.2488 205.8 52.1524 205.774 52.0585C205.759 51.969 205.679 51.7079 205.668 51.6178C205.401 50.4009 205.2 50.145 204.971 49.9034C204.753 49.6895 204.558 49.619 204.518 49.3577C204.451 48.9554 204.989 46.6117 203.37 47.8321C203.162 47.9646 203.607 49.4376 203.112 49.0171C202.855 45.5469 202.811 48.9213 202.765 48.9811C202.153 48.9553 201.906 46.1469 201.813 43.8574L201.859 44.2762C201.692 42.3663 201.646 40.3364 201.561 39.62C201.298 37.7107 200.556 35.574 200.595 35.0275C200.716 33.2554 201.02 34.7602 201.198 34.3745C201.248 34.0698 201.43 28.5931 201.657 28.3821C202.103 27.4605 202.284 28.5774 202.338 28.4814C202.793 27.503 204.066 23.6843 204.833 22.0769C205.049 21.5936 205.226 21.2283 205.357 21.0108C205.201 20.9525 204.824 21.5409 204.514 21.928C204.267 22.2311 204.082 22.3522 204.14 21.7534C204.146 21.6926 204.155 21.6248 204.166 21.5497C204.447 19.5847 205.683 20.2295 205.767 20.1909C206.451 18.7792 207.027 17.4872 207.171 17.0323C207.204 16.9378 207.204 16.9115 207.161 17.0854C207.125 17.2732 207.013 17.612 206.99 18.6485C207.031 19.6204 206.914 21.8174 209.034 24.9608C211.235 28.1924 215.009 29.4672 216.467 29.6094C215.162 29.4245 214.729 29.4497 213.945 29.5589C213.193 29.6764 212.177 29.9736 210.958 30.5071C211.137 30.8306 211.857 30.5682 212.447 30.3382C213.042 30.1006 213.504 29.887 213.536 29.9296C213.71 30.1922 213.083 30.4327 212.006 30.8829C210.95 31.3098 209.466 32.0127 209.081 32.0806C209.646 31.9539 210.184 31.8577 210.698 31.7895C210.339 32.8806 208.01 32.9056 206.91 34.0722C206.572 34.4336 207.524 34.2107 207.52 34.2421C207.246 34.8016 206.374 35.0757 206.683 34.3432C206.588 34.4596 206.5 34.5593 206.419 34.6447C205.571 35.4724 205.418 35.1231 204.436 35.7374C204.378 35.7743 205.039 35.7462 204.251 36.4396C203.892 36.757 201.739 38.1903 201.616 38.6312C201.565 38.8168 203.398 39.1911 202.894 38.1547C205.542 37.0627 203.358 37.2213 204.275 36.6434C204.415 36.558 204.451 37.2978 206.565 35.5354C206.771 36.7769 203.66 37.8123 203.29 38.2254C202.52 39.0813 206.683 37.0265 206.881 35.8215C206.979 36.3755 207.078 36.2647 207.301 35.9753C207.425 35.7884 207.6 35.5171 207.881 35.3564C208.62 34.9363 208.44 35.3659 208.823 35.1314C209.837 34.5324 209.111 34.2251 210.201 34.2676C208.556 33.15 211.51 33.2908 212.144 33.5554C211.326 34.0139 210.376 34.6136 209.372 35.3176C209.48 35.3615 209.584 35.4076 209.692 35.4516C209.418 35.5979 209.123 35.7615 208.84 35.9219C208.838 35.8185 208.836 35.7152 208.834 35.612C208.402 36.1344 208.03 36.4313 207.716 36.6022C207.07 36.9704 206.69 36.9163 206.594 36.9751C204.49 38.2804 202.088 39.8862 199.986 41.281C199.667 41.4926 200.208 41.8279 197.651 42.9826C196.837 43.3505 197.283 42.5142 196.484 43.1255C196.118 44.8354 195.596 44.0118 195.286 44.2158C194.393 44.8079 194.016 45.4208 193.935 45.4786C192.858 46.2486 191.211 47.2768 190.017 48.1172C189.997 48.1361 190.837 48.0322 189.985 48.4605C189.683 48.6122 186.317 48.9102 184.4 50.7842C185.033 50.5006 185.659 50.2203 186.292 49.9356C185.549 50.2466 181.03 53.6632 182.42 53.2717C183.275 53.0313 184.448 51.0345 185.175 51.7466C184.1 52.2273 180.47 54.7163 177.512 56.6312C175.689 57.814 174.108 58.7777 173.77 58.8765C173.652 58.9095 174.126 58.2479 173.961 58.2992C173.854 58.3337 171.594 59.7579 171.168 59.8467C170.943 59.8909 171.922 59.1029 171.767 59.0567C171.711 59.0134 168.44 60.6697 168.227 61.1933C169.209 60.5354 171.437 59.4404 170.438 60.3881C170.324 60.5016 169.359 60.7273 169.178 60.8803C168.288 61.6173 169.403 61.1643 170.575 60.5519C171.774 59.9282 173.037 59.1447 173.385 58.9394C172.445 59.7188 171.194 60.5026 169.505 61.3812C167.511 62.0954 166.632 63.8649 158.201 64.6186C156.586 64.6253 154.781 64.6313 151.83 63.81C150.348 63.3601 148.493 62.7128 146.147 61.0364C143.851 59.4323 140.902 56.1474 139.671 52.0196C139.507 51.5023 139.382 51.0391 139.287 50.6508C139.123 49.7385 139.115 49.3576 139.115 49.1448C139.12 48.9408 139.156 48.953 139.212 49.1117C139.337 49.4434 139.479 50.2641 140.029 51.9101C141.691 57.2307 145.649 60.1409 146.646 60.752C147.229 61.1198 147.366 61.1659 146.829 60.759C146.314 60.2842 144.964 59.6051 142.734 56.5342C141.73 55.0869 140.934 53.404 140.457 51.779C139.815 49.3165 139.883 48.5868 139.799 47.8089C139.752 47.1022 139.739 46.6951 139.715 46.4172C139.674 45.8906 139.597 45.9231 139.506 46.1963C139.303 46.6863 139.213 48.5406 139.191 48.4127C138.312 44.9412 141.087 39.8673 139.784 39.6157C140.548 37.3545 140.462 38.1147 141.344 35.0547C141.107 35.4096 140.876 35.7705 140.65 36.1427C140.782 34.8397 141.507 33.2146 142.451 31.8252C143.407 30.8034 144.649 30.1695 144.686 30.3293C144.836 31.0011 143.574 32.1682 143.483 32.3406C143.481 32.3451 143.479 32.3491 143.478 32.3528C143.334 32.8697 143.82 34.2164 141.214 38.9598C141.419 40.1482 142.034 38.0803 142.719 36.5302C143.401 34.9669 144.006 33.7914 143.473 35.9886C143.694 35.3292 144.145 34.2398 144.803 32.9993C146.015 30.9045 147.376 28.2916 147.187 27.7487C147.155 27.6641 146.176 27.6825 146.93 26.8495C147.286 26.4479 146.959 27.5778 147.225 27.4303C147.704 27.1361 148.586 24.385 148.419 21.8799C148.418 21.783 148.401 21.8352 148.456 22.3852C148.557 22.9353 148.521 24.0746 149.757 26.5634C150.871 29.1038 154.593 32.062 156.825 32.6274C159.116 33.3675 160.193 33.2652 160.887 33.2821C162.202 33.2313 162.299 33.1388 162.396 33.1399C162.451 33.133 162.324 33.1699 162.161 33.2247C160.727 33.6871 159.199 34.2767 158.574 34.5131C158.419 34.5707 158.375 34.2765 158.223 34.335C157.752 34.5118 156.19 35.5719 155.324 35.7854C157.231 35.5962 153.93 36.9717 153.158 37.277C151.948 37.7273 151.819 37.2318 151.289 37.3656C151.026 37.4328 150.764 37.5345 150.515 37.6548C148.33 38.7201 146.147 40.8409 144.38 40.7666C145.026 41.6824 141.602 41.8323 140.652 42.5568C139.87 43.1181 139.37 44.511 140.579 44.1156C140.204 44.3918 139.853 44.6953 139.501 45.0328C138.248 46.198 136.979 47.4346 135.727 48.5234C135.428 48.7834 135.638 48.1807 135.136 48.6295C135.092 48.6718 135.233 48.9804 134.8 49.3725C131.154 52.6092 132.572 50.5885 131.732 50.9846C131.252 51.203 130.912 51.3833 130.675 51.5344C132.971 49.7778 135.351 47.6448 135.988 47.0972C135.011 47.0082 131.279 51.0801 129.761 51.8807C129.711 51.9084 129.64 51.4686 129.591 51.5003C129.59 51.501 129.589 51.5017 129.588 51.5025C129.098 51.8503 125.858 54.2057 126.796 54.1419C127.053 54.1256 128.622 53.0993 130.335 51.7943C129.916 52.209 130.53 52.3147 130.458 52.3905C129.581 53.3161 126.73 54.7193 125.728 55.2598C125.501 55.3864 125.668 55.6191 125.632 55.6423C124.712 56.1331 124.66 55.2104 124.172 56.4819C122.044 56.5764 127.104 54.5234 126.396 54.148C126.1 54.0251 115.804 59.8243 115.511 60.4599C115.512 60.4709 115.515 60.4813 115.519 60.4913C115.458 60.4235 115.299 60.372 115.011 60.3569C114.378 60.3167 111.962 61.3921 111.575 61.7116C111.514 61.7681 111.838 62.476 111.749 62.5201C111.541 62.6234 108.202 63.3422 106.971 64.305C107.739 64.1248 108.459 63.9537 109.162 63.7873C107.172 64.5976 106.12 65.0452 105.939 65.2057C105.745 65.37 106.408 65.2535 107.189 65.0762C107.264 65.0492 107.349 65.048 107.418 65.0246C108.618 64.7434 109.982 64.3638 110.021 64.4149C110.094 64.5087 108.54 65.2545 106.727 65.9088C105.823 66.2347 104.81 66.5433 103.989 66.707C103.158 66.8731 102.695 66.8602 103.317 66.4985C103.522 66.3952 104.925 66.0088 105.675 65.7346C106.456 65.455 106.888 65.2388 105.863 65.3449C105.679 65.3632 104.983 65.6366 104.112 65.9363C103.285 66.2314 102.002 66.5819 101.811 66.5888C101.287 66.606 101.725 66.4173 102.415 66.1277C103.093 65.8408 103.854 65.4851 104.483 65.1449C105.744 64.4624 106.647 63.8218 106.265 63.6839C105.751 64.1522 105.058 64.4772 104.155 64.7926C103.173 65.1032 102.39 65.431 99.8557 65.8862C97.606 66.4508 92.8285 65.9727 91.2261 64.9696C89.2532 64.0157 87.1513 62.3025 85.7393 60.1459C84.328 57.999 83.8104 56.0816 83.5602 54.5469C83.0412 49.3088 84.0895 48.4265 84.3233 47.3763C84.6727 46.501 84.8369 46.2374 84.9933 45.9514C85.2894 45.4428 85.3663 45.406 85.4193 45.3868C85.471 45.374 85.4882 45.4199 85.5688 45.3351C85.6471 45.2558 85.7987 45.0235 86.0537 44.6269C87.2885 42.7678 87.8166 40.9999 88.4856 42.0228C89.3107 40.7148 89.4946 40.1875 89.5894 39.8643C89.6638 39.5623 89.5587 39.5691 89.3347 39.7787C89.1096 39.9888 88.7712 40.3868 88.2869 40.9574C88.0388 41.2508 87.7658 41.5712 87.3417 42.0812C87.1291 42.3396 86.8766 42.6386 86.4497 43.1988C86.2264 43.4981 85.9636 43.8375 85.5078 44.5559C85.2682 44.945 85.0023 45.366 84.5855 46.2425C84.4865 46.4538 84.3841 46.6851 84.2795 46.9419C84.1529 47.2524 84.0148 47.6221 83.8832 48.0369C83.6332 48.884 83.3227 49.8289 83.2207 51.8213C83.6063 47.1867 84.4953 46.5274 84.8987 45.4623C85.3237 44.6334 85.6351 44.151 85.8598 43.7941C86.3243 43.0745 86.5855 42.7197 86.8166 42.3993C87.2626 41.789 87.5508 41.4321 87.8221 41.0992C88.3495 40.4562 88.7556 39.9936 88.9553 39.652C89.0923 39.4131 88.6822 39.2934 88.8843 38.8896C89.2679 38.2101 90.9982 36.0044 91.6946 34.6185C92.0211 33.9287 92.2766 33.4236 92.4465 33.0842C92.0646 34.3182 92.6167 34.1378 92.9791 33.2327C93.329 32.3644 92.4792 32.8481 92.4957 32.6559C92.5456 32.3673 94.4486 28.8297 94.597 28.2952C93.626 30.9845 94.2961 30.5585 95.3125 28.3862C95.2906 28.7461 95.2629 29.1166 95.2348 29.4863C95.6752 28.0929 97.357 25.8252 97.4012 25.1314C97.4114 25.0184 96.9279 25.2502 96.9338 25.1861C97.0422 24.5234 97.989 22.9387 97.862 22.8816C97.7859 22.784 97.2778 23.3519 97.2159 23.0566C97.2019 23.0014 97.893 22.4745 97.8712 22.0464C97.8618 21.897 97.5048 21.9005 97.4934 21.8628C97.4407 21.7222 97.5414 21.7432 97.6592 21.7325C97.7737 21.7451 97.9108 21.643 97.8455 21.783C97.8011 21.928 97.5892 22.1986 97.5339 23.0624C97.5907 23.8846 97.2582 25.6517 100.007 29.0851C97.7217 26.3326 97.5688 24.7195 97.2953 23.923C97.0923 23.1177 97.0498 22.798 96.9998 22.6239C96.9162 22.3034 96.8705 22.3905 96.8793 22.9009C96.9462 23.4387 96.819 24.5774 98.1122 27.2412C99.2929 30.0037 103.354 32.9738 105.441 33.4496C106.146 33.6701 106.114 33.8833 107.101 34.1745C107.488 34.2823 107.624 34.3288 107.735 34.3463C107.837 34.362 107.872 34.3395 107.854 34.2706C107.874 34.134 107.842 34.0234 107.722 33.9217C107.62 33.8228 107.333 33.717 107.18 33.6374C107.101 33.595 107.109 33.5707 107.192 33.5617C107.456 33.5459 107.75 33.5477 107.813 33.5426C107.896 33.5399 107.876 33.5477 107.832 33.5662C107.734 33.6016 107.569 33.6807 107.513 33.6855C107.503 33.6832 107.439 33.273 107.343 33.2831C107.336 33.2848 107.391 33.5583 107.326 33.5936C107.048 33.7648 107.136 33.7255 107.081 33.6466C107.047 33.5653 107.026 33.4146 106.949 33.2964C106.915 33.2461 106.902 33.3285 106.946 33.4023C106.987 33.4782 107.082 33.5388 107.103 33.5297C107.111 33.5245 106.94 33.2906 106.969 33.2821C106.973 33.281 106.978 33.2807 106.983 33.2813C105.716 34.3553 104.904 35.2148 104.184 35.7151C104.098 35.7677 103.825 35.4229 102.494 36.4097C102.132 36.6768 101.768 37.0793 102.395 36.8615C103.63 36.4141 105.211 35.287 107.227 33.5868C107.121 33.5989 107.071 33.6027 107.134 33.7686C107.221 34.0351 107.339 34.1079 107.549 33.9891C106.627 34.7416 106.007 35.1702 105.895 35.2527C105.765 35.3497 106.989 34.1908 105.59 35.1357C104.412 35.9263 102.915 37.7878 101.337 38.4664C101.206 38.529 99.7136 38.5775 99.7532 38.5091C99.776 38.4726 101.524 37.3347 101.162 37.311C101.12 37.3125 99.9771 37.953 99.76 37.9023C99.4982 37.8441 98.1956 36.5793 97.9522 36.6572C97.3043 36.8739 97.8715 37.0235 97.4737 37.1978C96.6085 37.5947 93.5546 38.4752 93.7099 39.0517C94.1994 38.867 94.6812 38.6816 95.1682 38.4892C92.5718 39.772 93.799 39.4713 93.4729 39.7479C93.1212 40.0389 93.0187 39.5106 92.1196 39.8519C91.9252 39.9432 88.3015 41.5663 88.4481 41.731C90.3451 40.5878 89.8408 41.4877 89.9387 41.4626C90.3069 41.357 90.6309 40.8266 91.1049 40.633C94.5018 39.2233 91.3269 41.2315 92.1829 41.0209C92.473 40.9501 92.9058 40.4189 93.0246 40.3832C93.4218 40.263 93.6013 40.6294 93.8412 40.485C94.4001 40.1475 93.4729 39.9339 93.5074 39.885C93.8774 39.3287 96.1543 38.751 95.1187 39.9334C96.0031 39.7679 95.7633 39.0346 96.514 39.0089C98.0267 38.9377 96.0897 39.7218 95.6363 40.041C93.9841 41.2118 93.3368 41.1919 90.8495 42.3483C89.9631 42.7568 89.0145 43.5346 88.6076 43.7158C88.3336 43.8444 85.4013 43.5772 86.0216 45.4957C84.9744 45.6758 83.0116 44.961 82.037 45.358C81.1653 45.7145 81.6745 46.2949 81.6006 46.3495C81.5691 46.3727 81.463 46.4132 81.3179 46.4644C80.9923 46.5797 80.4519 46.7541 80.2587 46.8985C79.9438 47.1338 80.2215 47.3256 79.6851 47.6309C78.3897 48.3811 78.1817 47.6872 78.0202 47.694C76.1959 47.7808 77.2659 48.495 76.9333 48.7072C76.6194 48.8799 71.8237 50.3759 71.0156 51.0574C71.3319 50.7573 71.6789 50.4467 72 50.1501C71.1245 50.0296 70.6963 51.0338 70.3444 50.2974C70.7292 51.5655 68.9751 51.3982 68.5438 51.6432C68.3819 51.7354 68.4945 51.9303 68.2885 52.0392C67.4902 52.458 65.5007 53.2505 64.9901 53.6338C63.9074 54.4459 65.0524 54.2422 66.2873 53.9279C67.5323 53.6071 68.9213 53.1805 69.1235 53.1138C68.7343 53.288 67.4984 53.9635 66.5454 54.6103C65.5899 55.2567 64.9237 55.8477 66.2736 55.5284C66.6851 55.4319 67.0061 54.613 67.1744 54.504C68.3326 53.7631 67.605 54.7111 67.7212 54.7098C67.9237 54.6995 68.4843 53.8577 68.7078 53.8186C68.7823 53.8054 68.5605 54.4387 69.6723 53.9216C69.3527 54.5689 65.9999 55.8183 65.3262 56.2741C65.2341 56.3412 65.6134 56.4412 65.5012 56.644C65.4373 56.749 65.2901 56.8617 64.805 57.0494C64.2812 57.2391 63.7336 57.4397 61.4829 58.052C61.625 58.0974 61.7679 58.1415 61.8938 58.1915C60.7625 58.6008 59.3894 59.238 56.1514 59.6535C53.2234 60.2312 46.1646 59.1612 42.3123 55.9804C38.4423 52.9004 38.0956 51.5244 37.5192 50.8203C37.0843 50.1306 37.0361 50.0511 37.2851 50.456C37.5829 50.8711 38.063 51.8445 40.0299 53.6887C41.7626 55.46 46.8626 58.3853 51.8923 58.1617C53.2014 58.1343 53.3987 58.0544 53.4261 58.0692C53.4301 57.9613 53.2865 57.8233 53.119 57.7204C53.0458 57.6677 53.0274 57.6182 53.1115 57.5776C53.1848 57.5389 53.3683 57.5018 53.3308 57.5302C53.2465 57.5711 53.148 57.7227 53.2154 57.8387C53.2671 57.9576 53.3537 58.0654 53.3363 58.0755C53.2796 58.1017 53.2102 58.1291 52.5098 58.2629C52.1165 58.3289 51.6869 58.4366 50.2605 58.5773C49.4214 58.6092 48.7077 58.8367 45.6154 58.4574C44.0681 58.0668 41.4862 58.2772 36.3461 54.2746C33.8384 52.2477 31.289 48.4175 30.4701 44.8181C29.627 41.3453 29.9108 38.7894 30.2491 36.9217C30.7684 34.3481 31.449 33.009 31.9486 31.9936C32.2055 31.494 32.4369 31.0952 32.6456 30.7542C32.7635 30.5626 32.8162 30.4811 32.8758 30.3882C32.9348 30.2968 32.9918 30.2099 33.0472 30.1271C33.4895 29.4675 33.825 29.0378 34.1097 28.6819C34.5452 28.1425 34.8551 27.8 35.0916 27.5394C35.5379 27.0517 35.8374 26.7471 36.1268 26.4519C36.6573 25.9138 37.1011 25.4772 37.5159 25.0643C38.3535 24.2326 39.0973 23.4796 39.759 22.7736C41.0868 21.3635 41.9296 20.2831 42.1951 19.888C42.3219 19.7037 42.4748 19.3196 42.5551 19.0195C42.6402 18.714 42.6559 18.4966 42.6671 18.4714C42.7391 18.3192 42.9354 18.0549 42.9759 18.0777C43.026 18.0718 42.9439 18.4595 42.8798 18.6342C42.7957 18.8452 42.4602 18.5365 42.4296 18.7669C42.4019 18.9991 42.8228 18.8353 42.8252 18.9059C42.8994 19.0998 42.3263 20.4101 42.9996 23.2597C43.551 25.384 45.1807 28.9002 47.9582 31.4653C50.7143 34.0619 53.4936 35.1322 55.1599 35.6365C58.5528 36.5513 59.4092 36.3167 60.1264 36.3753C60.772 36.3732 60.9933 36.3518 61.1279 36.3464C61.2535 36.3395 61.2608 36.3406 61.2293 36.3468C61.0592 36.3752 60.4238 36.4573 59.8832 36.5163C58.9582 36.6208 58.2678 36.6872 57.918 36.6274C58.2 36.6304 58.9476 36.4187 59.8468 36.1664C60.488 36.0272 61.24 35.857 61.1822 35.7802C61.1502 35.7615 61.0513 35.7515 60.7611 35.7453C60.4556 35.7338 60.0137 35.7512 58.9011 35.6554C57.7907 35.4775 55.8654 35.5638 51.9446 33.4972C47.8007 31.5132 44.1794 25.6531 43.7476 23.0492C43.7098 22.5983 43.742 22.3444 43.7997 22.3585C43.8177 22.3666 43.9319 22.6295 44.0802 22.9556C44.5434 24.6014 45.58 27.1154 47.5823 29.4029C49.56 31.7097 52.1028 33.2109 53.8279 33.9036C57.3584 35.2478 58.5439 35.031 59.3683 35.1288C60.1486 35.1536 60.4421 35.129 60.6545 35.1273C60.8503 35.123 60.9302 35.128 60.9805 35.1451C61.4519 34.8745 60.6879 35.3554 59.7946 35.6648C59.5411 35.7899 59.3148 35.8737 59.1209 35.8333C59.0577 35.8198 59.2275 35.2244 58.2027 35.2542C57.8491 35.2658 57.0627 35.8241 56.2879 35.4814C55.6928 35.7301 54.7261 35.7902 53.0549 36.4084C51.3295 37.0469 48.5815 38.3094 48.4177 38.706C48.4142 38.7434 49.8215 38.3308 49.0309 38.9648C47.968 39.81 48.5962 38.305 47.1313 38.8582C47.0503 38.8883 46.4453 39.1731 45.6901 39.5261C44.5735 40.052 43.1755 40.7325 43.1181 40.8052C42.2841 41.8549 45.5203 40.7085 45.5105 40.7938C45.4701 41.0099 42.9065 42.2573 42.7952 42.2612C42.6747 42.2654 44.4436 40.5776 42.0463 41.9818C42.3756 41.9439 42.7033 41.9069 43.0323 41.8698C41.925 42.5703 41.5831 42.097 41.286 42.1909C40.3522 42.4871 39.7738 43.6998 37.9651 43.3512C37.4867 43.2583 37.9486 42.6955 37.886 42.6775C37.2913 42.529 37.1789 43.7135 36.2163 43.3216C36.15 43.2921 37.4121 42.1777 34.855 43.3999C35.06 43.3822 35.2672 43.3639 35.4763 43.3452C35.1559 43.6709 32.7495 44.9775 32.4498 45.1037C31.5115 45.4725 32.0203 44.602 31.1859 45.1253C31.6375 45.291 31.2021 45.757 30.7119 46.0801C30.2144 46.4054 29.6787 46.5839 29.5746 46.2826C29.6372 46.7021 29.166 47.0527 28.8331 47.2278C28.4821 47.408 28.4043 47.3345 28.7939 46.9047C28.9968 46.6451 29.6641 46.1593 30.5864 44.4241C31.5527 42.7776 32.0087 39.5623 31.8983 38.7623C31.8005 37.2721 31.4785 37.23 31.0038 35.9449C30.5191 33.9074 29.0748 30.5506 26.1879 28.0674C23.3334 25.5627 20.1737 24.7034 18.2921 24.4576C17.4913 24.3278 15.7966 24.2411 14.6594 24.3747C13.473 24.4943 12.6995 24.6939 12.1914 24.8321C11.1903 25.1233 11.0659 25.209 11.1209 25.2074C11.4814 25.056 11.878 24.9356 12.2981 24.9001C12.5599 24.8774 13.4454 25.412 13.1661 25.831C12.9018 26.2165 12.3073 26.4157 11.8288 26.5848C11.6686 26.5946 11.9556 26.4323 12.0516 26.6678C12.1134 26.884 11.9034 27.0738 12.0553 27.0256C12.6666 26.7534 13.3815 26.2342 13.6816 26.111C15.9654 25.144 15.0753 26.38 15.2251 26.5118C15.6109 26.8074 16.7309 26.0517 16.7901 26.0504C17.0847 26.0655 16.5002 26.8936 16.6283 27.1314C16.8116 27.4441 18.2783 27.2097 18.0976 27.479C17.8438 27.8766 16.4786 28.1279 16.4248 28.1855C15.6951 29.0408 17.3799 28.9706 17.9466 29.071C18.1197 29.1059 17.8149 29.549 17.9208 29.523C19.5517 29.1 17.5677 28.3817 18.464 27.8988C19.2489 27.4584 18.6279 28.5713 18.6673 28.5757C18.7259 28.5803 19.622 27.9643 19.8646 28.0109C20.0458 28.0335 18.2387 30.575 18.5463 30.9024C19.3248 30.2811 20.0519 29.6459 20.7261 28.9926C21.1655 29.4362 19.7943 29.8939 19.7087 30.0211C19.5444 30.292 20.3841 30.079 20.4695 30.2537C20.5323 30.363 19.9864 31.2881 20.8138 30.9233C21.097 30.7942 21.3546 30.0883 22.4585 29.7474C19.7862 32.5288 22.075 31.199 22.3224 31.291C22.5512 31.39 21.3245 32.9669 23.1261 31.4727C23.9476 32.3418 23.3265 31.8018 22.916 32.3784C22.3962 33.0735 24.2198 32.2743 21.5193 33.8086C21.9893 34.1917 24.0022 32.6696 24.1143 32.607C24.2305 32.5668 23.9609 33.13 24.1747 33.0799C26.7067 32.4075 25.1274 33.0613 26.1108 33.1372C26.2061 33.1591 28.0983 31.7469 26.8534 33.038C24.4939 35.356 22.8499 35.3655 23.3347 37.1034C25.8643 36.35 27.5187 33.4677 28.0022 32.9328C28.8086 32.1003 28.1958 33.1919 28.3636 33.1606C28.4262 33.1503 29.1163 32.4072 29.1426 32.412C30.6341 32.8365 25.8727 35.6055 24.6378 36.5919C25.1103 36.4932 25.5809 36.3868 26.0521 36.27C25.5782 36.6419 25.0857 37.0091 24.5985 37.3564C27.165 35.988 24.7931 37.4252 24.7555 38.6928C24.7465 38.9834 26.1408 37.5517 24.6561 39.3411C26.107 38.5462 25.807 39.0153 26.8495 37.886C27.0903 38.2639 24.5498 40.6211 23.4847 41.4631C27.7827 39.2864 24.6386 39.5787 28.4576 37.7161C28.734 36.83 27.2438 38.1478 27.3127 37.9748C27.5729 37.3886 28.9923 36.9096 29.4636 34.9846C29.5306 34.6731 28.3595 35.0495 29.5577 33.9247C29.6847 33.8122 30.762 33.3516 30.774 33.381C30.954 33.7345 30.1012 34.423 30.1791 34.553C30.2519 34.6925 31.0318 33.758 31.0584 33.7781C31.4246 34.0622 30.4859 34.6368 30.6937 34.6238C31.1225 34.6452 35.0152 31.9056 30.6757 36.0537C33.7175 32.1512 30.8018 35.3612 29.5457 36.6721C29.2277 37.0156 29.3151 37.3034 28.8572 37.8037C28.2681 38.4477 27.3939 38.9386 27.0691 39.2346C26.7109 39.5502 29.2933 38.5267 25.9954 40.6037C28.0183 40.0554 30.4071 37.2982 32.1813 36.0717C35.8789 33.4749 30.839 39.096 30.2477 39.447C30.1082 39.5932 30.8604 39.45 30.7721 39.552C30.6356 39.773 27.3348 42.026 27.171 42.4488C27.0223 42.9212 28.353 41.6257 28.6408 41.799C28.8567 41.9667 25.0371 44.9076 27.2993 43.6155C28.8899 42.7387 31.0419 39.9646 32.0865 40.2442C29.9837 42.148 27.8119 43.7315 25.5944 45.1443C27.0126 44.7085 28.4309 44.2108 29.8785 43.6058C27.4451 45.4742 25.0709 46.4184 22.8712 48.0714C22.8068 48.1152 22.7424 48.1591 22.6778 48.2031C22.7526 48.1764 22.826 48.1499 22.8981 48.1236C26.7968 46.8182 25.1412 47.9166 23.3183 48.9413C22.5868 49.3352 21.7261 49.7616 20.602 50.1652C20.0413 50.3656 19.3896 50.5588 18.7467 50.6975C18.1129 50.8381 17.4884 50.9107 17.429 50.9287C17.3752 50.9499 18.1168 50.9286 18.8425 50.8394C19.5853 50.7523 20.3222 50.6185 20.9435 50.4943C22.1904 50.242 23.1291 50.0167 23.7926 49.8642C24.0907 49.8217 24.3241 49.7876 24.4315 49.7747C24.2864 49.8801 24.116 49.9969 23.9253 50.1223C23.3598 50.4621 22.7084 50.8585 21.4399 51.3892C20.755 51.6515 20.0547 51.9756 18.2812 52.2937C17.3317 52.4084 16.2162 52.6984 13.4905 52.2187C12.1397 51.9352 10.132 51.3782 7.89419 49.6099C5.62593 47.8844 3.86197 44.7834 3.38527 42.494C1.89724 36.3559 4.23131 32.252 4.54038 31.137C4.7682 30.5157 4.76197 30.313 4.39476 30.6773C4.05124 31.0888 3.20382 31.9348 2.22546 34.7977C3.33847 30.9405 5.99719 26.9474 5.83101 27.0883C5.52126 27.151 3.67983 28.8243 2.11221 32.6701C0.376913 36.5184 1.09459 42.105 0.682751 40.0748C-0.269143 35.3664 2.69379 30.2934 4.48989 27.9883C6.8816 24.7617 7.94797 23.8664 8.73427 22.8004C9.50037 21.8256 9.9047 21.1201 10.3289 20.4327C11.1326 19.1064 12.0941 17.7903 14.9948 16.4077C14.8382 16.3883 14.6814 16.3695 14.5244 16.3511C20.663 13.1349 25.8814 11.086 31.0689 8.94941C31.3125 8.71589 31.6297 8.45757 32.0024 8.18338C33.8229 6.77137 37.4749 4.56119 41.1101 3.24303C41.8391 2.92446 46.2011 1.98624 46.5281 2.02713C47.1456 1.99267 43.9509 2.9559 45.4723 2.79193C45.8815 2.60647 52.6444 1.40888 52.0088 1.13898C51.3178 1.18227 49.0176 1.8483 48.5965 1.84688C47.0898 1.79549 51.9366 0.632905 56.1097 0.2801C56.4667 0.246131 56.7632 0.211909 57.5502 0.133207C58.0087 0.100311 58.395 0.0137393 60.135 -0.000105342C61.1153 0.0650764 62.273 -0.157444 65.9065 0.900354C67.6911 1.46972 70.5479 2.69167 73.2035 5.30689C75.8851 7.89429 77.4272 11.2874 77.9897 13.4153C80.1435 21.7578 78.0328 26.887 78.1564 27.4498C78.4836 26.7416 78.7983 25.9622 79.0809 25.1441C78.6039 27.5547 77.9061 29.563 77.148 31.3339ZM35.351 45.1266C35.1131 45.7381 33.9288 45.9532 33.4122 46.3649C32.663 46.9462 32.3477 49.0984 32.011 47.3113C32.9778 46.617 34.1328 45.8721 35.351 45.1266ZM55.0833 37.0731C54.5662 36.9896 54.6153 35.9543 55.1165 36.2247C55.1768 36.256 55.7552 37.2078 55.0833 37.0731ZM46.1078 40.4797C46.1589 40.4443 47.1248 40.0464 47.1689 40.0426C47.8557 40.0229 46.749 40.5694 46.2021 40.6984C45.9719 40.7469 45.8615 40.706 46.1069 40.4804C46.1072 40.4802 46.1075 40.4799 46.1078 40.4797ZM49.5718 58.5038C45.9514 57.6127 44.1518 56.3368 43.4168 55.9847C42.6689 55.5682 42.7708 55.7765 43.4984 56.3662C44.6653 57.5932 50.4314 60.0238 54.0065 59.5701C54.5416 59.6073 50.6107 58.8765 49.5718 58.5038ZM39.4821 52.1522C38.4988 50.7334 38.1971 50.0095 38.0666 49.7619C37.9628 49.5241 38.0541 49.7571 38.6044 50.5833C39.1681 51.375 40.2582 53.0005 42.8742 54.7631C45.4446 56.574 49.4972 57.5626 51.8836 57.5243C52.1906 57.6089 52.3322 57.6893 52.3498 57.7643C52.3624 57.838 52.2717 57.9079 51.8893 57.9458C49.4284 58.1464 44.3368 56.9839 41.3687 54.5404C40.7514 54.1041 39.2916 52.7468 38.5734 51.7336C37.8022 50.6949 37.5378 50.0557 37.565 49.963C37.591 49.8513 37.92 50.2739 38.4167 50.9028C38.8981 51.5204 39.576 52.2853 39.4821 52.1522ZM52.9885 37.4656C52.9642 37.1473 53.7184 36.9891 53.9723 36.9711C54.0776 37.2221 53.3134 37.2865 52.9885 37.4656ZM42.4292 20.2105C42.5144 20.2939 42.9006 19.8735 43.1478 19.4775C43.4048 19.071 43.4947 18.742 43.3738 18.6394C43.3925 18.742 43.1969 19.0218 42.9272 19.3839C42.6653 19.7381 42.3518 20.1371 42.4292 20.2105ZM37.5437 26.0746C37.667 26.0097 38.5046 25.0818 38.3243 24.9663C37.7451 25.1635 37.0855 26.2709 37.5437 26.0746ZM70.7132 53.4044C70.7451 53.335 69.4068 52.4775 71.6516 52.4271C71.981 52.4202 71.1289 53.1793 71.2485 53.1789C71.4906 53.1715 71.6788 53.1349 71.8099 53.0851C70.9678 53.5786 70.1077 54.0389 69.9744 54.0127C69.4008 53.8614 70.6918 53.4359 70.7132 53.4044ZM78.8336 49.0373C78.9517 48.7628 80.2431 48.4277 80.5579 48.4148C80.6123 48.4138 80.5852 49.0241 81.1314 48.7912C81.5756 48.6023 80.7005 48.2849 81.6293 48.0679C81.7178 48.0472 81.7889 48.0355 81.8447 48.0313C82.1312 47.9975 82.0725 48.1236 81.9263 48.2741C81.7819 48.4493 81.5308 48.6536 81.5755 48.6542C81.6145 48.6545 81.7824 48.5766 81.9967 48.4834C82.5348 48.2596 83.2706 47.9605 83.3127 48.1863C83.334 48.3334 82.7125 48.5516 82.0861 48.7493C81.718 48.8639 81.3646 48.9671 81.2198 49.0403C80.7783 49.265 81.4752 49.4657 80.6758 49.6482C80.1616 49.7687 80.1932 48.9792 80.0762 48.9809C79.9721 48.9827 78.4236 49.99 78.8371 49.0385C78.8359 49.0381 78.8347 49.0377 78.8336 49.0373ZM72.0299 52.9522C71.9745 53.0038 71.9035 53.0496 71.8099 53.0851C71.8834 53.0415 71.9566 52.9964 72.0299 52.9522ZM37.7844 43.6139C38.3549 43.5987 37.0683 44.5163 36.4264 44.4953C36.309 44.2842 37.6872 43.6183 37.7844 43.6139ZM72.6106 52.0462C74.01 51.6512 73.1246 52.2941 72.0299 52.9522C72.337 52.6659 72.1531 52.1769 72.6106 52.0462ZM60.9805 35.1451C60.8957 35.2063 60.7915 35.2975 60.7862 35.4384C60.99 35.3502 61.0137 35.2876 61.0319 35.241C61.044 35.1946 61.0312 35.1638 60.9805 35.1451ZM43.5574 19.8913C43.8171 19.4111 43.8885 19.6642 43.8746 20.061C43.855 20.4612 43.8172 21.1711 43.6686 21.1815C43.6104 21.1823 43.5515 20.8243 43.5386 20.5065C43.5233 20.183 43.5475 19.9108 43.5574 19.8913ZM60.4598 57.9692C60.2788 58.0147 61.5152 57.2269 61.6228 56.9505C61.7054 56.8055 61.6577 56.7521 61.1364 56.9652C60.8413 57.0811 60.5128 57.2402 59.7332 57.5406C58.9753 57.8047 57.9435 58.2931 55.3122 58.6419C63.9132 57.2849 55.5396 59.1502 54.8516 59.0758C54.9913 59.1534 56.4441 59.1218 57.8666 58.8466C59.3011 58.5809 60.5511 58.1665 61.4543 57.8172C63.2519 57.108 64.0842 56.6156 64.4611 56.5226C64.5823 56.14 64.1496 56.3406 63.3795 56.7375C62.6613 57.1203 61.2043 57.8084 60.4697 57.9659C60.4664 57.967 60.4631 57.9681 60.4598 57.9692ZM98.3802 41.6164C98.1564 42.1098 96.9584 42.5692 96.1731 42.9094C96.3889 42.4351 97.5853 41.9907 98.3802 41.6164ZM189.276 49.0582C185.287 52.0557 183.978 51.2504 188.095 49.207C188.178 49.167 189.45 48.775 189.276 49.0582ZM144.22 28.1145C144.893 28.0553 144.627 29.0119 144.098 29.5815C143.981 29.7093 143.173 30.0107 143.346 29.333C144.009 29.6515 144.69 28.785 144.22 28.1145ZM73.2129 51.3685C73.4315 50.8367 74.7532 50.6036 75.4253 50.4051C75.1499 50.8689 73.8039 51.2537 73.2129 51.3685ZM174.836 57.4821C174.324 57.7422 174.271 58.3883 174.377 58.3758C174.86 58.3189 175.542 57.4004 174.836 57.4821ZM69.3726 53.0116C69.2232 52.8121 70.6789 51.8848 71.0322 52.3834C70.6844 52.4895 69.4836 53.1244 69.3726 53.0116ZM96.8307 42.1675C96.4431 42.2184 98.0762 41.1921 98.6541 41.0311C98.732 41.284 97.0764 42.1442 96.8307 42.1675ZM164.08 63.1598C163.6 63.2961 162.821 63.5276 161.693 63.7534C160.597 63.9833 159.067 64.1367 158.191 64.1705C157.422 64.216 156.734 64.229 156.547 64.2919C156.283 64.3745 157.172 64.4913 158.198 64.4724C159.234 64.4739 161.072 64.2365 162.148 63.926C163.267 63.6228 163.913 63.3179 164.08 63.1598ZM198.73 31.2367C198.576 31.3601 198.627 27.6671 199.291 26.3633C199.88 25.1409 199.672 26.1892 199.366 27.693C199.046 29.2009 198.765 31.1887 198.73 31.2367ZM179.101 54.4878C180.655 54.088 178.968 54.592 179.308 54.9997C180.187 54.4631 182.315 53.1212 180.58 53.6227C180.24 53.7224 179.529 54.255 179.101 54.4878ZM177.82 55.0934C177.776 55.324 177.112 56.3785 177.911 55.829C178.28 55.5738 178.55 54.6937 177.82 55.0934ZM203.749 16.9674C204.069 16.7279 203.971 17.139 203.599 17.945C203.238 18.7331 202.558 20.0015 202.128 20.8143C201.973 21.1046 201.867 21.2938 201.841 21.3191C201.755 21.4037 201.685 21.4584 201.636 21.4833C201.66 21.7759 201.064 23.2087 200.639 23.272C200.863 22.801 201.342 21.6384 201.432 21.5455C201.473 21.4982 201.506 21.4645 201.534 21.4436C201.519 21.3199 201.609 21.0291 201.766 20.6454C202.475 18.9628 203.677 16.9917 203.749 16.9674ZM215.126 32.1771C215.573 31.513 215.66 32.712 215.578 32.738C214.99 33.1579 215.421 32.3356 215.405 32.2925C215.353 32.2181 215.039 32.6006 215.127 32.1771C215.127 32.1771 215.127 32.1771 215.126 32.1771ZM204.314 16.1224C204.318 16.131 204.285 16.2081 204.221 16.34C204.159 16.4684 204.072 16.6361 204.058 16.6466C203.752 16.8554 203.855 16.4412 203.965 16.2136C204.078 15.9784 204.19 15.9733 204.314 16.1224ZM86.1825 45.5895C87.1751 45.344 86.3866 46.0991 85.7112 46.1805C85.6533 46.185 85.3211 45.7977 86.1825 45.5895ZM177.239 55.5979C177.21 55.6039 177.105 55.6534 176.948 55.7341C175.868 56.3064 171.986 58.4653 172.497 58.8072C172.833 58.5568 176.041 56.7981 177.107 55.9869C177.498 55.6932 177.626 55.5194 177.239 55.5979ZM146.318 22.7458C146.295 23.1766 145.705 22.6849 145.935 22.4701C146.021 22.3863 146.323 22.6348 146.318 22.7458ZM66.996 53.5416C66.3375 54.2441 66.007 53.1461 66.8762 53.1481C66.9107 53.148 67.0219 53.5141 66.996 53.5416ZM145.373 26.2958C145.413 24.59 147.336 25.2907 145.943 27.5349C145.887 27.4298 145.83 27.3264 145.773 27.2245C144.449 30.0072 145.632 27.3213 145.69 26.6723C145.724 26.4153 145.352 26.5265 145.37 26.2968C145.371 26.2964 145.372 26.2961 145.373 26.2958ZM162.664 35.1437C162.877 34.959 162.825 34.8467 162.804 34.7536C162.774 34.6618 162.736 34.5926 162.722 34.534C162.678 34.4203 162.78 34.3402 162.632 34.356C162.542 34.3639 162.403 34.4055 161.848 34.4765C161.205 34.4652 160.472 34.9238 156.864 34.0032C155.1 33.5247 152.17 32.0183 150.227 29.6352C148.271 27.2836 147.668 25.1853 147.379 24.0863C147.101 22.9347 147.078 22.4301 147.043 22.1521C147.017 21.8823 147.014 21.8545 147.009 21.9195C146.996 22.1862 146.99 22.4176 147.021 22.5762C146.871 22.3554 146.763 22.1242 146.673 21.9289C146.62 21.8082 146.568 22.0882 146.611 22.7777C146.641 23.4396 146.854 24.5057 146.918 24.8482C146.996 25.2383 146.718 24.608 146.465 23.6134C146.212 22.6341 146.127 21.7451 146.048 21.9465C146.019 22.0109 145.989 22.082 145.956 22.16C145.951 22.0863 145.946 22.0162 145.941 21.9495C146.057 21.772 145.46 22.658 147.229 27.0064C148.142 29.1249 150.3 31.7475 152.395 33.1029C154.494 34.5141 156.105 34.9728 157.192 35.2525C159.325 35.73 159.983 35.6115 160.462 35.6167C160.922 35.5935 161.071 35.5516 161.144 35.5187C161.268 35.4498 161.02 35.3994 160.649 35.3468C160.3 35.2957 159.841 35.2295 160.098 35.231C160.726 35.2391 161.608 35.2276 162.014 35.2065C162.457 35.1861 162.612 35.1824 162.664 35.1437ZM146.225 24.286C146.255 24.3795 145.865 24.9829 145.853 25.2344C145.48 24.7941 146.034 23.6923 146.225 24.286ZM212.056 33.3005C211.956 32.9424 212.012 32.6132 212.562 32.5462C212.479 32.7764 212.215 33.0564 212.056 33.3005ZM33.6841 43.7812C33.0869 44.0461 31.9387 44.4867 32.4515 44.658C32.4957 44.6687 33.7739 43.977 33.6841 43.7812ZM140.359 48.9486C140.242 48.3919 140.032 45.0874 140.229 43.2473C140.38 41.2935 140.588 39.9566 140.124 41.3867C139.989 41.8424 139.634 43.9952 139.764 46.377C139.812 48.5966 140.809 52.2355 140.359 48.9486ZM181.981 52.2627C181.683 52.4517 180.525 53.2813 180.547 53.3706C180.629 53.6775 182.008 52.5904 181.981 52.2627ZM30.7777 44.8735C30.6648 44.8832 29.3059 45.7542 29.5694 45.8124C29.983 45.9483 31.0489 44.8703 30.7777 44.8735ZM89.3023 43.4628C89.4958 43.3708 89.9062 43.6379 89.9759 43.6144C90.1397 43.5703 93.7204 41.8802 92.5307 42.9472C92.3235 43.1626 87.0175 45.0782 86.3272 45.2488C85.8772 44.832 88.2719 44.4882 88.8046 44.2116C88.8979 44.1631 88.7816 43.7147 89.3016 43.4656C89.3018 43.4647 89.3021 43.4637 89.3023 43.4628ZM214.104 32.1922C214.117 31.8091 214.993 31.4996 214.984 31.9453C214.683 31.9959 214.472 32.0658 214.104 32.1922ZM213.434 32.3035C213.036 32.1642 213.786 31.8535 213.962 31.9377C214.024 32.1605 213.508 32.3143 213.434 32.3035ZM174.48 55.4789C174.152 55.7828 175.565 55.509 175.362 55.7516C175.235 55.9039 174.299 56.2567 174.107 56.5605C174.061 56.6485 175.17 56.5315 175.406 56.3601C175.737 56.1221 175.201 56.0103 175.58 55.7714C175.932 55.5497 176.253 55.3706 176.602 55.1842C177.496 54.71 178.373 54.3206 179.202 53.7848C179.303 53.7185 178.36 54.0047 179.239 53.447C179.371 53.3628 180.398 53.1767 181.399 52.4594C183.013 49.9494 185.319 49.8869 187.922 47.6444C187.752 47.6179 185.451 48.7564 185.32 48.8278C182.913 50.1723 178.809 52.8069 176.152 54.4677C176.055 54.5283 175.962 54.587 175.871 54.6438C175.194 55.0662 175.668 55.0769 175.373 55.272C175.142 55.424 175.166 54.8422 174.48 55.4789ZM33.872 43.3903C33.3787 43.0953 32.5572 43.8483 31.9665 44.1315C32.365 44.4115 33.2153 43.5933 33.872 43.3903ZM201.356 38.9516C201.03 39.1909 199.927 39.7504 199.922 39.9276C199.916 40.1594 201.465 39.2729 201.356 38.9516ZM107.248 34.0407C107.238 34.0311 107.244 34.0563 107.254 34.0688C107.374 34.4382 107.418 34.3322 107.248 34.0407ZM94.929 26.2901C94.7408 26.8873 94.6135 27.5535 94.1655 27.6009C94.3943 27.2333 94.7097 26.1128 94.929 26.2901ZM110.303 64.1672C109.975 63.7491 112.154 63.2147 112.534 63.1083C112.496 63.3698 110.557 64.4631 110.303 64.1672ZM211.324 31.8665C212.04 31.5882 211.603 30.9361 212.156 31.0974C212.246 31.1299 213.025 32.5517 212.114 32.2628C211.933 32.2223 212.338 31.6283 211.324 31.8665ZM145.785 27.9345C146.034 28.2488 145.692 28.8681 145.471 29.3227C145.288 29.1159 145.706 28.2394 145.785 27.9345ZM28.2782 45.9317C28.0113 45.8223 27.6581 46.041 27.6178 46.1661C27.5611 46.3042 27.8015 46.3156 27.8562 46.4791C27.8615 46.5039 27.7734 46.505 27.8726 46.3549C27.9568 46.2166 28.1896 45.9804 28.2782 45.9317ZM75.3801 48.8229C76.2371 48.0852 74.133 48.7779 73.6529 49.3779C73.9178 49.2408 75.3254 48.8687 75.3801 48.8229ZM94.6798 67.017C94.8793 67.0679 96.5108 67.3237 97.5795 67.3124C98.8096 67.3247 99.7145 67.2158 100.401 67.1181C101.773 66.9091 102.429 66.7194 102.521 66.7122C103.111 66.6584 103.062 66.7393 102.702 66.8784C102.311 67.0168 101.625 67.2335 100.232 67.4308C98.9096 67.5371 96.2673 68.0972 91.8686 66.3911C90.9617 66.0213 89.9446 65.4493 89.4034 65.0797C88.8427 64.7014 88.6531 64.531 88.9108 64.6951C89.3541 65.0153 92.0932 66.6261 94.6798 67.017ZM97.2306 21.7745C97.3686 21.8653 97.3114 22.1766 97.0919 22.6652C96.8788 23.1391 96.5222 23.7126 96.2912 23.8878C96.1622 23.5879 96.4127 22.79 96.6294 22.3064C96.8544 21.8025 97.0556 21.6625 97.2306 21.7745ZM208.161 33.7999C208.753 33.4224 209.368 33.1829 209.946 33.0264C209.974 33.2943 208.336 33.9102 208.161 33.7999ZM107.189 65.0762C107.264 65.0492 107.349 65.048 107.418 65.0246C107.343 65.0418 107.264 65.0589 107.189 65.0762ZM190.755 45.0874C190.028 45.4442 190.43 45.7514 190.48 45.7362C191.07 45.5319 191.577 44.6832 190.755 45.0874ZM32.8463 43.1089C32.432 42.833 31.5703 43.6502 30.9759 43.8563C31.2914 44.0702 32.3782 43.392 32.8463 43.1089ZM161.092 34.7287C160.514 34.6225 161.475 33.965 162.269 33.5937C162.444 33.4969 162.549 33.4492 162.451 33.4725C162.366 33.4934 162.009 33.5869 161.627 33.6807C161.597 33.7619 162.21 33.7816 162.431 33.8216C162.679 33.8614 162.619 33.9571 162.417 34.0964C161.867 34.4031 161.149 34.7423 161.092 34.7287ZM72.1119 49.4544C71.9083 49.1706 70.6907 50.1441 71.0483 50.1633C71.2811 50.1705 72.2258 49.633 72.1119 49.4544ZM147.796 22.4243C147.788 21.957 147.764 21.7804 147.704 21.9C147.616 22.0633 147.447 22.1878 147.323 22.0955C147.251 22.0414 147.248 21.9772 147.282 21.9118C147.327 21.8236 147.44 21.9215 147.559 22.1206C147.676 22.3121 147.798 22.5406 147.796 22.4243ZM168.555 58.5957C168.439 58.629 167.788 59.0611 167.202 59.4878C166.623 59.9117 166.149 60.3183 166.939 60.1375C167.967 59.9058 167.836 59.4123 168.031 59.3125C168.354 59.1736 172.493 57.5453 168.555 58.5957ZM143.682 42.6698C144.165 42.2034 144.947 41.8985 145.583 41.5116C145.416 41.8469 144.052 42.7538 143.682 42.6698ZM77.5551 47.212C77.3229 47.1282 72.6116 48.8786 75.4143 48.2347C75.5796 48.1878 78.2216 47.4041 77.5551 47.212ZM211.324 31.8665C211.233 31.9029 211.116 31.9382 210.979 31.9652C211.106 31.9203 211.227 31.8909 211.324 31.8665ZM200.444 38.5532C200.565 38.1771 199.236 38.9816 198.93 39.3424C198.979 39.671 200.431 38.6031 200.444 38.5532ZM145.458 41.187C145.753 40.8478 146.519 40.5789 146.995 40.2931C147.02 40.538 145.726 41.2943 145.458 41.187ZM113.593 61.5363C114.523 61.299 115.552 60.8312 115.55 60.5581C115.551 60.5474 115.551 60.5371 115.548 60.5274C115.59 60.5576 115.669 60.5764 115.787 60.579C115.911 60.5833 117.196 59.9082 117.795 59.7379C119.146 59.3485 117.699 60.1668 115.71 60.9597C113.394 61.8829 110.104 62.9351 114.405 60.6525C114.138 60.945 113.863 61.2413 113.593 61.5363ZM98.228 24.6842C98.5803 25.3821 99.3579 27.5855 101.077 29.4037C102.713 31.1511 104.19 31.8739 103.141 31.4009C102.449 31.1782 99.5251 28.7219 98.7197 26.6983C97.8394 24.7881 97.9091 23.9884 98.228 24.6842ZM92.2383 36.0552C92.3464 35.9838 92.5145 35.0178 92.3528 34.9259C91.9799 35.348 91.7783 36.3561 92.2383 36.0552ZM107.834 32.3618C107.767 32.3107 107.692 32.8649 107.705 32.8883C107.793 33.083 107.92 32.6676 107.834 32.3618ZM209.044 31.3388C208.636 31.3708 207.701 32.3656 207.653 32.8249C207.572 32.7919 207.399 32.789 207.115 32.8356C207.115 32.8351 207.116 32.8347 207.117 32.8343C207.031 32.8483 206.479 33.1459 205.734 33.6103C202.705 35.519 197.197 39.2188 203.479 35.6882C203.73 35.5481 203.224 35.4933 204.239 34.8882C204.306 34.8489 204.483 35.0503 204.695 34.9253C204.895 34.8064 205.46 34.4747 206.061 34.1033C206.765 33.6726 207.509 33.2192 207.678 32.9725C207.706 33.0126 207.756 33.0374 207.831 33.0424C208.5 33.074 209.356 31.3045 209.044 31.3388ZM91.3719 37.7705C91.5595 37.6536 91.7861 37.0597 91.6068 36.8938C91.3686 37.1065 90.941 38.0436 91.3719 37.7705ZM77.0755 46.3627C76.4698 46.377 75.1934 47.2501 75.6852 47.268C75.973 47.2796 77.7868 46.3359 77.0755 46.3627ZM94.8441 29.9777C93.0721 33.236 94.5051 30.7848 94.5863 31.4422C94.6765 30.9447 94.7646 30.4527 94.8441 29.9777ZM208.188 25.1872C208.994 26.3296 209.562 26.7575 209.651 26.7657C209.758 26.771 209.441 26.3607 208.968 25.6476C207.931 24.2201 206.968 21.5753 206.661 20.2153C206.556 19.806 206.453 20.1626 206.576 21.1473C206.668 22.0584 207.261 23.901 208.188 25.1872ZM201.135 44.4361C201.688 43.8696 201.564 46.3892 201.063 45.4546C201.045 45.4102 201.115 44.4712 201.135 44.4361ZM205.653 19.5446C205.437 19.0439 205.516 18.7757 205.963 18.038C205.514 19.288 206.39 18.2713 205.653 19.5446ZM115.519 60.4913C115.522 60.4942 115.525 60.4969 115.527 60.4996C115.537 60.5082 115.544 60.516 115.548 60.5274C115.542 60.5232 115.537 60.5189 115.533 60.5143C115.527 60.507 115.523 60.4994 115.519 60.4913ZM107.081 32.5549C106.905 32.235 106.678 32.3304 106.851 32.6436C106.864 32.6718 107.093 32.8128 107.081 32.5549ZM207.653 32.8249C207.725 32.8539 207.725 32.9006 207.678 32.9725C207.651 32.9347 207.645 32.8867 207.653 32.8249ZM100.359 27.7701C100.306 27.9869 98.8314 25.8783 98.5007 24.5377C98.0885 23.1598 98.1336 22.6273 98.1308 22.5825C98.2334 22.2712 98.3173 22.2516 98.3689 22.3039C98.4233 22.3718 98.4451 22.5203 98.4911 22.9126C98.5396 23.2868 98.6129 23.9349 98.8959 24.845C99.1723 25.7696 99.7636 26.959 100.359 27.7701ZM66.1191 50.641C66.0422 50.7087 66.8947 51.0357 67.094 50.6492C67.26 50.3435 66.3903 50.3926 66.1191 50.641ZM203.992 23.4808C203.668 24.2062 203.195 25.3891 202.811 25.5176C203.084 24.9093 203.791 23.3491 203.992 23.4808ZM201.505 43.7959C201.03 43.0024 200.814 40.9668 200.8 39.4803C201.267 39.4856 201.278 43.0731 201.505 43.7959ZM210.174 30.9705C210.139 30.9596 209.105 31.3208 209.389 31.5476C209.807 31.867 210.515 31.0031 210.174 30.9705ZM68.7521 49.7798C69.2305 49.3101 67.6176 49.2849 67.25 50.0599C67.065 50.4513 68.6766 49.8526 68.7521 49.7798ZM106.377 32.314C106.413 32.5103 106.687 32.7485 106.62 32.4091C106.557 32.4027 106.37 32.2407 106.377 32.314ZM93.8799 34.5232C96.0977 31.9355 93.7282 32.835 93.645 33.4124C93.6382 33.4817 93.8234 34.5931 93.8799 34.5232ZM28.3756 37.6038C28.2939 36.7553 28.7422 37.8771 28.7891 39.3611C28.8481 40.8673 28.4352 42.2086 28.1945 42.3806C28.0361 42.4885 28.2144 41.8568 28.3555 40.7405C28.5126 39.6662 28.4239 38.1286 28.3756 37.6038ZM130.675 51.5344C130.561 51.622 130.448 51.7091 130.335 51.7943C130.411 51.719 130.521 51.6326 130.675 51.5344ZM98.8627 35.5917C101.725 35.6044 100.998 34.737 101.181 34.6444C101.607 34.4087 102.796 34.1242 103.618 33.4913C102.733 34.2789 101.885 34.9861 101.056 35.6531C101.531 35.4327 103.91 34.3414 106.377 32.5233C106.434 32.574 106.484 32.58 106.445 32.4964C106.292 32.2097 106.253 32.3536 106.244 32.3271C106.222 32.2932 105.662 31.5887 105.622 31.577C105.622 31.5768 105.621 31.5766 105.62 31.5764C104.906 32.2441 99.711 35.4715 98.8627 35.5917ZM96.2784 28.7597C96.0042 29.1161 95.626 29.0889 95.6198 29.3123C95.6176 29.3887 95.9235 29.5374 95.905 29.7942C96.0317 29.4466 96.1578 29.0984 96.2784 28.7597ZM95.5801 38.683C94.7934 38.6076 97.5884 37.4142 97.6983 37.3953C98.3012 37.4069 96.2215 38.7625 95.5801 38.683ZM104.334 30.813C104.491 30.9163 106.287 31.6693 107.456 31.777C107.815 31.824 107.824 31.8163 107.884 31.8242C107.924 31.8288 107.93 31.8334 107.929 31.8426C107.925 31.8607 107.898 31.8963 107.899 31.9608C107.91 31.9936 107.931 32.0229 107.916 32.0448C107.908 32.0557 107.891 32.0648 107.84 32.0686C107.778 32.0704 107.735 32.0776 107.417 32.037C106.317 31.9247 104.619 31.291 103.745 30.7024C102.837 30.079 102.817 30.0654 104.334 30.813ZM95.8028 30.0792C95.492 30.6759 94.6258 31.7624 95.1544 31.8356C95.1549 31.8346 95.1553 31.8336 95.1557 31.8326C95.3796 31.2304 95.5939 30.6508 95.8028 30.0792ZM70.2723 47.9129C68.8727 47.639 69.7885 48.3568 70.8503 48.1829C70.988 47.725 70.5107 47.9532 70.2723 47.9129ZM66.5908 48.9302C66.2627 48.9128 63.1205 50.656 63.7839 50.8088C64.066 50.8384 65.7281 49.5795 65.8024 49.5797C65.9462 49.559 65.5874 50.2635 66.4961 49.717C66.3689 49.5986 66.7134 48.9255 66.5908 48.9302ZM69.1719 47.8287C67.8538 47.7422 68.0832 48.8992 68.8848 48.5356C69.191 48.3987 69.3639 47.8409 69.1719 47.8287ZM73.6387 46.0534C73.1952 46.1113 72.0824 46.3903 71.5212 47.04C72.4833 46.671 73.4773 46.3049 74.4529 45.9606C74.4884 45.7157 74.0105 46.0082 73.6361 46.0544C73.637 46.0541 73.6379 46.0538 73.6387 46.0534ZM205.741 52.9488C205.623 51.97 205.915 52.6159 206.213 53.3219C206.518 54.0388 206.732 54.5713 206.706 54.6242C206.625 54.7898 206.44 54.6531 206.238 54.3213C206.04 54.0011 205.795 53.3759 205.741 52.9488ZM21.3838 34.5057C21.678 34.4664 22.069 34.7205 22.4381 34.1945C21.7632 34.2811 21.0917 34.3478 20.4228 34.398C20.4121 35.2539 21.0606 34.5506 21.3838 34.5057ZM24.8269 35.3034C24.7639 35.3693 25.8269 35.9681 24.4337 36.068C23.5388 36.138 26.6148 33.198 27.453 32.975C26.9907 33.7406 25.3676 34.7383 24.8269 35.3034ZM34.1092 32.8334C34.2252 32.8653 33.0103 34.6154 32.7982 34.7228C31.7511 35.4212 33.5282 32.9318 34.1092 32.8334ZM29.6215 37.3226C30.4311 36.9077 29.0336 38.2986 28.4966 38.5451C28.3343 38.4195 29.4958 37.4009 29.6215 37.3226ZM220.078 39.1616C220.776 38.4109 219.129 37.8807 219.521 38.9471C219.54 39.0005 220.044 39.1954 220.078 39.1616ZM33.6681 35.1871C32.8562 35.7892 34.1902 34.066 34.6973 33.5326C34.9104 33.6197 33.7932 35.1194 33.6681 35.1871ZM221.831 38.5539C222.323 37.667 220.529 38.054 220.46 38.1674C220.182 38.6287 221.038 40.2497 221.26 40.5879C220.742 38.0819 221.615 39.0052 221.831 38.5539ZM220.825 35.0455C220.724 34.3915 220.125 35.9483 220.644 36.3563C220.628 35.9933 220.848 35.2144 220.825 35.0455ZM222.718 31.2154C222.803 31.0808 222.938 30.8597 223.086 30.596C223.37 30.0917 223.715 29.394 223.622 29.1473C223.497 29.4777 223.119 30.0624 222.896 30.5074C222.736 30.8281 222.643 31.0917 222.718 31.2154ZM223.955 30.5826C224.644 30.0391 223.712 29.3692 223.617 30.3482C223.614 30.3852 223.923 30.5992 223.955 30.5826ZM226.49 26.1102C227.181 25.6345 226.473 24.4462 226.009 25.5142C225.874 25.8191 226.414 26.1573 226.49 26.1102ZM223.737 37.4566C223.92 36.937 223.142 36.2778 223.058 37.3876C222.93 36.9799 222.816 36.6022 222.716 36.2532C222.229 37.606 223.359 37.5946 223.323 38.0287C223.294 38.6981 222.402 38.7231 222.11 38.5937C222.501 38.9598 222.732 40.243 222.985 41.6263C222.997 41.6829 223.005 41.8571 223.016 41.914C223.12 42.6535 223.209 43.3729 223.297 43.9443C223.328 43.3655 223.371 42.6437 223.411 41.8778C223.4 41.8182 223.392 41.636 223.379 41.5769C223.417 40.3879 223.497 39.2045 223.544 38.4533C223.565 38.111 223.305 37.8076 223.326 37.5445C223.362 37.1264 223.724 37.4882 223.737 37.4587C223.737 37.458 223.737 37.4573 223.737 37.4566ZM221.342 8.9083C220.636 8.64165 220.133 8.51658 219.672 8.42278C218.649 8.09099 218.958 8.57917 219.607 8.85622C220.475 9.06027 221.633 9.34836 223.039 10.078C223.162 10.141 222.781 9.80376 222.347 9.50519C221.933 9.21056 221.453 8.94913 221.342 8.9083ZM38.3293 34.5502C35.7628 37.2531 36.9755 35.2076 33.1419 40.2532C34.5838 38.0284 32.9291 39.8169 33.118 39.2805C33.2663 38.8698 34.4635 37.9234 33.5415 38.2447C34.1096 38.0089 35.2653 36.9641 36.2918 35.7049C37.3125 34.5022 38.2568 32.8065 38.386 32.5978C38.3845 32.6009 38.3829 32.6039 38.3814 32.6069C38.5291 32.3982 39.1678 33.5059 38.3293 34.5502ZM225.342 32.394C226.111 32.4705 225.899 32.1986 225.789 31.8576C225.692 31.5908 225.665 31.2774 226.313 31.0801C225.951 30.2301 225.563 30.813 225.208 31.5868C224.7 32.6792 224.415 33.8953 223.638 33.8157C223.979 32.9887 224.12 32.5468 224.023 32.5432C223.936 32.5261 223.667 32.8696 223.473 33.2279C223.083 33.9573 223.013 34.6533 224.328 33.9261C223.665 34.6976 223.749 34.7681 223.928 34.7944C224.118 34.8061 224.468 34.7103 224.563 34.8516C224.756 35.1462 224.35 35.7603 224.852 35.8041C224.852 35.8037 224.852 35.8033 224.852 35.803C224.876 35.3693 224.914 35.0353 225.068 34.4692C223.864 34.6876 224.559 33.608 225.633 33.3563C225.526 33.0521 225.43 32.7286 225.342 32.394ZM223.22 35.6164C223.231 35.556 223.32 34.4253 223.117 34.416C222.889 34.5513 222.815 36.2657 223.22 35.6164ZM224.024 44.6656C223.944 43.8015 224.025 42.383 223.577 41.9235C223.658 42.8371 223.576 44.2366 224.024 44.6656ZM198.061 12.0757C196.989 13.0235 200.843 11.0943 199.559 11.3267C199.483 11.3384 198.103 12.029 198.061 12.0757ZM226.181 30.1467C227.078 29.2217 225.65 29.1975 225.574 30.1348C225.57 30.1893 226.14 30.188 226.181 30.1467ZM36.7022 37.0217C36.8707 37.4392 33.5594 40.5227 32.9925 40.9172C33.1405 40.5147 36.5097 36.8296 36.7022 37.0217ZM225.355 46.0032C226.273 44.4359 224.952 42.2042 224.807 41.7499C224.794 41.6811 224.784 41.4708 224.769 41.4025C224.76 41.3789 224.755 41.3603 224.755 41.347C224.755 41.1674 225.054 41.2932 225.211 41.347C225.227 41.4182 225.237 41.6375 225.25 41.7092C225.304 41.7328 225.341 41.7458 225.343 41.7296C225.344 41.724 225.344 41.7143 225.343 41.7007C225.33 41.6284 225.32 41.4072 225.304 41.3354C225.275 41.0114 225.011 38.8504 224.986 38.7864C224.953 38.7119 224.283 39.1632 224.028 38.727C224.237 39.1127 224.381 40.211 224.541 41.4311C224.556 41.4979 224.566 41.7036 224.578 41.7708C224.731 43.397 224.821 44.9255 224.876 45.048C224.958 45.2237 225.547 43.7425 225.355 46.0006C225.355 46.0015 225.355 46.0024 225.355 46.0032ZM224.837 40.7443C224.615 41.3903 224.379 39.6739 224.463 39.2969C224.626 38.4163 224.847 40.6257 224.837 40.7443ZM224.841 37.1286C224.873 37.059 224.905 36.7294 224.901 36.4596C224.896 36.1857 224.853 35.9656 224.694 35.9116C224.214 36.214 224.685 37.4388 224.841 37.1286ZM218.713 6.12104C217.985 6.05366 215.741 5.67321 215.596 5.97479C216.451 5.92974 218.584 6.38055 218.713 6.12104ZM27.0408 48.0941C28.1213 47.735 25.9441 49.1348 25.2336 49.3725C25.1055 49.2339 26.9521 48.1334 27.0408 48.0941ZM228.737 31.1514C228.657 30.7946 232.717 25.3973 232.105 17.1155C232.367 25.2831 228.182 30.4397 228.431 30.8843C228.421 30.9778 228.707 31.183 228.737 31.1514ZM226.856 38.2011C227.302 38.571 226.823 38.8964 226.822 38.9556C226.798 39.4935 227.038 40.7403 226.603 40.5151C226.617 39.3533 225.971 37.4442 226.856 38.2011ZM218.245 4.1499C215.37 4.03881 219.505 4.70389 220.233 4.71452C220.968 4.80167 221.239 4.81935 220.664 4.63264C220.636 4.6244 220.489 4.59192 220.258 4.55011C219.934 4.44787 218.565 4.16032 218.245 4.1499ZM228.535 31.8541C228.563 31.9958 228.387 32.4615 228.172 32.9699C227.823 33.7809 227.387 34.7275 227.201 35.1869C227.007 35.6579 226.95 35.8124 226.929 35.9146C226.353 35.5805 226.841 35.5454 226.968 35.0721C227.006 34.9344 226.748 34.8789 226.753 34.8643C226.839 34.5951 227.048 34.9016 227.116 34.7335C227.127 34.6967 227.365 33.7771 227.812 32.8019C228.112 32.1387 228.478 31.5015 228.535 31.8541ZM227.163 38.4116C227.33 38.5467 227.548 39.9267 227.722 41.032C227.742 41.1197 227.755 41.3899 227.771 41.4782C227.843 42.1098 227.883 42.5806 227.867 42.6357C227.711 43.1611 227.553 42.4976 227.426 41.5098C227.41 41.4238 227.397 41.1606 227.379 41.0752C227.176 39.911 227.117 38.5181 227.163 38.4116ZM229.294 31.5666C229.463 32.0461 229.12 32.9026 228.861 33.2913C228.595 33.701 228.325 33.8238 228.463 33.1059C228.472 33.0575 228.484 33.004 228.498 32.9444C228.537 32.7828 229.162 32.2095 229.294 31.5666ZM218.677 3.49543C218.576 3.41311 214.784 3.06655 214.689 3.35192C215.351 3.33194 220.565 3.919 218.677 3.49543ZM220.622 2.96022C220.346 2.91229 222.15 3.46792 220.45 3.28264C220.311 3.30575 220.064 3.2923 219.62 3.217C219.475 3.20424 219.365 2.62665 217.12 2.64283C216.663 2.64927 215.928 2.95721 215.982 2.98049C217.095 3.37453 219.184 3.43317 220.431 3.40748C223.667 3.55256 227.926 6.15138 228.441 6.64726C228.76 6.87924 228.396 6.39534 227.002 5.41759C225.681 4.46676 223.062 3.2679 220.622 2.96022ZM227.574 38.4342C227.776 38.274 228.428 38.5708 228.141 38.9434C228.017 39.1057 227.611 38.849 227.574 38.4342ZM206.675 4.12961C208.614 3.18845 202.223 4.92371 202.1 5.21582C202.322 5.32903 206.421 4.17077 206.675 4.12961ZM26.185 51.9637C26.1862 51.963 26.1874 51.9624 26.1886 51.9618C24.886 52.5529 25.5207 51.8563 25.4565 51.8798C25.2632 51.9458 25.0864 52.0082 24.9249 52.0674C23.3368 52.7216 22.1743 53.2342 21.7156 53.5291C21.1997 53.8375 21.4758 53.9462 20.6419 54.225C19.327 54.6156 17.9268 54.9291 15.3033 54.7403C13.9553 54.5882 12.2127 54.4502 9.34736 53.0378C6.5317 51.8461 2.23938 47.3599 1.47466 42.9471C1.24663 41.5263 0.870449 39.3615 1.22296 36.1998C0.783183 40.3283 1.64895 42.4063 1.76426 42.8784C2.26155 44.5965 2.21324 44.3693 1.82563 42.8638C1.49158 41.9282 1.38184 37.2609 1.72694 37.1215C2.33143 36.5934 1.72825 38.9902 2.44956 42.7159C2.89028 44.7825 4.232 47.5861 6.28987 49.5474C8.32821 51.5413 10.5362 52.5071 12.0964 52.9815C15.2729 53.8666 16.7161 53.6144 17.8692 53.5715C20.0479 53.3627 20.9126 53.0779 21.7527 52.8804C23.3174 52.4671 24.1586 52.1777 24.8346 51.8918C25.0683 51.7985 25.264 51.6968 25.4049 51.5846C25.4983 51.5105 25.0079 51.593 24.6825 51.5959C24.388 51.6379 24.2031 51.6261 24.4424 51.4538C24.4815 51.4255 24.5226 51.3971 24.5657 51.3685C25.9277 50.3853 31.1081 49.5678 26.185 51.9637ZM228.221 39.2061C228.415 39.3698 228.506 40.1647 228.531 40.9306C228.551 41.0236 228.565 41.3102 228.582 41.4038C228.593 42.3855 228.491 43.1861 228.282 42.6673C228.26 42.6121 228.175 42.0868 228.101 41.4479C228.085 41.3574 228.072 41.0806 228.052 40.9907C227.894 39.986 227.835 38.8696 228.221 39.2061ZM105.345 34.2785C105.571 34.0064 105.298 33.9256 104.97 33.9453C104.461 34.0419 103.842 34.2607 103.695 34.4524C103.576 34.6085 104.555 34.5583 105.144 34.3807C105.234 34.3588 105.307 34.3251 105.345 34.2785ZM110.579 61.0738C110.329 61.416 110.238 61.4765 110.172 61.4928C110.108 61.5043 110.083 61.4435 110.067 61.3589C110.034 61.1909 110.028 60.9376 109.984 60.7432C109.941 60.5467 109.858 60.4109 109.742 60.3965C109.631 60.3753 109.459 60.5075 109.36 60.7068C109.345 60.7416 109.438 61.0326 109.73 61.107C109.873 61.1483 110.074 61.1203 110.261 61.0668C110.452 61.0056 110.6 60.9616 110.579 61.0738ZM170.444 7.63013C164.888 3.9041 162.728 4.62715 161.56 4.37829C160.406 4.34427 160.038 4.45326 159.969 4.53102C159.922 4.61691 160.172 4.68873 160.948 4.77268C161.76 4.9151 162.922 4.78235 166.143 5.8195C168.495 6.65214 169.932 7.6388 170.445 7.88492C170.981 8.16952 170.773 7.88097 170.444 7.63013ZM113.672 28.7689C113.577 28.8029 112.725 29.4812 112.876 29.6248C113.274 29.5009 114.298 28.5775 113.672 28.7689ZM175.552 13.5317C174.211 10.9415 172.907 9.86282 173.156 10.1938C173.304 10.4581 174.65 12.1798 175.467 14.2114C177.132 18.5608 176.679 20.5324 177.011 21.0771C177.045 21.1677 177.084 21.257 177.128 21.3438C177.12 21.2626 177.116 21.1716 177.115 21.0741C177.1 20.7223 177.176 20.0079 176.985 18.3923C176.872 16.8647 175.869 14.0273 175.552 13.5317ZM232.276 29.8783C232.242 29.0568 233.288 26.999 233.839 24.9027C234.103 24.8612 233.752 26.2322 233.33 27.3333C232.904 28.4703 232.416 29.4613 232.276 29.8783ZM95.6862 37.2597C95.4094 37.5396 95.64 37.6192 95.9384 37.5672C96.237 37.5153 96.6211 37.321 96.4615 37.1446C96.4178 37.1368 95.6953 37.2425 95.6862 37.2597ZM156.363 31.8004C155.932 32.3851 157.95 31.6364 157.192 31.5041C157.155 31.5031 156.38 31.7731 156.363 31.8004ZM164.947 26.6248C164.417 26.8551 162.385 28.1941 163.331 27.9169C163.482 27.8713 165.051 26.8684 164.947 26.6248ZM20.3652 54.6522C20.8903 54.6542 20.5982 54.8852 19.0852 55.2216C18.2398 55.3549 17.2169 55.6811 14.2976 55.4193C12.8255 55.2198 10.588 54.9425 7.45078 53.0124C4.23602 51.1814 1.07981 46.5832 0.456926 43.1884C-0.201455 40.5332 0.0113903 37.8647 0.129263 37.1674C0.209719 36.7431 0.0233738 39.8754 0.96464 43.068C1.6343 47.6734 7.33887 53.1749 10.5921 53.9407C13.9201 55.106 15.5677 54.925 16.7531 54.9433C19.0346 54.8425 19.7533 54.6357 20.3652 54.6522ZM148.828 7.21199C148.192 7.50293 146.466 8.03109 146.263 8.38884C147.035 8.0256 149.216 7.61302 148.828 7.21199ZM99.6776 35.6681C98.6201 35.5275 97.2881 36.1221 97.884 36.6312C99.3897 35.9705 97.4281 36.1448 99.6776 35.6681ZM177.787 25.3152C177.879 24.5568 177.23 23.9493 177.196 24.0345C176.869 24.828 177.474 26.044 177.787 25.3152ZM122.849 20.9329C122.641 20.7207 121.039 22.1864 121.386 22.1461C121.494 22.1273 123.013 21.0898 122.849 20.9329ZM199.541 4.59532C198.467 4.77512 201.327 3.25565 202.429 3.21902C203.004 3.45128 199.641 4.54823 199.541 4.59532ZM172.528 43.8729C172.877 44.161 173.929 41.1962 173.108 42.1878C172.904 42.4438 172.414 43.7902 172.528 43.8729ZM158.404 29.5594C157.881 30.1871 159.105 29.6987 160.203 29.0859C161.222 28.5195 162.125 27.8545 161.25 28.0516C161.191 28.0641 160.584 28.3785 159.963 28.7034C159.218 29.0963 158.46 29.498 158.404 29.5594ZM167.667 24.0041C167.402 24.1102 166.741 22.8425 168.003 22.673C168.168 22.6498 167.782 23.3518 167.933 23.3561C168.021 23.3581 170.226 22.1512 170.305 22.059C170.388 21.9591 170.015 21.6585 170.092 21.5463C170.182 21.4194 171.691 20.9059 172.372 20.4621C173.652 19.6266 173.581 19.2175 173.685 19.1476C173.988 18.944 174.65 18.8297 175.269 18.4198C178.387 16.3534 182.987 12.9057 185.929 11.9162C183.535 13.12 181.617 14.8083 179.484 16.3515C179.687 15.2654 176.594 19.0021 178.352 16.7382C177.415 17.605 168.515 23.6695 167.669 24.0024C167.668 24.003 167.667 24.0035 167.667 24.0041ZM113.206 58.5608C113.002 59.6676 115.925 55.5439 115.656 54.8181C115.241 55.3734 113.245 58.4646 113.206 58.5608ZM101.006 32.828C101.293 32.6211 101.215 31.6232 103.099 31.385C103.1 31.3843 103.102 31.3837 103.104 31.3831C103.653 31.3148 103.172 31.7564 103.294 31.7964C103.319 31.8065 103.848 31.7562 104.119 31.8042C104.21 31.8526 104.26 31.9156 104.196 31.9984C104.126 32.056 104.001 32.1284 103.806 32.2186C101.891 33.113 103.355 31.6372 102.311 32.0472C102.177 32.0994 100.444 33.3614 100.606 33.4177C100.623 33.425 101.152 33.0912 101.268 33.0943C101.694 33.111 101.631 33.4571 101.687 33.4495C101.808 33.4268 103.175 32.6261 104.27 32.1829C104.546 32.069 104.797 32.01 104.935 32.1046C104.978 32.1335 104.743 32.3041 104.399 32.5076C102.942 33.2342 100.593 34.3504 100.449 34.3541C100.312 34.36 100.052 33.5768 99.8953 33.5534C99.8029 33.5478 98.0131 34.6148 97.7619 34.6339C97.6865 34.6409 97.6231 34.6411 97.5774 34.6387C97.9349 34.77 96.3262 35.3972 96.2898 35.0999C96.2607 34.9914 97.3747 34.6154 97.4291 34.6137C97.4499 34.6143 97.4697 34.6187 97.4871 34.6202C97.0795 34.4547 101.146 32.8032 100.101 32.7322C101.22 32.0009 100.183 33.4306 101.006 32.828ZM105.479 30.4145C105.444 30.5276 105.408 30.6405 105.372 30.7532C106.508 29.9867 108.223 29.513 109.815 28.4709C110.217 28.2069 109.464 28.0693 110.069 27.842C110.554 27.6588 111.311 27.73 111.139 27.9824C111.095 28.0483 110.043 28.3752 109.635 28.673C108.424 29.5547 108.981 29.7281 108.913 29.7883C108.836 29.8526 107.885 30.0455 107.475 30.2854C106.447 30.8865 106.068 31.4042 104.585 31.6486C105.236 31.0396 104.54 30.6423 105.479 30.4145ZM172.342 43.0868C172.378 42.9977 172.362 42.722 172.184 42.0609C171.617 39.9982 170.122 37.2344 168.271 35.3963C166.43 33.515 164.599 32.5166 163.29 31.9469C160.634 30.8603 159.537 30.9258 158.91 30.8077C159.045 30.9794 159.716 30.9242 161.895 31.5917C162.991 31.9676 164.62 32.5514 166.742 34.2207C168.85 35.8077 171.235 39.0724 172.08 42.0927C172.217 42.5373 172.294 42.858 172.342 43.0868ZM70.5253 41.4303C70.5327 40.6948 67.5592 44.2331 68.6207 43.5281C68.8562 43.3898 70.1556 41.9308 70.5253 41.4303ZM47.1932 23.336C47.5662 23.2043 46.878 23.2068 46.5382 23.2146C46.3655 23.2185 46.2981 23.2167 46.3787 23.2212C46.4492 23.2268 46.6696 23.2446 46.6776 23.3355C46.6816 23.3642 46.5314 23.4061 46.4516 23.4354C46.3678 23.4651 46.3643 23.478 46.4534 23.4687C46.6176 23.4527 47.1494 23.3516 47.1932 23.336ZM127.677 14.9662C127.76 14.894 129.125 14.1895 129.172 14.1926C130.299 14.08 125.837 16.4852 127.677 14.9662ZM59.8037 19.7708C58.2514 20.7502 63.3125 18.7966 61.6359 19.0651C61.5662 19.0697 59.8676 19.7245 59.8037 19.7708ZM66.7417 16.9569C66.3516 17.1132 64.5178 17.638 64.5499 17.7816C64.5939 18.0084 66.677 17.3975 66.7417 16.9569ZM179.517 25.9649C180.09 25.7151 179.326 29.2662 179.14 30.4685C178.589 30.6723 179.524 27.2348 179.517 25.9649ZM145.947 5.30968C150.91 3.20907 153.496 2.72559 153.12 3.00185C152.643 3.32366 149.739 4.36224 145.431 5.78337C145.296 5.47233 145.312 5.58011 145.947 5.30968ZM179.986 22.6874C179.802 22.3799 179.75 21.7263 179.723 21.0009C179.578 20.3497 180.14 19.1465 178.456 14.0502C178.762 14.5922 179.466 16.7707 179.663 18.203C179.899 19.7041 179.909 20.5766 179.934 20.995C179.962 21.6494 179.962 22.3157 179.986 22.6874ZM74.5999 36.6009C74.4683 37.7916 71.7607 40.8529 72.0219 40.136C72.0875 40.0641 74.5838 36.2521 74.5999 36.6009ZM128.267 14.0757C127.785 13.7527 130.808 12.2227 131.071 12.2202C132.187 12.1086 128.469 13.798 128.267 14.0757ZM174.647 44.988C174.723 45.5655 174.17 46.5943 173.704 47.4269C173.697 47.4148 173.691 47.4014 173.694 47.3913C173.594 47.3535 173.536 47.3369 173.506 47.3278C173.789 46.6069 174.357 45.6005 174.647 44.988ZM178.265 36.5668C178.26 36.6635 177.641 38.4535 177.59 38.5184C176.742 39.8582 178.475 34.8124 178.265 36.5668ZM29.868 54.3414C29.8259 54.3842 28.6603 55.0088 28.6188 55.0109C27.4143 55.2434 30.88 53.3828 29.868 54.3414Z" fill="white"/>
</svg>
