<svg viewBox="0 0 271 132" xmlns="http://www.w3.org/2000/svg">
  <style>
    .graphic-column {
      fill: #F4F1ED;
    }

    .graphic-block-blue-dark {
      fill: #9FAFCE;
    }

    .graphic-block-blue {
      fill: #B4DEEC;
    }

    .graphic-block-green {
      fill: #AEBBAE;
    }

    .graphic-block-beige {
      fill: #D2C5B5;
    }
    .graphic-shadow {
      fill: black;
    }
  </style>

  <!-- Grid columns -->
  <rect x="14.9996" y="12.8076" width="55" height="108" rx="8" class="graphic-column"/>
  <rect x="76.9996" y="12.8076" width="55" height="108" rx="8" class="graphic-column"/>
  <rect x="138" y="12.8076" width="55" height="108" rx="8" class="graphic-column"/>
  <rect x="200" y="12.8076" width="55" height="108" rx="8" class="graphic-column"/>

  <!-- Content block shadows -->
  <rect x="19.9996" y="17.8076" width="229" height="31" rx="8" class="graphic-shadow"/>
  <rect x="19.9996" y="52.8076" width="47" height="31" rx="8" class="graphic-shadow"/>
  <rect x="80.9996" y="52.8076" width="168" height="31" rx="8" class="graphic-shadow"/>
  <rect x="20.9996" y="86.8076" width="228" height="31" rx="8" class="graphic-shadow"/>

  <!-- Content blocks -->
  <rect x="19.9996" y="16.8076" width="229" height="31" rx="8" class="graphic-block-blue-dark"/>
  <rect x="19.9996" y="51.8076" width="47" height="31" rx="8" class="graphic-block-blue"/>
  <rect x="80.9996" y="51.8076" width="168" height="31" rx="8" class="graphic-block-green"/>
  <rect x="20.9996" y="85.8076" width="228" height="31" rx="8" class="graphic-block-beige"/>
</svg>
