<svg viewBox="0 0 271 132" xmlns="http://www.w3.org/2000/svg">
  <style>
    .graphic-path {
      fill: #3C3533;
    }

    .graphic-dot-beige {
      fill: #D2C5B5;
    }

    .graphic-dot-green {
      fill: #BFD7BF;
    }

    .graphic-dot-blue-dark {
      fill: #7B9BD8;
    }

    .graphic-dot-blue {
      fill: #B4DEEC;
    }

    .graphic-arrow-beige {
      stroke: #D2C5B5;
      stroke-width: 3;
      stroke-linecap: round;
      stroke-linejoin: round;
    }

    .graphic-arrow-blue-dark {
      stroke: #7B9BD8;
      stroke-width: 3;
      stroke-linecap: round;
      stroke-linejoin: round;
    }
  </style>

  <!-- Main wavy path -->
  <path d="M121.554 88.9843L121.769 88.5326L121.554 88.9843ZM72.4993 39.4043L72.2935 38.9486L72.4993 39.4043ZM149.999 46.9043L149.861 46.4238L149.608 46.4966L149.525 46.7462L149.999 46.9043ZM185.999 72.7846L186.435 73.0293L185.999 72.7846ZM224.499 49.9043L224.06 49.6661L224.499 49.9043ZM100.999 66.5664L100.551 66.7873L100.554 66.7948L100.999 66.5664ZM104.192 72.7846L103.747 73.013C103.76 73.0376 103.775 73.0612 103.791 73.0834L104.192 72.7846ZM136.833 86.4159L137.17 86.7858L137.266 86.6979L137.308 86.574L136.833 86.4159ZM30.2539 90.3414C30.6715 90.6164 30.6715 90.6164 30.6715 90.6164C30.6715 90.6164 30.6715 90.6164 30.6715 90.6164C30.6715 90.6164 30.6716 90.6163 30.6716 90.6162C30.6717 90.6161 30.6719 90.6159 30.6721 90.6156C30.6725 90.615 30.6731 90.6141 30.6739 90.6128C30.6755 90.6104 30.6779 90.6067 30.6811 90.6018C30.6876 90.592 30.6973 90.5774 30.7102 90.5579C30.7359 90.5189 30.7744 90.4607 30.8251 90.3842C30.9267 90.231 31.0773 90.0043 31.2736 89.7102C31.6662 89.1221 32.2412 88.2647 32.9708 87.1885L32.5569 86.9079L32.143 86.6274C31.412 87.7058 30.8356 88.5651 30.4419 89.155C30.245 89.45 30.0937 89.6776 29.9917 89.8316C29.9406 89.9086 29.9019 89.9672 29.8758 90.0066C29.8628 90.0262 29.853 90.0411 29.8464 90.0511C29.8431 90.0561 29.8406 90.0599 29.839 90.0624C29.8381 90.0637 29.8375 90.0647 29.8371 90.0653C29.8369 90.0656 29.8367 90.0659 29.8366 90.066C29.8365 90.0661 29.8365 90.0662 29.8365 90.0662C29.8364 90.0663 29.8364 90.0663 29.8364 90.0663C29.8364 90.0663 29.8364 90.0663 30.2539 90.3414ZM37.2853 80.0453L37.6949 80.332C39.1503 78.2524 40.7758 75.9594 42.5161 73.5519L42.1109 73.259L41.7057 72.966C39.962 75.3782 38.3336 77.6755 36.8756 79.7586L37.2853 80.0453ZM47.0461 66.5564L47.4459 66.8567C49.0975 64.6573 50.7981 62.4393 52.5115 60.2672L52.1189 59.9576L51.7263 59.6479C50.0073 61.8271 48.3019 64.0515 46.6463 66.2562L47.0461 66.5564ZM57.3771 53.5074L57.7587 53.8304C59.6494 51.597 61.5089 49.5039 63.2877 47.6394L62.926 47.2942L62.5642 46.9491C60.7683 48.8315 58.8954 50.9399 56.9955 53.1843L57.3771 53.5074ZM69.0126 41.6242L69.3203 42.0184C70.572 41.0412 71.7086 40.3099 72.705 39.86L72.4993 39.4043L72.2935 38.9486C71.1969 39.4438 69.99 40.2269 68.7049 41.2301L69.0126 41.6242ZM72.4993 39.4043L72.705 39.86C73.7423 39.3915 74.8061 39.2126 75.89 39.275L75.9187 38.7758L75.9475 38.2767C74.7101 38.2054 73.4845 38.4107 72.2935 38.9486L72.4993 39.4043ZM82.3272 41.4022L82.0362 41.8088C83.7618 43.0438 85.4748 44.6521 87.1254 46.466L87.4952 46.1295L87.865 45.793C86.184 43.9457 84.4186 42.2842 82.6182 40.9956L82.3272 41.4022ZM91.9039 51.5906L91.4998 51.885C92.9231 53.8391 94.2374 55.8234 95.3983 57.6804L95.8223 57.4154L96.2463 57.1503C95.0757 55.2778 93.7482 53.2733 92.3081 51.2962L91.9039 51.5906ZM99.3677 63.4688L98.9293 63.7091C99.4478 64.6548 99.8538 65.4256 100.13 65.9594C100.268 66.2263 100.373 66.434 100.444 66.5745C100.48 66.6448 100.506 66.6983 100.524 66.7341C100.533 66.752 100.54 66.7655 100.544 66.7744C100.547 66.7788 100.548 66.7821 100.549 66.7843C100.55 66.7854 100.55 66.7862 100.55 66.7867C100.551 66.7869 100.551 66.7871 100.551 66.7872C100.551 66.7872 100.551 66.7873 100.551 66.7873C100.551 66.7873 100.551 66.7873 100.551 66.7873C100.551 66.7873 100.551 66.7873 100.999 66.5664C101.448 66.3454 101.448 66.3454 101.448 66.3454C101.448 66.3454 101.448 66.3454 101.448 66.3453C101.448 66.3453 101.448 66.3452 101.448 66.3451C101.448 66.3449 101.447 66.3446 101.447 66.3443C101.447 66.3436 101.446 66.3427 101.446 66.3414C101.445 66.3389 101.443 66.3353 101.44 66.3305C101.436 66.3209 101.429 66.3068 101.419 66.2882C101.401 66.251 101.373 66.1961 101.337 66.1243C101.265 65.9809 101.158 65.7702 101.018 65.5001C100.739 64.9599 100.329 64.1819 99.8062 63.2284L99.3677 63.4688ZM100.999 66.5664L100.554 66.7948L101.353 68.3493L101.797 68.1209L102.242 67.8925L101.444 66.338L100.999 66.5664ZM103.394 71.23L102.949 71.4584L103.747 73.013L104.192 72.7846L104.637 72.5562L103.839 71.0016L103.394 71.23ZM104.192 72.7846C103.791 73.0834 103.791 73.0834 103.791 73.0835C103.791 73.0835 103.791 73.0836 103.791 73.0836C103.792 73.0837 103.792 73.0838 103.792 73.084C103.792 73.0843 103.792 73.0847 103.793 73.0852C103.793 73.0863 103.795 73.0879 103.796 73.0899C103.799 73.094 103.804 73.1 103.81 73.1078C103.821 73.1235 103.839 73.1467 103.862 73.177C103.908 73.2375 103.975 73.3266 104.064 73.4415C104.24 73.6714 104.5 74.0048 104.831 74.4206C105.494 75.2521 106.447 76.414 107.606 77.7373L107.982 77.4078L108.358 77.0784C107.211 75.7688 106.269 74.619 105.613 73.7972C105.286 73.3863 105.03 73.0575 104.856 72.8319C104.77 72.7191 104.703 72.6321 104.659 72.5735C104.637 72.5442 104.62 72.5221 104.609 72.5073C104.604 72.5 104.6 72.4944 104.597 72.4908C104.596 72.489 104.595 72.4877 104.594 72.4869C104.594 72.4864 104.593 72.4861 104.593 72.4859C104.593 72.4858 104.593 72.4858 104.593 72.4858C104.593 72.4857 104.593 72.4857 104.593 72.4857C104.593 72.4857 104.593 72.4857 104.192 72.7846ZM116.537 85.7526L116.227 86.145C117.902 87.4677 119.635 88.6264 121.34 89.436L121.554 88.9843L121.769 88.5326C120.154 87.766 118.486 86.6549 116.847 85.3602L116.537 85.7526ZM121.554 88.9843L121.34 89.436C122.733 90.0972 124.099 90.4711 125.409 90.6323L125.47 90.136L125.531 89.6398C124.325 89.4914 123.063 89.147 121.769 88.5326L121.554 88.9843ZM133.41 88.6431L133.631 89.0916C134.724 88.5533 135.603 87.9809 136.211 87.5422C136.515 87.3227 136.752 87.1361 136.914 87.0033C136.995 86.9368 137.058 86.8838 137.101 86.8467C137.122 86.8281 137.138 86.8136 137.15 86.8033C137.156 86.7982 137.16 86.7941 137.164 86.7912C137.165 86.7897 137.167 86.7886 137.168 86.7877C137.168 86.7872 137.168 86.7868 137.169 86.7865C137.169 86.7864 137.169 86.7862 137.169 86.7861C137.169 86.7861 137.169 86.786 137.169 86.786C137.17 86.7859 137.17 86.7858 136.833 86.4159C136.497 86.046 136.497 86.0459 136.497 86.0458C136.497 86.0458 136.497 86.0458 136.497 86.0458C136.497 86.0457 136.497 86.0457 136.497 86.0457C136.497 86.0457 136.497 86.0457 136.497 86.0458C136.497 86.0461 136.496 86.0466 136.495 86.0474C136.493 86.049 136.49 86.0517 136.486 86.0555C136.478 86.063 136.464 86.0748 136.446 86.0906C136.41 86.1221 136.354 86.1694 136.28 86.23C136.132 86.3511 135.912 86.525 135.626 86.7314C135.054 87.1445 134.222 87.6857 133.189 88.1945L133.41 88.6431ZM136.833 86.4159L137.308 86.574L138.405 83.2813L137.93 83.1233L137.456 82.9652L136.359 86.2578L136.833 86.4159ZM140.125 76.538L140.599 76.6961L142.793 70.1108L142.319 69.9527L141.845 69.7947L139.65 76.3799L140.125 76.538ZM144.513 63.3675L144.988 63.5255L147.182 56.9403L146.708 56.7822L146.233 56.6241L144.039 63.2094L144.513 63.3675ZM148.902 50.1969L149.376 50.355L150.474 47.0624L149.999 46.9043L149.525 46.7462L148.428 50.0389L148.902 50.1969ZM149.999 46.9043L150.138 47.3848C151.353 47.0348 152.609 47.3339 153.947 48.2033L154.219 47.784L154.492 47.3648C153.003 46.3972 151.445 45.9675 149.861 46.4238L149.999 46.9043ZM160.196 54.328L159.785 54.6134C161.366 56.8866 162.954 59.4777 164.554 62.1046L164.981 61.8445L165.408 61.5843C163.81 58.9613 162.207 56.3445 160.606 54.0425L160.196 54.328ZM169.723 69.3938L169.309 69.6733C171.212 72.4957 173.145 74.9825 175.103 76.5983L175.421 76.2126L175.739 75.827C173.898 74.3076 172.031 71.922 170.138 69.1143L169.723 69.3938ZM183.349 76.3822L183.694 76.7441C184.625 75.8563 185.537 74.6294 186.435 73.0293L185.999 72.7846L185.563 72.5399C184.697 74.0833 183.842 75.2215 183.004 76.0203L183.349 76.3822ZM185.999 72.7846L186.435 73.0293C187.113 71.821 187.782 70.7331 188.441 69.7554L188.027 69.4759L187.612 69.1965C186.936 70.1991 186.253 71.3104 185.563 72.5399L185.999 72.7846ZM193.147 63.7168L193.454 64.1117C195.947 62.1751 198.226 61.6724 200.265 61.8511L200.308 61.353L200.352 60.8549C198.05 60.6531 195.523 61.2383 192.84 63.3219L193.147 63.7168ZM207.438 64.184L207.186 64.616C207.935 65.0525 208.646 65.4586 209.284 65.7104C209.91 65.9578 210.573 66.1019 211.177 65.8715L210.999 65.4043L210.821 64.9371C210.579 65.0296 210.216 65.0037 209.651 64.7803C209.097 64.5613 208.451 64.1958 207.689 63.752L207.438 64.184ZM210.999 65.4043L211.177 65.8715C212.473 65.3776 213.991 64.3002 215.589 62.7996L215.247 62.4351L214.904 62.0706C213.344 63.5361 211.938 64.5113 210.821 64.9371L210.999 65.4043ZM221.825 54.3777L222.243 54.6524C223.171 53.2406 224.078 51.7309 224.939 50.1425L224.499 49.9043L224.06 49.6661C223.213 51.2293 222.32 52.7147 221.407 54.103L221.825 54.3777ZM224.499 49.9043L224.939 50.1425C225.433 49.2302 225.98 48.2204 226.562 47.1463L226.123 46.9081L225.683 46.67C225.101 47.744 224.554 48.7538 224.06 49.6661L224.499 49.9043ZM229.375 40.9049L229.814 41.143C230.918 39.1056 232.031 37.0503 233.065 35.1422L232.625 34.904L232.185 34.6659C231.152 36.5741 230.039 38.6293 228.935 40.6667L229.375 40.9049ZM235.878 28.8978L236.318 29.1359C236.816 28.215 237.222 27.4666 237.502 26.9485C237.643 26.6894 237.752 26.4879 237.826 26.3511C237.863 26.2828 237.891 26.2306 237.91 26.1955C237.92 26.1779 237.927 26.1647 237.932 26.1558C237.934 26.1513 237.936 26.148 237.937 26.1458C237.938 26.1446 237.938 26.1438 237.938 26.1432C237.939 26.143 237.939 26.1428 237.939 26.1426C237.939 26.1425 237.939 26.1425 237.939 26.1425C237.939 26.1424 237.939 26.1424 237.939 26.1424C237.939 26.1424 237.939 26.1424 237.499 25.9043C237.06 25.6662 237.06 25.6662 237.06 25.6662C237.06 25.6662 237.06 25.6662 237.06 25.6662C237.06 25.6663 237.059 25.6663 237.059 25.6664C237.059 25.6665 237.059 25.6668 237.059 25.667C237.059 25.6676 237.058 25.6684 237.058 25.6696C237.057 25.6718 237.055 25.6751 237.052 25.6796C237.048 25.6885 237.04 25.7017 237.031 25.7193C237.012 25.7544 236.984 25.8065 236.947 25.8749C236.872 26.0117 236.763 26.2132 236.623 26.4723C236.342 26.9904 235.937 27.7388 235.438 28.6597L235.878 28.8978Z" class="graphic-path"/>

  <!-- Dots along path -->
  <circle cx="77.1605" cy="39.5656" r="3.16127" class="graphic-dot-blue-dark"/>
  <circle cx="151.499" cy="46.9043" r="4.5" class="graphic-dot-green"/>
  <circle cx="126.999" cy="90.4043" r="3" class="graphic-dot-blue"/>
  <ellipse cx="218.148" cy="59.5535" rx="4.14916" ry="4.14916" class="graphic-dot-beige"/>

  <!-- Beige arrow (upper right) -->
  <path d="M232.999 23.083L243.092 18.4668" class="graphic-arrow-beige"/>
  <path d="M241.147 29.3301L243.099 18.4047" class="graphic-arrow-beige"/>

  <!-- Blue dark arrow (lower left) -->
  <path d="M25.3619 86.6602L24.7017 97.739" class="graphic-arrow-blue-dark"/>
  <path d="M34.1296 92.002L24.6464 97.7677" class="graphic-arrow-blue-dark"/>

  <!-- Blue dark arrow (middle right) -->
  <path d="M175.999 83.083L186.092 78.4668" class="graphic-arrow-blue-dark"/>
  <path d="M181.999 86.9034L179.499 73.4043" class="graphic-arrow-blue-dark"/>
</svg>
