<svg viewBox="0 0 271 132" xmlns="http://www.w3.org/2000/svg">
  <style>
    .graphic-fill-blue {
      fill: #9FAFCE;
    }

    .graphic-fill-green {
      fill: #AEBBAE;
    }

    .graphic-shadow {
      fill: black;
    }
  </style>

  <!-- Cloud shadow -->
  <path d="M169.741 18.2328C169.741 14.1655 166.327 10.8667 162.116 10.8667C161.088 10.8667 160.109 11.0661 159.215 11.422C157.99 8.93662 155.372 7.21191 152.334 7.21191C148.253 7.21191 144.928 10.3172 144.73 14.2124C140.312 14.5644 136.838 18.1351 136.838 22.4938C136.838 23.5927 137.063 24.6389 137.463 25.599H162.272V25.5912C166.408 25.513 169.741 22.2513 169.741 18.2328Z" class="graphic-shadow"/>

  <!-- Cloud -->
  <path d="M169.741 17.2328C169.741 13.1655 166.327 9.86665 162.116 9.86665C161.088 9.86665 160.109 10.0661 159.215 10.422C157.99 7.93662 155.372 6.21191 152.334 6.21191C148.253 6.21191 144.928 9.31717 144.73 13.2124C140.312 13.5644 136.838 17.1351 136.838 21.4938C136.838 22.5927 137.063 23.6389 137.463 24.599H162.272V24.5912C166.408 24.513 169.741 21.2513 169.741 17.2328Z" class="graphic-fill-blue"/>

  <!-- Left person head shadow -->
  <path d="M111.677 42.5344C111.677 47.4828 113.503 49.7925 117.97 49.7925C122.387 49.7925 124.257 47.7346 124.257 42.5344C124.257 37.4354 122.173 35.2764 117.97 35.2764C113.21 35.2764 111.677 37.5186 111.677 42.5344Z" class="graphic-shadow"/>

  <!-- Left person head -->
  <path d="M111.677 41.5344C111.677 46.4828 113.503 48.7925 117.97 48.7925C122.387 48.7925 124.257 46.7346 124.257 41.5344C124.257 36.4354 122.173 34.2764 117.97 34.2764C113.21 34.2764 111.677 36.5186 111.677 41.5344Z" class="graphic-fill-green"/>

  <!-- Right person head shadow -->
  <path d="M147.483 42.5344C147.483 47.4828 149.31 49.7925 153.777 49.7925C158.197 49.7925 160.064 47.7346 160.064 42.5344C160.064 37.4354 157.981 35.2764 153.777 35.2764C149.019 35.2764 147.483 37.5186 147.483 42.5344Z" class="graphic-shadow"/>

  <!-- Right person head -->
  <path d="M147.483 41.5344C147.483 46.4828 149.31 48.7925 153.777 48.7925C158.197 48.7925 160.064 46.7346 160.064 41.5344C160.064 36.4354 157.981 34.2764 153.777 34.2764C149.019 34.2764 147.483 36.5186 147.483 41.5344Z" class="graphic-fill-blue"/>

  <!-- Left person body shadow -->
  <path d="M126.964 63.9737C126.964 63.3952 127.373 62.9265 127.877 62.9265C127.887 62.9265 127.897 62.9345 127.907 62.9345V62.9205H152.322C150.428 55.9417 125.75 55.5986 117.739 55.5986C105.834 55.5986 101.999 61.0896 101.999 73.3479C101.999 80.1393 102.224 84.8065 105.458 87.6746L106.671 66.5885C106.671 66.0101 107.079 65.5414 107.583 65.5414C108.084 65.5414 108.492 66.0101 108.492 66.5885L106.671 106.69C107.563 107.207 108.81 107.624 110.223 107.947L110.804 124.005C110.85 124.859 111.519 125.856 112.289 126.225L114.899 127.172C115.731 127.366 116.41 126.825 116.41 125.972V108.715C116.861 108.731 117.307 108.741 117.739 108.741C118.165 108.741 118.602 108.733 119.05 108.719V125.972C119.05 126.825 119.729 127.366 120.56 127.172L123.171 126.225C123.941 125.856 124.61 124.859 124.655 124.005L125.232 108.003C126.645 107.702 127.893 107.307 128.788 106.81L126.964 63.9737Z" class="graphic-shadow"/>

  <!-- Left person body -->
  <path d="M126.964 62.9737C126.964 62.3952 127.373 61.9265 127.877 61.9265C127.887 61.9265 127.897 61.9345 127.907 61.9345V61.9205H152.322C150.428 54.9417 125.75 54.5986 117.739 54.5986C105.834 54.5986 101.999 60.0896 101.999 72.3479C101.999 79.1393 102.224 83.8065 105.458 86.6746L106.671 65.5885C106.671 65.0101 107.079 64.5414 107.583 64.5414C108.084 64.5414 108.492 65.0101 108.492 65.5885L106.671 105.69C107.563 106.207 108.81 106.624 110.223 106.947L110.804 123.005C110.85 123.859 111.519 124.856 112.289 125.225L114.899 126.172C115.731 126.366 116.41 125.825 116.41 124.972V107.715C116.861 107.731 117.307 107.741 117.739 107.741C118.165 107.741 118.602 107.733 119.05 107.719V124.972C119.05 125.825 119.729 126.366 120.56 126.172L123.171 125.225C123.941 124.856 124.61 123.859 124.655 123.005L125.232 107.003C126.645 106.702 127.893 106.307 128.788 105.81L126.964 62.9737Z" class="graphic-fill-green"/>

  <!-- Right person body shadow -->
  <path d="M153.781 55.5986C141.7 55.5986 137.806 61.0887 137.806 73.3452C137.806 80.1356 139.268 84.8898 142.548 87.7595V66.5868C142.548 66.0085 142.962 65.5398 143.473 65.5398C143.984 65.5398 144.398 66.0085 144.398 66.5868V89.0398C144.433 89.0617 145.931 123.909 145.931 123.909C145.986 124.81 146.719 125.835 147.559 126.19L150.652 127.177C151.549 127.363 152.28 126.776 152.28 125.873V93.6464C152.28 92.743 152.95 92.0052 153.772 92.0052C154.595 92.0052 155.267 92.743 155.267 93.6464V125.873C155.267 126.776 156 127.363 156.893 127.177L159.985 126.19C160.826 125.835 161.561 124.81 161.613 123.909C161.613 123.909 163.112 89.1813 163.148 89.1614V66.7104C163.148 66.1321 163.563 65.6635 164.074 65.6635C164.583 65.6635 164.997 66.1321 164.997 66.7104V87.919C168.257 85.147 169.741 80.4486 169.741 73.3452C169.741 60.8793 164.453 55.5986 153.781 55.5986Z" class="graphic-shadow"/>

  <!-- Right person body -->
  <path d="M153.781 54.5986C141.7 54.5986 137.806 60.0887 137.806 72.3452C137.806 79.1356 139.268 83.8898 142.548 86.7595V65.5868C142.548 65.0085 142.962 64.5398 143.473 64.5398C143.984 64.5398 144.398 65.0085 144.398 65.5868V88.0398C144.433 88.0617 145.931 122.909 145.931 122.909C145.986 123.81 146.719 124.835 147.559 125.19L150.652 126.177C151.549 126.363 152.28 125.776 152.28 124.873V92.6464C152.28 91.743 152.95 91.0052 153.772 91.0052C154.595 91.0052 155.267 91.743 155.267 92.6464V124.873C155.267 125.776 156 126.363 156.893 126.177L159.985 125.19C160.826 124.835 161.561 123.81 161.613 122.909C161.613 122.909 163.112 88.1813 163.148 88.1614V65.7104C163.148 65.1321 163.563 64.6635 164.074 64.6635C164.583 64.6635 164.997 65.1321 164.997 65.7104V86.919C168.257 84.147 169.741 79.4486 169.741 72.3452C169.741 59.8793 164.453 54.5986 153.781 54.5986Z" class="graphic-fill-blue"/>
</svg>
