<svg width="309" height="11" viewBox="0 0 309 11" fill="none" xmlns="http://www.w3.org/2000/svg">
<path d="M6.92035 0.342896C13.338 -0.494132 17.8001 0.443718 23.7606 0.607312C32.4052 0.839976 42.7049 0.805649 52.6929 0.76405C57.984 0.741709 63.1394 0.717213 67.8808 0.730268C78.0678 0.758511 88.4966 0.8298 98.6391 0.887215C99.1602 0.890059 99.4721 0.98609 99.7091 0.987474C101.97 1.00038 105.643 0.916093 107.882 0.930204C112.495 0.959686 120.613 0.949436 124.844 1.04136C126.654 1.08032 128.505 1.09706 129.204 1.32548C129.863 1.33741 130.223 1.13149 130.395 1.12036C130.397 1.12056 130.399 1.12076 130.401 1.12097C130.956 1.08644 132.358 1.23157 132.668 1.22271C132.715 1.22132 132.429 1.07192 133.181 1.11735C133.248 1.12125 133.186 1.22271 133.82 1.22443C133.983 1.22486 136.092 1.07013 136.696 1.06087C138.706 1.03074 143.504 1.15473 145.906 1.15341C146.274 1.15353 146.485 1.09423 146.873 1.0933C147.074 1.09275 147.374 1.15729 147.436 1.15696C147.706 1.15475 148.887 0.862467 148.463 1.43987C149.696 1.40363 149.332 1.21258 149.36 1.08859C150.698 1.07109 151.343 1.34326 151.692 1.05509C158.278 1.09173 164.842 1.12779 171.433 1.16315C171.435 1.11616 171.437 1.06916 171.439 1.02217C173.371 1.21004 174.042 0.892563 175.151 1.16524C175.836 1.10525 176.519 1.04526 177.201 0.985261C194.761 1.1704 212.21 0.946729 229.606 0.931378C230.337 0.930683 230.522 1.03052 231.712 1.03002C233.027 1.0294 234.963 0.911091 236.676 0.910407C238.118 0.909685 240.275 0.990863 241.891 1.01064C241.997 1.01185 242.102 1.01283 242.204 1.01354C242.602 1.01613 242.887 0.952364 242.932 0.95265C243.192 0.954732 243.206 1.05498 243.457 1.05744C243.758 1.06015 244.119 0.985312 244.461 0.989347C245.728 1.00389 247.126 0.975842 247.302 0.977262C248.098 0.985343 248.267 1.08308 248.333 1.08405C249.203 1.09441 248.876 1.0065 249.091 1.01123C250.187 1.03627 251.015 1.25561 252.561 1.04026C252.52 1.12234 252.478 1.20441 252.436 1.28649C253.611 1.33009 252.834 1.11391 253.074 1.07394C253.157 1.05921 255.711 1.07995 255.913 1.08327C256.597 1.09568 256.612 1.20458 256.671 1.20591C256.812 1.2091 258.51 1.0811 259.414 1.17365C260.457 1.28344 259.231 1.50851 259.49 1.54941C259.537 1.55634 260.619 1.53054 260.759 1.59949C260.919 1.67368 259.991 1.67478 260.003 1.70604C260.02 1.72751 261.549 1.87689 261.255 1.98131C261.033 2.08591 258.924 1.95873 258.45 2.00878C258.374 2.01707 258.518 2.14488 258.45 2.14976C258.19 2.16801 253.266 2.18372 253.079 2.16276C253.331 2.10383 253.581 2.04488 253.83 1.98594C253.499 1.98078 253.165 1.97561 252.828 1.97044C253.307 1.92262 253.78 1.87477 254.246 1.82692C253.563 1.34776 251.402 1.83972 251.303 2.07985C251.266 2.1909 252.601 2.47362 251.358 2.64247C251.548 2.67056 251.737 2.69865 251.925 2.72674C252.313 2.67913 252.697 2.63152 253.077 2.5839C252.824 2.55495 252.569 2.526 252.312 2.49705C252.407 2.46348 252.501 2.42992 252.595 2.39635C253.32 2.34129 253.986 2.2863 254.732 2.23106C255.111 2.25484 255.032 2.35352 255.291 2.37196C258.474 2.60405 256.371 2.30402 258.458 2.34261C258.762 2.39469 259.063 2.44677 259.361 2.49884C259.254 2.28036 260.187 2.41518 261.261 2.31759C261.132 2.38877 261.004 2.45995 260.874 2.53113C262.512 2.48884 265.734 2.83468 264.864 2.44699C265.244 2.47904 265.618 2.51107 265.987 2.5431C266.298 2.47809 266.606 2.41307 266.91 2.34803C267.32 2.35381 267.768 2.35939 268.206 2.36496C268.208 2.39954 268.21 2.43412 268.213 2.46869C267.87 2.47027 267.488 2.47197 267.17 2.47338C267.412 2.57784 267.689 2.68215 267.952 2.7865C268.211 2.76797 268.468 2.74944 268.722 2.73091C267.649 2.63558 269.066 2.46706 269.393 2.32651C270.248 2.27148 270.871 2.44923 271.165 2.45602C271.318 2.45927 272.939 2.13281 272.305 2.48603C273.146 2.43943 274.05 2.39221 274.863 2.34516C275.196 2.37017 275.552 2.39499 275.886 2.41987C275.159 2.58727 277.267 2.77128 275.715 2.84812C274.502 2.90584 274.291 2.75434 273.725 2.7584C273.233 2.76172 272.937 2.86592 272.414 2.87306C268.799 2.91944 265.826 2.91143 262.409 2.87681C261.716 2.86985 261.086 2.92208 260.647 2.91631C260.14 2.90966 260.777 2.77901 260.128 2.81222C259.443 2.84731 259.289 2.95284 259.105 2.95546C258.991 2.95697 258.626 2.86339 258.285 2.8643C256.944 2.86794 254.953 2.96411 254.742 2.96405C254.507 2.96369 250.713 2.88649 250.483 2.87128C250.382 2.86302 250.585 2.51339 249.757 2.88734C249.499 2.89476 249.238 2.90217 248.976 2.90958C249.018 2.83972 249.061 2.76986 249.103 2.7C247.543 2.96743 248.085 2.81846 246.543 2.84193C245.199 2.86304 243.632 2.86898 241.893 2.86975C239.172 2.87081 236.116 2.85743 233.654 2.87547C232.763 2.88207 232.401 2.96601 231.383 2.97305C230.433 2.97931 227.877 2.73234 228.432 3.07717C226.222 2.78011 225.94 3.29597 224.849 2.97525C224.718 3.02214 224.587 3.06904 224.456 3.11594C223.282 2.91607 222.908 3.09282 221.617 3.11807C221.072 3.12902 221.702 2.91503 220.599 3.15357C220.388 3.13601 220.177 3.11846 219.965 3.1009C220.014 3.04919 220.064 2.99748 220.113 2.94578C218.881 2.98887 218.797 2.96198 218.94 3.15529C218.342 3.12048 217.74 3.08566 217.136 3.05083C217.06 3.11435 216.985 3.17787 216.91 3.24139C217.217 3.3628 230.804 3.16988 232.655 3.10907C234.912 3.25048 239.356 3.06542 241.125 3.09694C241.425 3.10238 241.653 3.13158 241.894 3.16449C242.236 3.20864 242.606 3.25947 243.211 3.26844C244.27 3.28409 245.561 3.1516 246.098 3.14602C247.998 3.12725 256.746 3.13736 250.753 3.32849C250.929 3.39812 251.105 3.46775 251.28 3.53738C253.675 3.29355 252.78 3.44248 254.746 3.46268C255.606 3.47126 257.545 3.31009 257.433 3.62822C255.947 3.69124 254.224 3.59366 252.944 3.60101C252.818 3.60179 251.23 3.7503 250.389 3.7125C249.673 3.6779 250.177 3.37395 248.594 3.71715C247.41 3.38698 246.7 3.68971 246.378 3.72231C245.844 3.7788 245.792 3.61485 245.259 3.59663C244.678 3.57648 244.272 3.686 244.192 3.68684C243.853 3.6884 242.914 3.69307 241.895 3.69306C240.565 3.69293 239.086 3.68377 238.973 3.64549C239.143 3.61617 239.313 3.58686 239.483 3.55754C238.384 3.51216 238.611 3.67958 238.321 3.70004C238.104 3.6997 237.886 3.69937 237.667 3.69903C237.753 3.66413 237.84 3.62923 237.926 3.59434C236.604 3.60337 237.614 3.72305 235.798 3.72203C234.647 3.72125 233.427 3.58975 233.312 3.59969C233.278 3.60254 233.65 3.69169 233.168 3.70421C232.349 3.72482 231.035 3.72385 230.877 3.60219C230.496 3.61981 230.528 3.73897 230.478 3.74174C230.273 3.75362 226.367 3.79768 225.716 3.80521C223.83 3.82614 221.648 3.80234 219.617 3.82377C219.405 3.82592 219.54 3.74933 219.328 3.75194C218.989 3.75609 217.223 3.87724 216.955 3.88587C216.272 3.90707 214.594 3.8604 214.316 3.89532C214.278 3.90027 214.842 4.00335 214.182 4.03577C213.449 4.07162 213.843 3.93236 213.804 3.93099C212.31 3.88423 211.346 3.98131 210.321 4.00047C209.994 4.00661 209.388 3.90223 208.923 3.93335C208.87 3.93689 208.976 4.03355 208.923 4.03833C208.221 4.08936 207.56 3.91015 207.254 3.89865C206.504 3.87054 206.913 4.00282 206.874 4.00378C206.374 4.00821 205.699 3.96069 204.933 3.96729C201.588 3.99667 198.785 4.00556 195.219 3.99751C194.768 3.99655 194.231 3.90323 194.161 3.90312C193.947 3.90387 194.009 4.01365 193.389 4.01129C192.067 4.0059 190.894 4.01139 189.602 4.00944C189.343 4.00903 189.233 3.90732 189.035 3.90515C188.375 3.8989 186.1 4.16548 186.064 3.83404C184.758 4.12755 183.886 3.87472 182.827 3.87758C180.305 3.88404 176.403 3.94378 173.888 3.90556C173.359 3.89738 173.113 3.81244 172.821 3.80784C172.3 3.79939 169.301 3.84654 169.143 3.83313C168.834 3.80738 169.02 3.43343 167.431 3.75908C166.497 3.78217 166.61 3.62869 166.418 3.62039C164.925 3.55854 163.467 3.90084 163.74 3.58702C161.996 3.67196 160.862 3.84518 160.15 3.55157C160.159 3.69479 159.341 3.78053 158.353 3.72575C159.366 3.48538 159.233 3.33162 161.688 3.37609C161.726 3.37681 161.653 3.48036 161.691 3.48107C162.041 3.48813 162.771 3.43598 163.367 3.4417C163.963 3.44744 163.632 3.51818 163.87 3.51686C164.089 3.51548 164.081 3.41638 164.397 3.41502C165.421 3.4113 166.325 3.38411 166.908 3.38243C167.276 3.38146 167.689 3.46859 167.974 3.46863C169.08 3.46806 171.416 3.4003 172.812 3.4099C173.104 3.41214 172.978 3.50985 173.62 3.51798C173.695 3.51893 173.969 3.41707 174.531 3.39597C175.092 3.37487 175.527 3.42549 175.887 3.41495C176.188 3.40616 176.062 3.31565 176.679 3.31C177.188 3.30549 183.013 3.37064 183.328 3.38502C183.783 3.40581 183.998 3.53292 184.275 3.51741C184.323 3.51408 184.406 3.3913 184.574 3.3825C187.36 3.23729 193.54 3.40395 196.73 3.4021C203.402 3.39878 209.541 3.32426 216.248 3.29183C216.369 3.2704 216.491 3.24896 216.613 3.22753C215.921 3.22712 215.266 3.22669 214.587 3.22624C214.582 3.16847 214.578 3.11069 214.574 3.05292C213.66 3.04427 213.78 3.18084 213.806 3.26329C213.466 3.22848 213.126 3.19366 212.785 3.15884C212.497 3.36035 210.194 3.22756 209.051 3.22836C208.296 3.22869 207.391 3.30582 206.989 3.30002C206.139 3.28804 206.16 3.16378 206.094 3.16183C205.986 3.15905 204.771 3.26909 203.939 3.26515C202.687 3.25954 202.553 3.06882 200.825 3.23136C198.584 3.13304 196.177 3.18344 193.774 3.20009C194.232 3.02367 192.075 3.19097 191.127 3.18833C185.233 3.17199 178.038 3.09682 172.069 3.02655C171.306 3.01769 170.728 2.91375 170.302 2.91715C170.071 2.91888 169.97 3.04134 169.649 3.02511C169.593 3.02198 169.553 2.90746 168.955 2.89015C167.459 2.84667 163.765 3.03723 162.825 2.81724C157.734 2.85031 152.653 2.88301 147.566 2.91537C147.439 2.86854 147.311 2.8217 147.183 2.77487C146.216 3.0137 142.396 2.87187 140.536 2.8824C137.252 2.90124 133.077 2.97381 130.2 2.98056C129.576 2.98203 129.066 2.91395 128.476 2.91505C128.223 2.91563 127.907 3.00343 127.644 3.00375C124.66 3.009 120.662 2.9163 117.654 2.91669C110.858 2.91739 104.472 2.89991 97.5737 2.8987C82.5577 2.89643 67.5577 2.9402 52.6901 2.94641C44.4985 2.94949 36.4477 2.9417 28.3309 2.90636C28.027 2.90501 28.0427 2.80392 27.8094 2.80272C26.3841 2.79482 23.2347 2.87089 21.6573 2.86212C20.3792 2.85534 18.3587 2.69492 17.9429 2.84932C22.4287 3.09842 27.2032 3.0913 31.8864 3.16618C32.2206 3.17146 32.2633 3.26768 32.3046 3.26952C33.0707 3.30436 32.602 3.1711 33.7034 3.16715C34.0241 3.1658 37.5034 3.47878 37.0681 3.1725C37.8383 3.29616 43.6039 3.36638 44.7264 3.32742C45.0553 3.31557 44.8226 3.22472 44.8879 3.22023C45.172 3.20066 45.3008 3.32564 45.5571 3.32924C46.2331 3.33798 48.0193 3.23926 48.3664 3.24043C49.1027 3.24255 51.3942 3.34721 52.4462 3.32461C52.5368 3.32266 52.6174 3.31971 52.6896 3.31597C53.3413 3.28024 53.269 3.17233 53.9864 3.1624C54.6154 3.15409 53.9241 3.26288 55.3396 3.29775C56.0528 3.31485 58.5107 3.23936 59.0926 3.24001C59.685 3.2407 60.3486 3.31948 61.1827 3.31444C62.4156 3.3074 64.9053 3.26671 66.1474 3.24301C66.2203 3.24168 66.398 3.14046 66.5781 3.14276C66.9515 3.14741 66.8392 3.27253 67.1219 3.28555C67.3768 3.29853 72.1919 3.28815 73.0135 3.29032C73.5678 3.29157 73.9532 3.21734 74.2619 3.21829C74.5044 3.21923 74.5302 3.32358 74.7781 3.32499C74.8549 3.32506 75.5087 3.23508 76.1677 3.23782C76.7949 3.24054 79.1522 3.32889 79.4135 3.32994C79.5895 3.33045 79.3962 3.25614 79.9172 3.25837C80.3924 3.26062 80.7059 3.35716 80.9782 3.35881C81.6102 3.36251 82.3204 3.28106 82.9982 3.28125C84.9385 3.28189 84.8172 3.40102 84.9373 3.405C85.2552 3.41604 85.3832 3.30692 85.4878 3.30476C85.9289 3.29598 87.017 3.27672 87.4151 3.27281C87.9103 3.26794 88.1204 3.37192 88.649 3.3727C89.0447 3.37296 89.8386 3.27241 90.7185 3.26818C92.6999 3.25814 95.151 3.24092 97.0874 3.24623C97.6728 3.24772 97.7632 3.34253 97.9425 3.34513C98.8855 3.35882 99.4169 3.25327 99.6874 3.25485C101.641 3.26577 105.028 3.43431 106.834 3.44958C107.581 3.45572 110.729 3.381 112.537 3.39583C112.743 3.39738 112.55 3.47155 112.78 3.46007C113.329 3.43253 113.278 3.28124 113.557 3.28598C113.691 3.28874 113.999 3.3742 114.39 3.38291C116.399 3.42814 117.792 3.36262 118.716 3.36772C127.575 3.41673 136.608 3.46039 144.881 3.4766C145.803 3.47832 146.947 3.38871 148.34 3.47651C148.382 3.52352 148.425 3.57053 148.468 3.61754C148.517 3.57137 148.566 3.5252 148.614 3.47904C150.192 3.45451 150.788 3.39524 152.398 3.45451C152.536 3.45948 152.96 3.67413 153.221 3.40773C154.817 3.60119 153.942 3.40636 155.127 3.3887C156.312 3.37103 157.463 3.4308 158.61 3.44444C159.239 3.54004 156.599 3.75963 156.427 3.75888C156.15 3.75796 155.861 3.6254 155.594 3.6183C154.803 3.59704 154.037 3.70197 153.859 3.58368C152.837 3.70843 154.11 3.6463 153.982 3.75888C153.299 3.71211 152.618 3.66534 151.936 3.61856C151.588 4.00149 147.818 3.50087 148.08 3.79258C147.78 3.7341 147.48 3.67561 147.18 3.61713C145.865 3.98258 145.091 3.72469 143.337 3.61522C143.464 3.66205 143.59 3.70889 143.717 3.75573C143.681 3.77525 142.133 3.84951 142.686 3.65038C141.099 3.91244 141.169 3.4756 139.744 3.79088C138.898 3.83106 139.406 3.64782 137.892 3.65038C136.995 3.65179 135.883 3.74724 134.882 3.7535C134.652 3.75464 134.552 3.64838 134.347 3.6483C134.142 3.64825 134.042 3.75235 133.794 3.75486C133.278 3.76028 132.611 3.68687 132.289 3.69377C132.001 3.69966 131.589 3.79132 130.895 3.80544C128.474 3.85537 129.206 3.72454 128.824 3.67996C128.414 3.63257 128.119 3.80525 127.302 3.78481C127.22 3.78266 127.433 3.67506 127.166 3.67916C126.949 3.68236 126.84 3.79938 126.124 3.82085C125.836 3.82953 121.426 3.85232 120.761 3.85406C119.724 3.85667 117.425 3.75629 116.362 3.75638C115.952 3.75616 115.515 3.84989 115.08 3.84901C113.642 3.84605 111.303 3.83667 109.481 3.83092C107.853 3.82565 104.915 3.61623 104.022 3.80291C101.714 3.82563 101.149 3.66516 100.971 3.66285C100.495 3.65653 100.275 3.76241 99.6764 3.76691C91.9562 3.82306 81.7849 3.7445 74.476 3.74583C67.2194 3.74756 59.9358 3.75531 52.6891 3.75763C42.8929 3.76037 33.2219 3.7545 23.4516 3.70645C23.4058 3.75334 23.3601 3.80022 23.3145 3.8471C25.3668 3.88244 27.6769 3.96916 29.681 3.99188C32.2955 4.02191 36.3012 3.83333 38.1968 4.15764C37.4212 4.18453 36.1448 4.05916 36.1571 4.22436C37.5934 4.23866 38.9331 4.25268 40.403 4.26682C40.3597 4.19046 40.3164 4.1141 40.2732 4.03774C41.7033 4.01784 43.2429 4.03682 44.7184 4.02807C44.9692 4.02664 44.7915 3.95712 45.0104 3.95709C45.2558 3.95719 45.0893 4.02744 45.1353 4.02807C45.7568 4.02968 45.9491 3.95864 46.0254 3.95978C46.223 3.96288 46.0678 4.03054 46.6401 4.05037C47.7038 4.08741 48.4917 3.90816 48.234 4.20824C48.5783 4.20872 48.9023 4.20916 49.24 4.20962C49.327 4.12795 49.4141 4.04629 49.5014 3.96462C50.9296 4.19393 51.8605 3.99127 52.6888 3.99342C53.0427 3.99436 53.3781 4.03718 53.7339 4.18073C54.111 4.11102 54.4909 4.0413 54.8734 3.97159C55.0888 4.05364 55.3051 4.1357 55.5222 4.21775C55.5646 4.14761 55.6071 4.07748 55.6496 4.00734C57.7923 4.06173 59.8609 3.97989 61.9036 3.99029C63.2712 3.99746 63.5822 4.02551 64.8015 4.02157C67.5285 4.01253 64.8112 4.14889 67.0944 4.30172C66.9749 4.21554 66.8557 4.12936 66.7366 4.04317C67.1199 4.01205 67.4872 3.9809 67.8531 3.94975C68.1085 4.0202 68.3646 4.09066 68.6215 4.16111C69.7622 3.79823 70.5138 4.09286 70.671 4.09302C70.7984 4.09251 71.235 3.87379 72.6159 4.06078C72.0607 3.76059 73.6382 4.06002 73.7675 4.06191C73.8868 4.06324 75.4401 3.99784 76.0793 4.00126C76.5756 4.00386 77.667 4.06939 78.3993 4.0669C79.0461 4.06469 78.9814 3.9629 79.0285 3.96189C79.8279 3.95416 79.3265 4.03275 79.9059 4.03715C80.486 4.04154 80.939 3.95526 81.065 3.96312C81.1284 3.9673 80.9163 4.06187 81.2066 4.07128C81.9798 4.09693 83.4248 4.01523 84.2979 4.01844C84.6103 4.01948 85.0049 4.1002 85.3546 4.10296C85.8909 4.10692 86.1428 4.00037 86.4557 4.0038C86.5647 4.00528 87.2594 4.1708 88.1302 4.14618C88.2959 4.14123 88.7827 3.79263 89.4324 4.28762C89.4826 4.21808 89.533 4.14855 89.583 4.07901C92.4532 3.90907 93.273 4.47492 94.5696 3.97429C96.6957 4.03193 95.2359 4.22622 95.4692 4.25634C95.6217 4.27538 96.2986 4.22217 96.3745 4.22529C96.5071 4.23137 96.4842 4.29407 96.6296 4.29383C99.3015 4.28419 98.1169 4.16489 98.9659 4.09048C100.993 3.91335 102.581 4.31098 99.0485 4.18941C99.0484 4.22441 99.0484 4.2594 99.0484 4.29439C99.9131 4.26158 102.13 4.27903 101.39 4.45597C100.797 4.59542 95.5898 4.50034 98.5385 4.69867C99.2092 4.74354 99.5562 4.61248 100.724 4.85954C101.497 4.87345 101.614 4.55454 102.644 4.68328C102.474 4.57188 102.304 4.46048 102.135 4.34908C103.541 4.205 105.29 4.40077 106.384 4.33915C106.755 4.31815 108.098 3.78847 107.785 4.31871C108.405 4.28605 111.323 4.38561 111.872 4.33839C112.004 4.32698 112.172 4.04468 114.078 4.14442C114.211 4.1799 114.343 4.21538 114.474 4.25086C112.738 4.35267 115.798 4.4591 114.967 4.7266C114.69 4.60598 113.308 4.53168 113.086 4.47096C112.707 4.36646 113.836 4.23277 112.397 4.26852C111.49 4.71588 114.083 4.51135 113.687 4.9364C115.574 4.739 115.752 4.92852 116.179 4.93665C117.996 4.96976 119.147 4.92533 120.872 4.97591C121.294 4.88879 118.169 4.76096 117.786 4.79842C119.205 4.48959 116.761 4.4742 115.736 4.65747C115.65 4.56384 115.564 4.4702 115.478 4.37657C116.814 4.42808 118.122 4.45489 119.454 4.37884C119.541 4.41388 119.628 4.44892 119.714 4.48396C119.415 4.53649 119.117 4.58901 118.818 4.64154C119.926 4.72844 119.26 4.45518 120.739 4.69509C120.785 4.58973 120.83 4.48437 120.875 4.37901C122.28 4.41476 123.689 4.4505 125.102 4.48621C125.839 4.27527 128.557 4.35531 128.058 4.62866C129.151 4.64851 127.801 4.50225 128.826 4.43617C129.272 4.40749 130.145 4.39979 130.361 4.47351C130.268 4.734 128.962 4.76573 128.567 4.94445C128.801 5.00232 134.893 4.81906 134.346 5.12347C134.831 5.16031 134.608 5.00325 135.482 4.96344C137.933 4.85247 141.738 5.16416 143.712 4.77559C141.392 4.55813 140.709 4.78731 138.928 4.79578C137.79 4.80138 130.87 4.8353 132.415 4.5605C132.161 4.59538 131.906 4.63026 131.651 4.66514C131.394 4.58303 131.137 4.50093 130.88 4.41882C131.604 4.40735 132.33 4.39588 133.056 4.3844C133.229 4.46626 133.402 4.54813 133.576 4.62999C133.656 4.57163 133.736 4.51328 133.816 4.45493C134.12 4.44346 134.425 4.432 134.729 4.42053C134.643 4.49068 134.558 4.56083 134.472 4.63099C134.942 4.64319 135.411 4.65539 135.881 4.66759C135.754 4.57375 135.628 4.47991 135.501 4.38607C137.714 4.36341 136.965 4.42183 138.193 4.59774C139.11 4.61604 137.56 4.43516 139.502 4.39013C141.759 4.33782 140.277 4.62385 143.198 4.56362C143.24 4.51685 143.282 4.47007 143.324 4.42329C143.966 4.47031 144.608 4.51733 145.25 4.56434C145.166 4.50612 145.081 4.44791 144.996 4.3897C146.322 4.4127 148.149 4.30223 148.588 4.53063C147.245 4.42031 147.257 4.81887 147.607 4.89225C148.328 5.04294 158.984 4.90592 161.047 4.89631C163.696 4.88414 165.676 5.01212 168.097 4.81626C166.456 4.65521 160.716 4.78604 159.623 4.67448C159.516 4.66353 159.546 4.29818 158.853 4.7091C156.622 4.63891 153.944 4.75472 151.155 4.74196C151.24 4.6368 151.326 4.53165 151.411 4.42649C153.126 4.65067 154.715 4.15974 154.492 4.56831C154.834 4.5684 155.175 4.56848 155.517 4.56857C155.517 4.49818 155.517 4.42778 155.517 4.35739C156.032 4.35752 156.548 4.35764 157.062 4.35776C157.062 4.42815 157.062 4.49854 157.062 4.56894C157.489 4.56904 157.915 4.56913 158.341 4.56922C158.385 4.49905 158.43 4.42887 158.474 4.35869C159.745 4.50477 164.109 4.11578 162.192 4.5346C162.792 4.53471 163.392 4.53481 163.992 4.53491C163.99 4.48344 163.988 4.43197 163.986 4.3805C164.243 4.37362 164.501 4.36675 164.759 4.35987C164.674 4.40645 164.589 4.45302 164.504 4.4996C165.686 4.41631 166.798 4.66173 167.579 4.50065C167.066 4.46539 166.554 4.43012 166.044 4.39485C167.019 4.46186 168.839 4.32355 168.999 4.32321C169.492 4.32257 169.753 4.42665 170.287 4.43199C170.769 4.43655 170.702 4.35658 170.792 4.35941C173.39 4.44103 172.396 4.8738 173.612 4.36146C173.742 4.43146 173.872 4.50145 174.002 4.57144C174.174 4.51306 174.347 4.45469 174.52 4.39631C175.291 4.40184 176.06 4.40737 176.828 4.41288C176.572 4.32539 176.316 4.2379 176.059 4.15041C177.212 4.11141 177.747 4.28681 177.859 4.29084C178.173 4.30105 178.317 4.19095 178.415 4.19075C183.105 4.20024 180.26 4.2972 182.607 4.71069C183.443 4.54836 182.597 4.3857 182.478 4.2206C183.591 4.29801 183.937 4.25227 185.106 4.26135C185.41 4.26382 185.737 4.35287 185.928 4.35406C186.091 4.3551 186.62 4.26039 187.022 4.25997C187.694 4.2592 188.586 4.31553 189.5 4.31401C190.264 4.31251 192.566 4.24532 194.21 4.24429C194.905 4.24415 194.744 4.32336 194.923 4.32349C194.998 4.32347 195.538 4.22852 195.982 4.22805C199.58 4.22515 203.301 4.28406 206.966 4.28084C209.523 4.27876 212.148 4.20126 214.709 4.20759C215.252 4.20905 214.964 4.27884 215.201 4.28117C215.282 4.28174 215.382 4.1602 216.216 4.20857C216.524 4.226 216.168 4.31118 216.473 4.31522C216.621 4.31715 216.686 4.21062 217.55 4.1858C219.116 4.14047 219.942 4.28186 220.081 4.27754C220.341 4.26919 220.265 4.18111 220.608 4.1777C222.256 4.16107 223.747 4.145 225.238 4.1364C225.911 4.13243 230.837 4.11014 231.079 4.12566C231.669 4.16029 231.121 4.34489 231.876 4.33786C232.088 4.29106 232.293 4.24426 232.517 4.19744C232.163 4.16241 231.842 4.12733 231.502 4.09228C232.406 4.15055 233.527 4.06565 234.217 4.06805C234.348 4.06864 235.532 4.15077 236.126 4.14095C235.873 4.17583 235.619 4.21071 235.364 4.24559C235.454 4.27499 235.544 4.30438 235.634 4.33378C236.814 4.28769 238.116 4.28724 239.361 4.29193C239.808 4.2935 239.657 4.36537 240.107 4.36722C241.013 4.37123 241.515 4.33818 241.895 4.31638C242.651 4.27515 242.959 4.27406 244.61 4.63707C244.139 4.60961 242.958 4.62097 241.896 4.63329C241.099 4.64304 240.379 4.65342 240.179 4.64544C239.868 4.63284 238.635 4.16181 239.088 4.64628C236.54 4.64742 238.717 4.37716 236.382 4.43848C236.429 4.49763 236.475 4.55678 236.521 4.61593C235.711 4.65421 235.104 4.68482 234.603 4.58092C234.439 4.86833 231.604 4.70336 230.097 4.72413C227.857 4.75376 225.381 4.82591 223.164 4.8399C222.399 4.84466 221.961 4.73241 221.865 4.73283C221.724 4.73374 221.343 4.83259 221.068 4.83349C220.056 4.83704 216.886 4.6724 216.092 4.94653C222.271 4.94292 228.436 4.93813 234.597 4.93125C233.82 4.79773 240.058 4.77707 240.368 4.78312C240.657 4.78873 240.414 4.88352 240.5 4.88913C241.14 4.92876 241.679 4.79105 241.879 4.79076C241.884 4.79075 241.89 4.79083 241.896 4.79099C242.063 4.79519 242.387 4.85424 242.933 4.85207C243.037 4.85171 243.065 4.78372 243.177 4.78334C243.913 4.78223 244.629 4.78206 245.346 4.78053C245.39 4.78112 245.571 4.88008 245.751 4.87995C245.931 4.87965 246.109 4.78018 246.154 4.77979C246.738 4.77952 247.769 4.84221 248.32 4.8419C248.512 4.84151 248.379 4.76907 248.594 4.76937C249.252 4.7699 249.038 4.91261 249.842 4.87443C250.113 4.86155 250.082 4.75281 250.613 4.7661C250.996 4.77555 250.955 4.96955 251.015 4.97647C251.102 4.98482 252.404 4.82899 252.817 4.955C251.906 5.29205 253.813 4.97032 253.716 4.82913C254.204 4.86364 254.731 4.89803 255.25 4.93241C255.427 4.89618 255.602 4.85995 255.777 4.82373C257.803 4.98012 259.117 4.87976 261.087 4.92363C261.156 4.92594 262.921 5.0001 262.828 5.05073C261.793 5.14066 260.776 5.14762 260.138 4.98926C259.082 5.29764 259.01 5.05453 257.303 5.09946C256.734 5.11465 256.691 5.19761 256.625 5.19883C254.34 5.24588 250.711 5.2891 249.23 5.04955C248.811 5.11587 250.316 5.13897 249.732 5.18835C249.436 5.21583 241.594 5.30606 244.098 5.023C243.839 5.03114 243.578 5.03928 243.316 5.04741C243.091 5.27557 242.075 5.26288 241.897 5.08549C241.871 5.05771 241.864 5.02589 241.883 4.99033C241.765 5.04421 241.645 5.09809 241.526 5.15197C241.29 5.19775 241.01 5.22249 240.614 5.23748C239.077 5.29502 229.936 5.21366 229.468 5.25145C229.457 5.31371 229.446 5.37597 229.435 5.43824C233.397 5.50496 237.423 5.34581 241.754 5.51784C241.63 5.45963 241.505 5.40142 241.38 5.34321C241.553 5.3512 241.725 5.35918 241.897 5.36717C243.531 5.43836 245.076 5.50947 246.641 5.58033C245.361 5.65566 243.597 5.7235 241.897 5.73026C241.187 5.73321 240.5 5.72404 239.901 5.69803C239.556 5.68298 239.809 5.60121 239.73 5.59145C239.521 5.56611 239.3 5.70769 238.544 5.72239C237.769 5.73713 235.917 5.6392 235.747 5.6422C235.419 5.6484 234.526 5.81105 233.956 5.80962C233.206 5.80762 233.708 5.70703 233.558 5.70508C232.939 5.69591 232.354 5.7461 231.892 5.73917C231.191 5.7289 229.709 5.5544 229.203 5.8132C229.718 5.82452 230.229 5.83583 230.737 5.84713C227.957 5.94248 225.799 5.61407 223.048 5.87084C222.421 6.18412 224.702 6.14013 222.773 6.27509C223.124 6.27035 223.474 6.26561 223.823 6.26086C223.905 6.19529 223.986 6.12972 224.068 6.06415C224.668 6.11047 225.263 6.15679 225.856 6.20309C225.687 6.14484 225.517 6.08659 225.348 6.02834C227.416 5.98264 229.631 5.9207 230.35 6.23385C230.393 6.15793 230.436 6.082 230.48 6.00607C232.392 6.09653 235.425 5.77148 234.853 6.19435C234.946 6.17187 235.039 6.14939 235.132 6.1269C236.314 6.21185 235.808 6.03782 236.25 6.01757C236.36 6.01192 238.695 6.09918 237.657 6.22582C239.949 6.31873 239.233 5.92496 239.858 5.90682C240.463 5.98813 241.262 5.9829 241.898 5.97248C242.829 5.95802 243.44 5.9337 242.798 6.11383C243.017 6.1251 243.235 6.13637 243.452 6.14763C244.164 5.90348 244.858 6.17739 245.608 6.26809C245.863 6.27316 246.11 6.27824 246.369 6.28329C246.548 6.2012 246.727 6.11911 246.904 6.03701C249.38 6.42187 248.585 5.35871 249.691 6.25102C249.521 6.30485 249.35 6.35869 249.179 6.41252C248.772 6.43872 248.361 6.46491 247.946 6.49109C249.602 6.51169 251.263 6.53202 252.928 6.55201C254.96 6.79824 256.263 6.52319 258.568 6.71537C258.792 6.69096 259.015 6.66655 259.236 6.64214C259.009 6.8453 258.154 6.81792 259.749 6.90437C259.886 7.0472 258.813 7.06873 258.307 6.9602C258.186 6.93371 259.214 6.82128 258.057 6.82048C257.299 6.81967 258.677 6.9883 256.418 6.93026C256.502 6.96504 256.587 6.99982 256.671 7.0346C256.425 7.0342 256.177 7.03379 255.927 7.03338C255.705 6.95295 255.482 6.87252 255.257 6.79208C254.677 6.91039 254.348 7.07508 253.079 7.043C253.426 6.99152 252.957 6.82996 252.314 6.83408C252.315 6.89267 252.315 6.95126 252.315 7.00985C250.757 7.0508 251.256 6.87786 249.987 7.01459C249.86 6.96824 249.734 6.9219 249.607 6.87555C248.932 7.0689 246.298 7.20416 246.775 6.91551C246.02 7.19653 244.557 7.07272 243.975 6.84993C243.931 6.90818 243.887 6.96643 243.844 7.02469C243.54 7.03696 243.235 7.04922 242.928 7.06148C242.756 7.02655 242.584 6.99161 242.411 6.95666C242.241 6.98421 242.071 7.01175 241.899 7.03929C241.853 7.04726 241.806 7.05523 241.759 7.0632C241.633 7.00499 241.507 6.94679 241.38 6.88858C241.043 6.95904 240.704 7.0295 240.363 7.09995C240.154 7.05365 239.944 7.00734 239.734 6.96103C239.721 7.08286 237.6 7.11273 237.016 7.03347C236.846 7.06908 236.676 7.10468 236.505 7.14028C236.421 7.0824 236.338 7.02452 236.254 6.96664C236.126 7.01317 235.999 7.05971 235.871 7.10624C235.576 7.0602 235.28 7.01416 234.983 6.96811C233.767 7.25373 233.722 7.00436 233.442 7.00643C232.907 7.01029 231.174 7.19006 230.886 7.18118C230.596 7.17224 230.455 7.07035 230.22 7.06098C226.315 6.90435 227.907 7.1766 227.122 7.22066C226.709 7.24462 226.415 7.14969 226.047 7.16054C225.427 7.17871 222.194 7.30713 221.997 7.29491C221.727 7.27732 222.356 6.82804 221.488 6.94434C221.462 7.18536 219.608 6.94339 220.475 7.27889C219.711 7.24992 218.941 7.22092 218.166 7.19191C218.254 7.47754 217.3 7.2944 216.248 7.31087C214.812 7.33396 211.494 7.52348 211.612 7.23035C211.257 7.29786 210.902 7.36537 210.545 7.43288C208.182 7.34173 205.773 7.43935 203.408 7.44367C196.314 7.457 188.637 7.39458 181.592 7.33699C181.252 7.33414 181.301 7.23841 181.056 7.2363C179.754 7.22577 176.456 7.29345 174.646 7.2722C174.069 7.26548 173.788 7.17207 173.605 7.16777C172.982 7.15259 173.132 7.27563 172.847 7.27209C172.4 7.26641 170.025 7.152 169.204 7.13992C168.798 7.13395 168.317 7.23165 167.84 7.2014C167.799 7.19895 167.875 7.09819 167.84 7.09643C166.972 7.08399 167.494 7.17115 167.201 7.16653C165.114 7.1335 162.886 7.13114 160.614 7.1099C160.049 7.10451 159.192 7.0333 158.709 7.0265C158.525 7.0241 158.855 7.10062 158.219 7.09414C158.001 7.09193 157.927 6.9925 157.681 6.986C156.62 6.95863 156.265 7.27802 155.353 7.02084C153.589 7.03733 150.53 7.11851 148.923 7.11977C148.544 7.11994 148.359 7.06117 147.997 7.06211C147.74 7.06273 147.288 7.15355 146.887 7.15452C146.486 7.15545 145.853 7.06862 145.082 7.07153C144.271 7.07443 143.262 7.12553 143.079 7.12515C142.858 7.12507 142.755 7.01562 142.534 7.01692C141.866 7.02021 140.08 7.12707 139.217 7.13835C138.291 7.15031 137.736 7.09703 137.42 7.09796C137.128 7.09931 136.786 7.19149 136.653 7.19225C136.445 7.19357 136.396 7.08566 136.132 7.08645C135.701 7.08803 135.256 7.15569 134.61 7.15721C122.95 7.18566 111.54 7.11983 100.19 7.03317C98.9214 7.02346 98.2043 7.0986 96.3548 7.06271C95.6044 7.04806 95.9274 6.93696 95.3348 6.95757C95.0701 6.96688 95.1369 7.0545 94.8026 7.05848C93.3245 7.07568 91.6227 6.99297 90.993 6.99387C90.743 6.99409 90.4572 7.09331 89.9466 7.09435C86.0743 7.1025 81.5253 7.07067 77.4091 7.08408C75.1822 7.09117 71.9098 7.13867 69.3706 7.14275C63.8474 7.15191 58.0134 7.13386 52.6847 7.12657C51.2547 7.12462 49.9003 7.12345 48.6281 7.12374C39.0163 7.12471 29.5529 7.20185 19.9888 7.06713C24.4234 7.32013 30.5236 7.31277 35.4926 7.3475C41.1122 7.38656 46.8871 7.39141 52.6844 7.38405C61.6644 7.37243 70.9499 7.33137 79.8795 7.34269C85.0456 7.34915 91.4407 7.34888 97.0738 7.40869C97.3267 7.41135 97.8516 7.33525 98.401 7.34375C98.5169 7.34573 99.9673 7.4863 100.459 7.48806C99.9912 7.23973 101.926 7.46213 102.503 7.45654C103.243 7.44926 104.79 7.32639 106.542 7.39763C108.133 7.46209 107.695 7.55719 107.783 7.56324C108.344 7.60226 108.534 7.44865 108.962 7.43339C110.7 7.37259 119.728 7.46725 122.24 7.47413C122.888 7.47588 122.907 7.57361 123.053 7.57404C123.44 7.5749 123.992 7.47867 124.614 7.47964C125.734 7.48163 127.033 7.5745 127.646 7.57515C129.115 7.57693 131.913 7.46943 133.836 7.46815C134.373 7.46775 134.341 7.56942 134.584 7.56918C135.656 7.56786 138.453 7.44917 139.788 7.44862C141.955 7.4477 144.18 7.51424 146.383 7.4815C146.523 7.52691 146.662 7.57232 146.802 7.61774C147.022 7.5702 147.242 7.52267 147.462 7.47513C151.184 7.5126 154.976 7.41145 158.676 7.41894C159.101 7.41975 161.213 7.50699 161.567 7.50741C161.86 7.50747 162.149 7.39515 162.583 7.41178C163.192 7.43486 162.619 7.64877 163.613 7.58773C163.88 7.57122 163.621 7.47957 164.157 7.45111C164.335 7.44164 167.768 7.40502 167.959 7.41137C168.268 7.42209 168.543 7.61839 168.623 7.62263C169.037 7.64483 169.019 7.4942 169.297 7.4805C170.116 7.43947 171.184 7.54089 171.317 7.53868C172.914 7.51101 175.94 7.39095 177.621 7.46212C177.854 7.47205 177.826 7.58421 177.867 7.58785C178.131 7.6111 178.294 7.4834 178.545 7.48044C179.883 7.46602 182.03 7.55196 183.385 7.57373C183.542 7.5761 183.872 7.51465 184.151 7.52059C185.728 7.55501 185.216 7.65361 185.306 7.65783C185.52 7.66828 185.886 7.55954 186.459 7.55276C187.933 7.53468 190.737 7.54995 192.288 7.55813C193.468 7.56462 193.452 7.68912 193.529 7.69157C193.695 7.69602 194.155 7.59653 194.93 7.58511C196.418 7.56261 196.247 7.66045 196.856 7.65609C196.907 7.65608 196.819 7.56038 197.493 7.55035C198.777 7.53107 201.77 7.62432 203.153 7.61892C203.689 7.61698 203.814 7.52464 204.361 7.52268C205.237 7.51923 207.232 7.61829 207.384 7.61797C207.428 7.61795 207.526 7.51171 207.783 7.51161C208.065 7.51151 208.342 7.56604 208.552 7.5656C209.739 7.56364 211.811 7.37731 211.236 7.75664C211.624 7.66287 212.012 7.56909 212.398 7.47531C214.912 7.49272 217.35 7.45381 219.843 7.43313C220.4 7.42854 220.862 7.5 221.328 7.49619C221.779 7.49237 223.912 7.37202 224.251 7.36951C224.878 7.36519 228.38 7.34969 228.843 7.35767C229.708 7.37309 230.535 7.52893 230.881 7.49794C231.158 7.47301 230.903 7.385 231.43 7.35946C232.315 7.31533 233.948 7.42695 234.221 7.42488C234.341 7.42403 234.119 7.35549 235.246 7.34927C235.852 7.34576 236.174 7.42117 236.391 7.42056C236.463 7.42007 236.344 7.29732 237.553 7.31234C238.404 7.32291 238.759 7.41727 238.848 7.41751C238.98 7.41797 239.3 7.31636 239.825 7.31918C240.381 7.32244 241.14 7.34742 241.9 7.37441C242.872 7.40687 243.841 7.44224 244.476 7.44604C244.7 7.44744 244.628 7.32532 245.514 7.33511C246.145 7.34216 246.033 7.4396 246.268 7.4431C246.657 7.44842 247.248 7.32832 248.097 7.33063C249.11 7.33436 257.088 7.4404 257.45 7.47085C257.719 7.49164 258.023 7.4922 258.171 7.54465C258.051 7.59562 257.931 7.6466 257.82 7.69754C256.641 7.52282 257.115 7.72475 256.8 7.73861C256.353 7.75844 254.556 7.7368 254.138 7.78281C253.99 7.79942 254.33 7.9068 253.536 7.96421C252.681 8.02557 252.288 7.83388 251.94 8.09765C250.684 7.80825 249.481 8.12052 250.932 8.20042C251.766 8.24552 259.591 8.33123 261.162 8.3419C262.501 8.351 264.887 8.26499 266.504 8.27898C267.382 8.28785 269.776 8.29157 269.647 8.43186C270.456 8.44599 269.6 8.31046 269.77 8.29035C270.128 8.24854 272.716 8.33271 273.231 8.32604C275.635 8.29564 278.706 8.1206 281.074 8.27736C280.962 8.31571 280.838 8.35415 280.739 8.39238C280.24 8.46552 277.772 8.38476 277.482 8.56596C281.092 8.54149 284.68 8.51604 288.284 8.45494C288.227 8.30937 292.706 8.21194 293.12 8.19644C293.031 8.27863 292.951 8.35951 292.856 8.44098C290.064 8.31315 290.421 8.63296 288.68 8.48126C287.957 8.49177 288.205 8.60946 287.857 8.63867C284.425 8.92019 287.805 8.39077 285.186 8.53421C285.982 8.70235 283.838 8.79258 282.911 8.82323C282.661 8.83124 279.873 8.80952 279.516 8.81439C277.627 8.84459 274.395 8.96052 272.484 8.87237C271.051 8.86771 270.167 8.99801 268.863 9.03268C267.837 9.05905 268.128 8.969 267.635 8.96985C266.637 8.97125 266.323 9.24286 265.67 8.86794C264.977 8.91742 264.279 8.9668 263.619 9.01596C263.619 8.95737 263.619 8.89878 263.619 8.84019C263.196 8.84158 262.767 8.84295 262.332 8.8443C262.204 8.90309 262.076 8.96188 261.947 9.02066C260.555 8.94491 261.155 8.80198 260.896 8.63687C260.609 8.62632 260.32 8.61576 260.028 8.6052C259.802 8.7332 259.575 8.86119 259.346 8.98918C257.984 8.98257 256.744 8.97536 255.403 8.96818C255.317 8.91 255.231 8.85182 255.144 8.79363C255.141 8.85203 255.139 8.91042 255.136 8.96882C252.931 8.98602 250.645 9.00274 248.478 9.01873C247.9 9.11353 251.408 9.1778 251.714 9.18268C253.208 9.21078 257.213 9.10725 257.199 9.31531C258.095 9.15782 260.946 9.18844 261.807 9.37203C260.478 9.3649 259.184 9.35735 257.82 9.34972C257.861 9.41939 257.903 9.48907 257.945 9.55874C256.334 9.28146 256.094 9.29754 254.352 9.56755C254.35 9.47397 254.348 9.38039 254.346 9.28681C253.212 9.61487 251.091 9.06726 251.024 9.46912C250.358 9.43792 249.776 9.4065 249.146 9.37514C247.8 9.4265 249.879 9.73219 244.572 9.6199C244.206 9.61202 244.284 9.50956 243.729 9.51747C243.603 9.51931 243.019 9.61165 241.903 9.64562C241.609 9.65506 241.276 9.65997 240.902 9.65711C240.634 9.65501 240.613 9.56625 240.333 9.55536C239.689 9.52949 238.377 9.70678 238.972 9.41985C236.35 9.33974 237.433 9.57319 236.641 9.66751C236.116 9.73009 236.221 9.56065 235.764 9.59958C235.193 9.64784 235.628 9.8181 233.315 9.74208C233.576 9.73021 233.835 9.71833 234.094 9.70645C233.964 9.6602 233.833 9.61396 233.703 9.56772C232.382 9.68044 232.486 9.51769 231.887 9.77897C230.953 9.66368 230.139 9.65522 228.83 9.67756C226.267 9.72106 227.59 10.0009 224.719 9.62493C224.252 9.6784 223.784 9.73186 223.313 9.78532C222.537 9.67424 223.167 9.53408 222.004 9.50675C222.902 9.78193 220.494 9.68309 220.092 9.92922C220.049 9.87066 220.006 9.81209 219.964 9.75353C219.709 9.7537 219.454 9.75387 219.199 9.75404C219.198 9.80103 219.197 9.84803 219.196 9.89503C218.856 9.86005 218.514 9.82508 218.172 9.7901C217.914 9.83685 217.656 9.8836 217.397 9.93034C216.973 9.83234 216.54 9.73433 216.12 9.63631C215.859 9.62975 215.598 9.62319 215.336 9.61662C215.419 9.68656 215.502 9.7565 215.585 9.82644C215.249 9.80323 214.912 9.78002 214.574 9.75681C214.966 9.87143 214.722 10.0062 213.666 10.0033C212.791 10.0009 213.78 9.76072 211.892 9.86136C211.766 9.86852 211.507 10.0396 209.749 10.0668C207.636 10.0994 208.661 9.97516 208.284 9.97104C208.21 9.97036 207.561 10.0567 206.951 10.0692C206.604 10.0764 206.269 10.0071 206.223 10.0073C206.009 10.0105 205.946 10.1088 205.649 10.1125C204.885 10.1212 203.889 10.0734 203.159 10.0786C202.827 10.0808 202.514 10.1391 202.366 10.1399C202.135 10.1406 201.842 10.0518 201.608 10.0522C200.746 10.0543 199.427 10.3497 199.022 9.94003C198.184 10.3171 196.467 9.8619 196.59 10.1146C194.372 10.0198 188.46 10.3307 188.632 9.90599C187.373 10.2692 187.485 10.0062 186.956 10.0118C186.364 10.0178 186.671 10.0882 186.2 10.0851C185.114 10.0777 184.076 10.0476 182.989 10.0462C183.16 9.98801 183.33 9.92982 183.501 9.87162C182.361 9.85301 182.754 9.9884 181.588 10.0145C179.439 10.0621 180.344 9.95406 180.027 9.80154C180.105 9.94879 177.597 9.92589 177.338 9.9065C177.185 9.89468 177.857 9.70493 176.312 9.76609C176.396 9.82448 176.481 9.88288 176.565 9.94127C175.862 9.86139 173.944 9.96263 173.617 9.94296C173.465 9.93379 172.673 9.46286 171.945 9.83542C171.857 9.77702 171.77 9.71863 171.682 9.66023C170.873 9.73035 170.064 9.80046 169.253 9.87056C169.124 9.76536 168.994 9.66017 168.865 9.55497C168.607 9.55494 168.35 9.55491 168.092 9.55488C168.263 9.64828 168.434 9.74168 168.605 9.83508C167.01 9.79264 165.078 9.9396 164.751 9.6246C164.411 9.68293 164.071 9.74127 163.731 9.7996C163.51 9.69479 163.289 9.58998 163.068 9.48517C161.492 9.51131 161.466 9.58134 160.387 9.69279C160.429 9.61101 160.471 9.52924 160.514 9.44746C159.719 9.56214 158.273 9.66875 157.127 9.68293C156.583 9.68947 155.647 9.57654 155.518 9.58672C155.389 9.59746 154.11 10.0399 153.971 9.65652C152.09 9.82582 151.264 9.65216 150.5 9.65617C150.005 9.65887 149.779 9.75082 149.219 9.76016C148.417 9.77365 147.61 9.72891 147.148 9.73509C146.883 9.73888 146.834 9.82861 146.651 9.83137C145.788 9.84477 146.294 9.75324 145.384 9.75893C145.3 9.75993 144.636 9.86917 143.887 9.85484C143.468 9.84692 142.385 9.7234 142.289 9.72366C141.866 9.72562 142.204 9.9719 140.756 9.68708C140.798 9.73389 140.84 9.7807 140.882 9.82751C139.089 9.94554 138.804 9.73678 138.442 9.7222C138.396 9.72099 137.959 9.80147 137.697 9.79025C137.256 9.77108 137.078 9.66059 136.981 9.65569C136.636 9.63864 135.477 9.68673 134.721 9.57967C134.882 9.89396 132.223 10.0046 131.634 9.6485C131.163 9.71847 130.693 9.78844 130.223 9.85841C130.01 9.79972 129.798 9.74103 129.585 9.68234C129.456 9.74066 129.327 9.79899 129.198 9.85732C128.514 9.72842 127.832 9.59951 127.147 9.4706C127.103 9.59936 127.06 9.72812 127.016 9.85687C126.823 9.84213 126.631 9.82739 126.438 9.81264C126.288 9.71024 126.138 9.60783 125.988 9.50542C125.747 9.52483 125.507 9.54424 125.267 9.56365C125.207 9.63767 125.148 9.7117 125.089 9.78572C123.799 9.87042 124.459 9.16447 122.008 9.78412C121.628 9.72552 121.247 9.66693 120.867 9.60834C120.435 9.89228 119.621 9.71976 118.968 9.75133C118.507 9.77361 118.532 9.88651 117.905 9.88867C117.277 9.89078 117.3 9.78283 117.251 9.7821C116.741 9.77516 116.356 9.87013 115.982 9.85094C115.926 9.84809 115.785 9.7198 115.309 9.71139C114.832 9.70301 114.553 9.8392 113.834 9.81305C113.467 9.79979 113.361 9.69171 113.036 9.68196C111.488 9.63452 109.938 10.1805 108.789 9.53099C108.537 9.61303 106.634 9.89953 105.823 9.88243C104.563 9.85516 105.049 9.72822 104.549 9.70458C104.477 9.70101 104.093 9.74374 103.042 9.73529C102.855 9.73376 102.898 9.80564 102.871 9.80658C101.666 9.80434 99.2337 9.74588 97.8943 9.73467C97.774 9.73352 97.1422 9.93335 96.0804 9.66313C94.4907 9.86096 91.4805 9.43105 89.4125 9.72933C89.1186 9.73543 88.7627 9.6635 88.6331 9.66583C87.5194 9.68711 87.918 9.90497 85.4238 9.58442C85.6254 9.69552 85.0418 9.79517 84.2242 9.78603C82.9921 9.77228 83.8671 9.56618 82.8604 9.58221C82.8603 9.6406 82.8603 9.69899 82.8602 9.75738C80.541 9.59828 80.0948 9.84752 77.8048 9.84681C76.9607 9.84639 75.7294 9.71583 75.532 9.71529C75.4547 9.71559 74.5486 9.8555 74.463 9.85647C73.9776 9.86023 73.7047 9.79506 73.2886 9.7943C71.9194 9.79159 70.2113 9.97299 70.5231 9.64079C70.1384 9.71059 69.7552 9.78039 69.3737 9.85019C67.9346 9.49363 66.8762 9.98189 66.5556 9.63669C66.2928 9.70761 66.0308 9.77854 65.7696 9.84946C61.45 9.81946 56.981 9.78891 52.6813 9.75801C50.7705 9.74491 49.053 9.73196 47.1581 9.71866C46.8906 9.82927 44.2295 9.78604 44.0887 9.76854C43.4366 9.68936 44.1188 9.44841 42.8013 9.50172C42.6561 9.6075 42.5114 9.71327 42.3672 9.81905C40.7421 9.85105 41.5256 9.74678 40.8914 9.67393C40.6277 9.68659 40.7162 9.76899 40.3565 9.7744C38.3096 9.80396 34.3323 9.801 32.134 9.80343C31.6958 9.804 31.7631 9.72723 31.6278 9.72677C31.2451 9.72674 30.5704 9.82232 29.7849 9.82078C25.1292 9.81078 18.6386 9.7407 13.9673 9.64208C13.6598 9.63532 13.604 9.5434 13.3891 9.53801C13.0821 9.53091 12.4375 9.60253 12.1338 9.59354C11.8283 9.58525 11.6368 9.5148 11.3245 9.50534C9.89295 9.46122 7.96162 9.56951 6.42514 9.3539C6.31299 9.33614 4.69097 8.95488 4.65087 8.92995C4.43898 8.78409 5.86885 8.57181 3.52475 8.33962C5.62258 8.17438 4.97771 7.84971 2.23766 7.65756C3.6134 7.63578 4.98897 7.60523 6.35041 7.57364C6.35261 7.5352 6.3548 7.49676 6.357 7.45832C5.11577 7.25871 3.87616 7.18887 1.98353 7.14413C2.05064 7.10955 2.09967 7.07467 2.1598 7.03994C3.83801 6.88618 5.87143 6.86616 7.13493 6.63138C5.25698 6.4395 3.40896 6.2488 1.53346 6.03731C1.63582 6.01106 1.71927 5.9844 1.81383 5.95786C2.7165 5.90088 4.6617 5.87563 5.40806 5.81282C8.25144 5.57457 2.92327 5.59927 3.80556 5.44688C6.81106 5.48087 9.8023 5.49876 12.778 5.5166C12.8917 5.40561 1.37362 5.02048 1.50557 4.6438C2.44056 4.63706 3.38968 4.62333 4.32943 4.60828C3.89466 4.51507 3.47857 4.4216 3.07685 4.32765C3.18539 4.30062 3.29796 4.27359 3.41484 4.24656C4.99319 4.19381 6.60271 4.13455 8.1804 4.074C3.3483 4.11836 1.11907 4.0324 0.000374941 3.29142C0.130913 3.27724 0.261353 3.26304 0.390698 3.24864C1.3947 3.73012 6.32135 3.62656 8.94281 3.5501C8.425 3.41895 6.10381 3.50466 5.61638 3.42302C5.4768 3.39978 5.96538 3.31389 5.64122 3.26573C4.8027 3.14406 1.27399 2.94809 1.78523 2.80642C2.10287 2.72769 7.82605 2.64298 8.94741 2.65537C6.358 2.47167 3.6104 2.41375 1.04749 2.158C2.65938 1.90597 4.16248 1.56975 7.16806 1.57366C8.07106 1.43234 1.70321 1.17638 1.5729 1.07948C2.6564 1.01118 3.75888 0.933893 4.86471 0.855529C3.9347 0.871188 2.99239 0.885531 2.08183 0.895092C2.07943 0.865756 2.07704 0.83642 2.07466 0.807084C4.46901 0.705166 6.67903 0.466342 9.4802 0.49805C9.38969 0.34271 7.70544 0.349456 6.92035 0.342896ZM273.627 9.22182C273.695 9.35 272.618 9.33445 272.081 9.33452C272.166 9.35751 272.25 9.3805 272.334 9.40348C271.132 9.38519 268.824 9.34564 268.747 9.59527C267.864 9.62986 268.252 9.41139 267.964 9.38786C267.831 9.37854 266.727 9.50907 265.806 9.35877C265.587 9.36017 265.367 9.36156 265.145 9.36295C265.102 9.44489 265.059 9.52682 265.016 9.60876C264.702 9.51057 264.395 9.41234 264.104 9.31403C267.296 9.2858 270.451 9.25577 273.622 9.22184C273.624 9.22183 273.626 9.22182 273.627 9.22182ZM242.024 9.41688C241.984 9.41539 241.944 9.41388 241.903 9.41235C240.787 9.368 239.143 9.30932 239.488 9.52537C240.218 9.5126 240.939 9.49981 241.65 9.48699C241.734 9.4709 241.819 9.45481 241.903 9.43871C241.943 9.43143 241.984 9.42415 242.024 9.41688ZM127.282 9.26132C126.315 9.04033 125.425 9.23063 123.935 9.19005C123.937 9.23664 123.939 9.28323 123.941 9.32982C124.55 9.21827 126.163 9.29352 127.282 9.26132ZM302.244 7.56745C302.393 7.57694 302.542 7.58672 302.689 7.59679C302.708 7.5971 302.763 7.59424 302.782 7.59404C302.847 7.59611 302.911 7.59806 302.973 7.60006C302.909 7.62158 302.845 7.64065 302.785 7.65736C302.766 7.65757 302.709 7.66048 302.69 7.66017C302.003 7.84889 301.807 7.70255 300.928 7.75042C300.871 7.75367 300.893 7.81037 300.873 7.81133C300.64 7.82233 300.424 7.7605 300.213 7.76908C299.808 7.78596 299.481 7.86784 298.763 7.8984C298.208 7.92255 298.198 7.81382 298.002 7.82662C297.835 7.83644 296.208 8.23088 295.142 8.1809C293.105 8.04597 301.631 7.48571 302.244 7.56745ZM307.762 8.00196C307.576 7.97469 307.393 7.94932 307.21 7.9256C307.786 7.83682 306.658 7.69346 305.877 7.63718C305.906 7.46511 307.602 7.72305 308.414 7.82509C308.192 7.88172 307.975 7.94082 307.762 8.00196ZM282.475 8.17789C283.308 8.1536 283.16 8.35711 283.13 8.41767C282.877 8.42014 282.6 8.42273 282.349 8.42502C282.39 8.34265 282.428 8.26031 282.475 8.17789ZM288.537 8.0304C288.296 8.17323 286.514 8.2614 285.715 8.2818C285.676 8.28227 285.914 8.20403 285.309 8.21841C285.15 8.22298 283.395 8.51612 283.784 8.20056C285.379 8.14871 286.928 8.09495 288.534 8.03044C288.535 8.03043 288.536 8.03041 288.537 8.0304ZM290.32 8.07216C289.986 8.12426 289.661 8.17501 289.322 8.22541C289.132 8.16497 288.982 8.10348 288.808 8.04235C289.16 8.01928 289.573 7.99423 289.933 7.96912C290.067 8.00348 290.196 8.03783 290.32 8.07216ZM43.622 8.10225C43.6998 8.17133 43.7777 8.24042 43.8558 8.3095C44.1862 8.35227 45.5602 8.05398 45.1226 7.99522C44.6297 8.03091 44.145 8.06661 43.622 8.10225ZM37.5539 7.94796C37.258 7.91267 36.9799 7.87741 36.6735 7.84209C36.319 7.95846 35.9682 8.07484 35.6208 8.1912C37.1785 8.27284 38.6748 8.36619 38.4414 8.02085C38.7821 8.02142 39.1259 8.02198 39.473 8.02254C39.1821 8.1647 39.2157 8.21175 40.1317 8.30375C40.3567 8.10564 41.2229 8.20814 42.2872 8.16614C41.5094 8.15335 40.7917 8.14063 39.9976 8.12776C39.9976 8.09276 39.9977 8.05777 39.9978 8.02278C41.7294 8.03818 39.5658 7.8128 38.4462 7.95006C38.3585 7.90333 38.271 7.85659 38.1837 7.80986C37.9725 7.85589 37.7626 7.90193 37.5539 7.94796ZM161.549 8.11469C161.336 8.07946 161.123 8.04422 160.91 8.00898C160.084 8.46723 161.766 8.03272 162.96 8.3957C162.566 8.12005 164.387 8.13188 164.491 8.11337C164.281 8.02057 164.072 7.92777 163.863 7.83496C163.092 7.92821 162.321 8.02146 161.549 8.11469ZM155.521 7.79723C156.259 8.02604 152.634 8.03913 151.42 7.9884C151.125 7.97593 150.599 7.85025 150.385 7.86603C150.256 7.91238 150.127 7.95873 149.997 8.00507C149.844 7.84471 147.471 8.02423 146.536 8.11019C146.448 8.05177 146.36 7.99336 146.272 7.93494C145.931 7.95802 145.59 7.9811 145.249 8.00417C145.292 7.946 145.335 7.88783 145.378 7.82966C145.12 7.89956 144.862 7.96946 144.604 8.03935C143.592 8.11685 144.216 7.79986 143.456 7.89857C142.611 8.00818 143.995 8.19757 143.97 8.3205C144.656 8.28903 146.216 8.21859 146.912 8.21529C147.312 8.21352 146.859 8.43364 148.582 8.18103C148.96 8.24015 149.338 8.29926 149.715 8.35837C150.409 8.26479 151.102 8.1712 151.795 8.07761C151.925 8.15923 152.054 8.24085 152.183 8.32246C152.257 8.33525 153.859 8.15045 153.774 8.08913C154.425 8.24526 155.76 8.27339 157.164 8.28161C157.299 8.23729 157.434 8.19297 157.57 8.14865C156.211 8.24413 157.137 8.10163 156.733 8.01663C156.499 7.96761 155.783 7.87127 155.521 7.79723ZM53.0918 7.93651C52.9393 7.94994 52.8041 7.96168 52.6836 7.97191C50.96 8.11106 52.0317 7.96997 49.7395 7.9669C49.9097 8.07251 50.0805 8.17812 50.252 8.28374C50.998 8.16562 52.064 8.1706 52.6834 8.12363C53.0429 8.09465 53.2383 8.04594 53.0941 7.93651C53.0933 7.93651 53.0926 7.93651 53.0918 7.93651ZM28.949 8.24807C30.2563 8.18699 29.6493 8.02189 31.2561 7.97256C31.2569 7.97256 31.2577 7.97257 31.2584 7.97257C30.4362 7.95917 29.541 7.94557 28.6901 7.93199C28.7761 8.03735 28.8624 8.14271 28.949 8.24807ZM105.232 8.20789C106.486 8.25452 106.239 8.17236 107.381 8.33688C109.077 8.13931 107.645 8.16646 107.642 7.98611C107.253 8.03875 106.864 8.09139 106.476 8.14403C105.536 7.97474 106.428 7.89043 106.428 7.87423C106.427 7.87423 106.426 7.87423 106.426 7.87423C106.426 7.82009 106.456 7.80872 106.095 7.77574C105.807 7.91979 105.52 8.06384 105.232 8.20789ZM110.588 7.9886C110.16 8.1081 109.967 8.26175 111.093 8.33925C111.094 8.33925 111.095 8.33925 111.096 8.33925C111.186 8.07163 112.268 8.28836 112.764 8.2707C112.894 8.24169 113.023 8.21267 113.153 8.18366C112.296 8.11865 111.441 8.05363 110.588 7.9886ZM129.458 7.75301C129.463 8.04871 128.517 8.0764 129.848 8.34949C130.106 8.34432 130.365 8.33916 130.623 8.33399C130.793 8.26917 130.963 8.20435 131.133 8.13952C134.419 8.67607 135.395 7.76543 129.848 8.10353C129.847 8.10373 129.846 8.10394 129.845 8.10414C129.716 7.9871 129.587 7.87006 129.458 7.75301ZM123.679 7.77517C123.637 7.93038 123.595 8.08558 123.553 8.24079C122.829 7.86596 121.898 8.22276 120.479 7.95778C120.35 8.00491 120.22 8.05204 120.091 8.09917C119.552 7.99504 114.344 7.96211 115.473 8.20152C115.964 8.30608 117.037 8.16508 117.13 8.16831C117.443 8.1802 117.851 8.31379 118.381 8.30634C118.687 8.30185 119.333 8.14546 119.96 8.14609C121.363 8.14757 123.891 8.56976 125.733 8.17233C125.866 8.21919 125.998 8.26604 126.13 8.3129C127.496 8.28503 127.041 8.13654 128.304 8.31397C129.184 7.57711 123.207 8.3478 124.452 7.75055C124.451 7.75055 124.451 7.75055 124.45 7.75055C124.193 7.75875 123.936 7.76696 123.679 7.77517ZM86.1957 7.97074C86.1124 7.83828 84.5435 8.04124 84.9125 7.7243C84.398 7.83433 83.9031 7.94438 83.3747 8.05439C83.3787 8.08389 83.3827 8.11339 83.3866 8.1429C83.9111 8.12016 84.4034 8.09739 84.9146 8.07464C84.9165 8.12143 84.9184 8.16822 84.9203 8.21502C85.6705 8.0464 88.8681 8.12279 88.7747 8.28843C88.9466 8.21858 89.1186 8.14874 89.2909 8.07889C90.8095 8.2707 92.1037 8.0691 93.7727 8.25639C93.9018 8.19851 94.0311 8.14062 94.1604 8.08274C94.2446 8.1296 94.3289 8.17646 94.4132 8.22331C95.0212 8.22968 95.6368 8.23604 96.2311 8.24239C98.19 8.05544 94.3805 7.80867 93.9021 7.83597C93.8402 7.8398 93.8495 7.96094 93.4627 7.97967C92.7648 8.01254 88.9767 7.88891 87.7629 7.96778C87.7527 7.88741 87.7425 7.80704 87.7323 7.72667C87.2183 7.80803 86.7061 7.88939 86.1957 7.97074ZM136.778 8.0724C136.865 8.15422 136.951 8.23604 137.038 8.31786C138.53 8.23679 139.471 8.30855 139.088 8.03793C139.087 8.03793 139.087 8.03793 139.086 8.03793C138.316 8.04943 137.547 8.06092 136.778 8.0724ZM247.699 8.10769C247.666 7.94518 246.918 7.88575 246.004 8.00383C246.048 8.05095 246.091 8.09808 246.134 8.14521C246.605 8.00596 247.249 8.2462 248.724 8.21141C248.723 8.12963 248.723 8.04784 248.723 7.96606C248.385 8.01328 248.043 8.06049 247.699 8.10769ZM135.492 8.03647C135.037 7.93984 133.763 8.23185 134.601 8.24665C135.243 8.25784 135.735 8.08835 135.492 8.03647ZM23.8214 8.07856C24.158 8.09646 24.5285 8.11443 24.847 8.13226C25.0173 8.06308 25.1889 7.9939 25.3618 7.92472C25.361 7.92472 25.3602 7.92471 25.3594 7.92471C24.8639 7.97606 24.3459 8.02734 23.8214 8.07856ZM100.963 8.21837C102.123 8.20902 103.24 8.19963 104.387 8.19023C104.398 8.14487 104.41 8.09951 104.421 8.05415C103.277 8.21894 102.821 8.04017 102.555 8.02907C102.556 8.02907 102.557 8.02907 102.558 8.02907C101.713 7.99256 100.88 7.96554 100.066 7.91074C100.365 8.01328 100.664 8.11583 100.963 8.21837ZM97.0382 7.92928C97.2305 8.24998 97.4766 8.2875 99.2358 8.06333C99.1661 8.02381 99.0965 7.9843 99.0269 7.94478C98.1153 7.96771 97.587 8.04132 97.7463 7.87426C97.51 7.8926 97.274 7.91094 97.0382 7.92928ZM114.955 8.04375C114.75 7.94159 113.066 8.04306 113.158 8.09455C113.197 8.11501 115.367 8.24408 114.955 8.04375ZM260.4 8.00783C260.02 7.98553 259.636 7.96322 259.247 7.9409C259.764 7.90468 260.274 7.86845 260.775 7.83219C260.651 7.89074 260.526 7.94929 260.4 8.00783ZM264.612 7.53867C264.892 7.57854 263.986 7.86996 265.661 7.93843C264.411 7.949 263.298 7.95877 262.065 7.96869C262.638 7.92033 263.199 7.87195 263.75 7.82355C263.653 7.74106 263.557 7.65858 263.46 7.57609C263.849 7.56363 264.221 7.5512 264.612 7.53867ZM265.921 7.74524C265.28 7.52864 268.655 7.4995 268.983 7.52465C269.053 7.53072 269.385 7.6954 269.506 7.73058C269.004 7.73291 268.49 7.73522 267.965 7.7375C268.141 7.78909 268.316 7.84068 268.489 7.89226C267.881 7.91263 267.263 7.93293 266.687 7.95299C266.939 7.89956 267.188 7.84612 267.435 7.79268C266.94 7.77689 266.435 7.76108 265.921 7.74524ZM252.317 7.83624C252.746 7.84082 253.171 7.84539 253.591 7.84995C253.507 7.76835 253.423 7.68675 253.338 7.60516C253.086 7.60571 252.831 7.60627 252.575 7.60681C252.489 7.68329 252.403 7.75977 252.317 7.83624ZM261.033 7.70875C260.431 8.10433 258.736 7.24826 260.704 7.56141C260.9 7.59324 261.09 7.67054 261.033 7.70875ZM270.231 7.56632C271.601 7.27308 271.287 7.90842 270.009 7.72842C269.949 7.7188 270.124 7.58799 270.231 7.56632ZM280.25 7.49902C280.365 7.5002 280.514 7.70457 281.581 7.50039C281.752 7.52232 281.921 7.54424 282.087 7.56616C281.707 7.66587 278.246 7.74859 278.746 7.54123C279.238 7.53461 279.728 7.49673 280.25 7.49902ZM276.932 6.76284C276.439 6.77162 275.93 6.78036 275.405 6.78906C275.578 6.85236 275.75 6.91565 275.92 6.97894C275.667 6.99793 275.41 7.0169 275.149 7.03587C274.71 6.92747 274.309 6.81877 273.875 6.71019C274.946 6.68685 276.125 6.6624 277.189 6.63792C277.095 6.67962 277.017 6.72121 276.932 6.76284ZM263.353 6.66521C264.293 6.74281 265.574 6.65264 267.125 6.66047C267.125 6.66067 267.126 6.66087 267.127 6.66107C267.208 6.6617 267.329 6.74956 267.599 6.75202C267.856 6.75428 272.15 6.63856 271.816 6.78945C270.135 6.93153 269.516 6.72991 269.124 7.06447C269.043 6.99462 268.962 6.92477 268.88 6.85492C267.241 6.74007 266.821 6.98449 265.916 7.07694C265.919 7.02403 265.923 6.97112 265.926 6.91821C265.333 6.91507 264.671 6.91209 264.105 6.90869C264.188 6.9432 264.271 6.97771 264.353 7.01222C264.147 7.01292 263.939 7.01362 263.73 7.01431C263.22 6.85925 262.56 6.82482 263.353 6.66521ZM279.254 6.83449C279.74 6.43059 284.356 6.66872 286.442 6.55343C285.348 6.81034 283.649 6.66225 282.41 6.6709C280.114 6.68647 281.703 6.82041 281.313 6.88864C281.086 6.92272 279.821 6.67552 279.254 6.83449ZM259.762 6.74626C260.915 6.7754 261.544 6.68114 262.575 6.82516C262.49 6.85472 262.405 6.88429 262.32 6.91385C261.936 6.88835 259.191 6.81165 259.762 6.74626ZM289.547 6.60453C287.266 6.50662 288.424 6.84626 287.228 6.59398C288.016 6.56466 288.759 6.53449 289.545 6.49958C289.546 6.53456 289.547 6.56955 289.547 6.60453ZM132.926 6.526C131.979 6.51641 130.923 6.44271 130.358 6.5938C131 6.6175 131.642 6.64119 132.286 6.66487C132.499 6.61858 132.712 6.57229 132.926 6.526ZM159.878 5.05599C159.662 5.01966 158.81 5.12656 158.72 5.12654C158.553 5.1265 158.599 5.07376 158.597 5.05999C157.504 5.06931 158.512 5.23313 157.703 5.26852C157.565 5.27437 155.665 5.19305 154.891 5.19949C153.699 5.20941 152.513 5.19849 152.068 5.20119C151.318 5.20559 149.926 5.3279 148.693 5.33386C148.184 5.33611 148.007 5.2378 147.496 5.2401C144.215 5.25566 137.753 5.38812 134.846 5.32448C134.129 5.30868 133.443 5.17972 133.061 5.19004C132.761 5.23691 132.46 5.28377 132.16 5.33063C131.237 4.90716 130.928 5.28329 129.934 5.32228C129.303 5.34692 129.008 5.22144 128.923 5.22171C128.362 5.22391 128.085 5.28345 127.645 5.29311C127.153 5.30379 126.434 5.2469 126.257 5.25703C126.148 5.26382 126.495 5.43061 124.569 5.42646C122.605 5.42217 120.686 5.40353 118.679 5.39461C119.345 5.89796 119.92 5.55404 120.739 5.53613C120.956 5.53131 120.818 5.6111 121.007 5.60768C121.542 5.59845 122.567 5.52053 123.011 5.53978C123.49 5.56055 123.326 5.74556 123.934 5.67759C123.965 5.67409 123.868 5.59759 124.011 5.58486C125.449 5.45914 125.926 5.59234 127.745 5.59711C128.94 5.60055 136.27 5.52795 136.517 5.57786C137.828 5.84617 130.112 5.84465 129.213 5.82303C128.898 5.81545 129.228 5.7312 128.941 5.71487C128.818 5.70834 127.73 5.86875 126.641 5.88159C125.325 5.89714 122.693 5.786 121.45 5.78919C110.721 5.81687 100.11 5.71253 89.4158 5.70175C89.1845 5.70156 88.8791 5.79774 88.1288 5.79713C76.5007 5.78604 64.5106 5.721 52.6865 5.71501C50.2952 5.71372 48.063 5.71487 45.7264 5.71894C42.6884 5.72442 39.5822 5.81027 36.5363 5.73315C36.1408 5.80286 35.7499 5.87257 35.3634 5.94228C36.3756 5.88812 38.1446 6.05032 38.3108 6.05292C38.3699 6.05372 38.7392 5.97496 39.3482 5.98016C40.2086 5.9872 40.5895 6.05662 40.6501 6.05671C40.8594 6.05727 40.7222 5.98385 40.9226 5.98452C42.4036 5.99002 43.679 5.97116 45.0375 5.97245C46.594 5.97403 47.4388 6.11155 48.5975 5.96345C48.7249 6.02201 48.8526 6.08058 48.9806 6.13914C49.4115 6.01089 50.9392 5.95714 52.6863 5.93739C54.2635 5.9183 56.0329 5.93053 57.0809 5.93835C57.7441 5.9434 57.617 6.0458 57.8367 6.04606C57.9777 6.0461 57.9111 5.91177 59.6241 5.94014C60.4904 5.95453 60.7219 6.0526 61.1617 6.04993C61.4013 6.04834 61.3622 5.95129 61.7076 5.95168C63.6606 5.95388 65.2305 5.98706 67.1949 6.0071C67.7274 6.01259 67.7316 6.09356 67.8509 6.09262C68.2889 6.08946 69.0514 5.95315 70.1837 5.95465C72.0844 5.9573 75.7275 5.9613 77.2846 6.02931C77.5109 6.03938 77.6987 6.13669 77.8657 6.13544C78.1213 6.13319 78.2111 6.03193 78.2556 6.03143C79.0769 6.03042 78.5824 6.12421 79.1339 6.10181C79.4318 6.08974 79.7421 5.97445 80.4387 5.96201C81.3598 5.94558 81.1792 6.08261 81.5654 6.06921C81.6064 6.0671 81.6183 5.97171 81.9992 5.96889C83.4635 5.95892 85.5102 5.93864 86.8751 5.94013C87.2661 5.94045 87.557 6.00492 88.1049 6.00645C89.2344 6.00955 95.4277 5.97346 95.9581 6.01081C96.0117 6.01472 95.4619 6.15504 96.338 6.15147C96.5926 6.09307 96.8477 6.03467 97.103 5.97626C97.5299 6.07037 97.9578 6.16447 98.3865 6.25857C98.3689 5.93452 100.902 5.8863 100.879 6.21764C101.157 6.23127 101.436 6.24489 101.715 6.25851C102.286 6.02997 102.665 6.11476 103.773 5.98102C103.946 6.05133 104.119 6.12163 104.292 6.19194C104.335 6.14518 104.379 6.09841 104.423 6.05165C105.015 6.30563 105.991 6.05167 106.11 6.05034C106.566 6.04502 106.909 6.1097 107.124 6.10777C107.936 6.10162 109.635 6.0139 110.568 6.05566C110.612 6.05781 110.569 6.16618 110.833 6.17973C111.31 6.2042 111.357 6.04553 111.994 6.23233C112.123 6.18561 112.252 6.1389 112.381 6.09219C112.517 6.11648 112.654 6.14078 112.791 6.16507C113.598 6.15315 114.412 6.14123 115.209 6.12929C114.481 6.31238 115.318 6.41538 116.113 6.27141C116.381 6.22259 116.143 6.11074 116.233 6.09388C116.353 6.07106 119.969 6.12999 120.212 6.20232C120.384 6.16722 120.556 6.13212 120.728 6.09702C120.814 6.16745 120.9 6.23789 120.986 6.30833C121.08 6.28377 121.174 6.2592 121.268 6.23463C122.203 6.35913 124.642 6.07602 125.086 6.0987C125.323 6.1108 125.109 6.41072 126.245 6.38065C126.284 6.29827 126.324 6.2159 126.363 6.13352C126.623 6.12185 126.884 6.11018 127.144 6.09851C127.631 6.10609 128.336 6.24923 128.359 6.34689C128.511 6.28837 128.663 6.22986 128.815 6.17134C129.222 6.36244 131.399 6.29579 132.278 6.17538C132.534 6.23307 132.791 6.29076 133.048 6.34845C133.392 6.27862 133.74 6.20879 134.082 6.13895C134.878 6.11822 134.037 6.2342 134.207 6.24398C134.565 6.26422 136.396 6.06845 136.276 6.31322C136.526 6.31393 136.776 6.31464 137.025 6.31536C137.154 6.24542 137.283 6.17549 137.411 6.10556C137.84 6.34702 138.583 6.26214 140.108 6.35076C140.236 6.29526 140.364 6.23977 140.491 6.18428C140.962 6.2634 141.432 6.34251 141.903 6.42162C141.999 6.3297 142.096 6.23778 142.193 6.14585C142.397 6.13271 142.602 6.11956 142.807 6.10641C143.223 6.31254 143.97 6.09022 144.35 6.17531C144.905 6.29949 144.476 6.44711 143.446 6.47527C143.522 6.62533 146.592 6.5575 147.3 6.54676C147.253 6.51745 147.206 6.48814 147.159 6.45883C146.436 6.48179 145.712 6.50474 144.988 6.52769C144.382 6.15021 146.347 6.25207 147.249 6.20374C147.332 6.19911 147.799 6.05633 148.708 6.06993C149.06 6.07532 150.433 6.28465 150.695 6.29635C152.81 6.39235 151.255 6.09339 153.324 6.35567C152.893 6.15512 154.083 6.322 155.322 6.28355C155.533 6.27699 157.321 6.11493 157.442 6.11072C158.194 6.08483 157.375 6.26181 158.463 6.21593C158.594 6.16937 158.725 6.12281 158.855 6.07625C159.109 6.0763 159.362 6.07636 159.615 6.07641C161.152 6.49191 161.514 6.18622 162.06 6.14707C162.282 6.13126 161.997 6.23954 162.57 6.21675C162.786 6.20826 163.026 6.11819 163.606 6.11195C165.423 6.09256 166.029 6.47843 167.706 6.07715C167.963 6.13537 168.22 6.19359 168.476 6.2518C168.65 6.18204 168.823 6.11228 168.996 6.04252C170.32 6.24516 169.842 6.0377 170.32 6.04022C171.581 6.0467 174.154 6.08657 174.386 6.25354C175.479 5.87007 176.781 6.30278 177.21 6.28783C177.465 6.24125 177.719 6.19467 177.974 6.14808C178.273 6.19488 178.572 6.24167 178.87 6.28847C178.725 5.91183 180.272 6.2822 180.426 6.28785C180.6 6.29349 182.996 6.18196 183.882 6.18397C184.77 6.18604 186.301 6.28797 186.445 6.28816C186.604 6.28814 188.125 6.18563 189.306 6.18654C190.33 6.18758 196.471 6.33187 196.08 6.16401C195.68 6.1176 195.11 6.07742 194.615 6.05567C193.054 5.9892 184.1 5.90452 181.798 5.87768C177.186 5.82463 172.39 5.83424 167.758 5.79702C167.485 5.79487 167.443 5.69725 167.209 5.69502C166.851 5.69216 165.956 5.78973 165.607 5.78757C164.305 5.77892 162.717 5.76271 162.017 5.76012C160.451 5.75489 159.382 5.69588 158.202 5.6861C157.832 5.68321 155.963 5.80379 154.679 5.7524C154.447 5.72488 154.214 5.69735 153.982 5.66983C154.643 5.63795 156.376 5.55544 157.18 5.54611C158.376 5.53266 159 5.61197 159.441 5.61069C159.808 5.60971 161.704 5.51991 162.565 5.51791C162.832 5.51726 162.887 5.61964 163.115 5.61933C164.357 5.61708 165.986 5.61459 167.062 5.51434C166.622 5.54705 169.373 5.6102 169.515 5.60985C169.762 5.60985 170.03 5.51408 170.533 5.51413C171.5 5.51428 171.378 5.71463 172.584 5.51431C172.883 5.57272 173.179 5.63113 173.48 5.68954C173.501 5.42263 177.295 5.78589 178.364 5.46146C178.398 5.42486 173.472 5.32072 173.064 5.31538C170.645 5.28318 167.016 5.3482 164.667 5.30099C163.957 5.2868 161.719 5.12413 161.549 5.12711C161.277 5.13164 161.523 5.22451 161.405 5.22779C158.993 5.29634 160.199 5.11002 159.878 5.05599ZM265.914 6.48065C265.184 6.4723 264.413 6.46397 263.715 6.45529C263.767 6.39652 263.819 6.33776 263.871 6.27899C264.201 6.30068 264.513 6.32241 264.868 6.34397C265.133 6.30806 265.395 6.27215 265.655 6.23622C265.741 6.3177 265.828 6.39917 265.914 6.48065ZM267.696 6.22859C268.348 6.19652 268.376 6.31994 268.524 6.32538C268.964 6.34191 269.338 6.29039 269.751 6.29035C269.281 6.5859 268.239 6.45567 267.696 6.22859ZM254.602 6.16253C254.749 6.17623 255.732 6.48993 256.803 6.19323C257.595 6.28462 258.413 6.37586 259.24 6.46696C257.795 6.32831 255.984 6.48108 255.272 6.47711C255.011 6.47559 254.96 6.37872 254.75 6.37763C253.56 6.37265 252.449 6.59477 252.318 6.27378C253.444 6.36475 254.389 6.14576 254.602 6.16253ZM261.737 6.2577C261.931 6.32425 262.124 6.39079 262.316 6.45733C261.612 6.45952 260.939 6.46153 260.269 6.46345C260.451 6.39498 260.633 6.3265 260.813 6.25802C261.115 6.25795 261.411 6.25788 261.737 6.2577ZM209.191 6.10602C209.61 6.10665 210.027 6.10727 210.443 6.10789C210.42 6.05897 209.944 6.05938 209.768 6.02642C209.769 6.02642 209.769 6.02642 209.77 6.02642C209.574 5.98916 209.658 5.92613 209.301 5.89846C209.265 5.96764 209.228 6.03683 209.191 6.10602ZM34.8532 5.73142C34.2204 5.72703 27.5988 5.71359 28.1874 5.89303C28.4439 5.98273 30.7344 5.90969 31.3521 5.91226C32.2329 5.91582 34.6423 6.11323 34.8532 5.73142ZM23.3077 5.6726C23.2026 5.8503 27.2721 5.88798 27.6823 5.85778C27.6 5.83224 27.4743 5.77554 27.3649 5.76249C26.7652 5.69996 24.221 5.72351 23.3077 5.6726ZM185.589 5.59855C185.916 5.68845 186.243 5.77834 186.575 5.86824C186.488 5.75126 186.401 5.63429 186.313 5.51732C186.068 5.5444 185.831 5.57147 185.589 5.59855ZM153.717 5.72408C148.245 5.71694 142.772 5.7094 137.295 5.70147C137.776 5.65304 138.258 5.60461 138.74 5.55618C143.457 5.57531 148.489 5.62621 153.042 5.5524C153.267 5.60962 153.492 5.66685 153.717 5.72408ZM253.078 5.63923C251.698 5.64049 250.456 5.72893 248.981 5.59504C250.396 5.45991 251.157 5.66332 252.568 5.46517C252.569 5.46516 252.57 5.46516 252.571 5.46516C252.741 5.52319 252.91 5.58121 253.078 5.63923ZM221.743 5.64475C222.173 5.56266 222.608 5.48056 223.038 5.39845C222.524 5.39884 221.987 5.39923 221.487 5.39958C221.572 5.48131 221.658 5.56303 221.743 5.64475ZM105.966 5.24705C104.489 5.42459 100.763 5.09892 99.5522 5.31279C99.4751 5.32683 100.185 5.41796 99.0368 5.59256C99.9035 5.55727 100.519 5.52105 100.584 5.38311C100.843 5.43008 101.102 5.47706 101.361 5.52403C101.795 5.48894 102.211 5.45383 102.636 5.41873C102.59 5.55608 102.623 5.54878 103.275 5.45518C103.573 5.49017 103.871 5.52517 104.169 5.56016C104.295 5.50206 104.421 5.44396 104.548 5.38586C104.806 5.46741 105.065 5.54897 105.324 5.63052C106.334 5.54291 105.719 5.38482 105.966 5.24705ZM111.1 5.28393C110.866 5.25358 104.058 5.3478 107.157 5.6238C107.971 5.61559 108.762 5.60735 109.564 5.59911C108.901 5.14498 111.084 5.55211 111.265 5.56173C112.125 5.60659 113.226 5.49936 113.854 5.50533C114.397 5.51059 114.71 5.59217 115.086 5.59029C116.365 5.58401 118.398 5.58219 118.679 5.39461C117.677 5.39014 116.662 5.38754 115.626 5.39164C114.536 5.39593 113.559 5.21816 111.49 5.45994C110.979 5.43351 111.162 5.29171 111.1 5.28393ZM224.33 5.41638C224.284 5.60502 226.86 5.55781 226.87 5.48326C226.876 5.43958 226.043 5.44132 225.923 5.42486C225.922 5.42486 225.921 5.42486 225.92 5.42486C225.87 5.41767 226.123 5.34527 225.73 5.32553C225.265 5.35582 224.799 5.38611 224.33 5.41638ZM45.0049 5.32606C44.6641 5.21997 36.6182 5.24527 36.4111 5.29533C36.3453 5.30928 36.4369 5.35586 36.4109 5.38261C38.2465 5.2365 40.9459 5.41756 42.6958 5.43186C43.1946 5.43577 43.0464 5.36057 43.0744 5.35919C43.0756 5.3592 43.0768 5.3592 43.078 5.3592C43.3624 5.35945 44.6556 5.54453 45.0049 5.32606ZM96.9885 5.39697C97.3273 5.42672 97.6668 5.45647 98.0068 5.48622C98.0931 5.4279 98.1795 5.36957 98.2659 5.31125C98.2651 5.31125 98.2643 5.31125 98.2635 5.31124C97.8376 5.33982 97.4126 5.3684 96.9885 5.39697ZM85.1803 5.19531C85.2627 5.23648 85.345 5.27764 85.4275 5.31881C86.2806 5.32523 87.1389 5.33164 88.0022 5.33805C87.9152 5.36117 87.8282 5.38429 87.7413 5.40742C89.0446 5.47049 89.5986 5.32651 90.276 5.34784C90.2752 5.34784 90.2744 5.34784 90.2737 5.34784C90.3474 5.35031 90.4364 5.43601 90.7109 5.43913C91.3384 5.44632 93.1552 5.47961 93.3771 5.39362C93.8386 5.21016 90.1867 5.29454 89.5176 5.28558C89.2053 5.28146 88.8307 5.20622 88.6415 5.20431C88.4343 5.20249 88.1518 5.30345 87.649 5.29992C87.5006 5.29874 85.8752 5.17834 85.1803 5.19531ZM70.0272 5.30388C70.2918 5.39679 70.8472 5.30787 71.0522 5.32322C71.1011 5.32685 70.7206 5.40401 71.1818 5.42772C71.3124 5.37495 71.4431 5.32219 71.5741 5.26942C71.0556 5.28091 70.54 5.29239 70.0272 5.30388ZM228.688 5.32358C228.615 5.30377 227.199 5.3123 227.131 5.32496C226.287 5.49479 229.212 5.47389 228.688 5.32358ZM263.848 5.06572C263.181 4.82301 270.788 5.03623 271.555 5.01825C271.53 5.1729 269.674 5.02592 270.648 5.23358C269.754 5.12117 267.202 5.19334 266.662 5.1614C266.31 5.14227 266.219 5.00919 266.165 5.00516C265.967 4.99093 264.041 5.15178 263.848 5.06572ZM277.834 5.08835C277.074 5.06407 276.406 5.03888 275.665 5.0139C276.526 4.9914 277.357 4.96873 278.225 4.94536C278.096 4.99302 277.966 5.04069 277.834 5.08835ZM278.734 5.01204C278.691 4.86292 281.159 4.95855 281.815 4.91778C281.077 5.17897 279.886 4.94841 278.734 5.01204ZM237.923 4.92731C236.76 4.82977 236.301 5.28667 237.677 5.0863C237.72 5.07968 237.971 4.93249 237.923 4.92731ZM105.616 4.60475C105.421 4.6018 103.028 4.45221 102.892 4.52538C102.456 4.75882 104.021 4.66616 104.548 4.75478C105.399 4.89837 104.145 5.01537 106.226 4.93046C106.141 4.97719 106.056 5.02393 105.971 5.07067C107.19 5.08697 106.792 4.76256 107.011 4.72102C107.078 4.7084 107.843 4.73615 107.981 4.71555C109.69 4.45552 105.796 4.60706 105.616 4.60475ZM209.938 4.91492C207.704 4.77853 208.67 4.9797 206.355 4.96831C206.283 5.07122 209.655 5.00526 209.938 4.91492ZM127.537 4.80235C125.204 4.8417 123.286 4.70619 121.125 4.88572C121.257 5.16413 128.142 4.87455 127.537 4.80235ZM18.1865 4.39359C27.233 4.9158 37.7025 4.7699 47.3158 4.77579C48.39 4.77659 48.4867 4.88705 48.8566 4.87558C49.1003 4.86816 49.0575 4.77923 49.383 4.77925C50.4639 4.7794 51.5653 4.77867 52.6877 4.77728C63.4195 4.76301 73.8522 4.6819 84.274 4.73923C84.9799 4.74337 88.4934 4.93716 89.2603 4.65002C89.8328 4.43219 87.2861 4.60031 86.8692 4.598C86.553 4.59633 86.5397 4.49372 86.3293 4.49318C86.1062 4.49264 86.2904 4.56289 86.0316 4.56373C84.9305 4.56772 83.7651 4.53933 82.7456 4.54442C72.9708 4.59324 63.5156 4.56727 53.8066 4.54519C52.6529 4.54266 52.8941 4.46076 52.8352 4.46033C52.8345 4.46054 52.8337 4.46074 52.8329 4.46094C52.7847 4.46082 52.7364 4.46071 52.6882 4.46061C46.4084 4.44782 39.2791 4.6184 32.6716 4.53604C27.9463 4.47053 23.3446 4.40409 18.5896 4.33374C18.4542 4.35369 18.3198 4.37364 18.1865 4.39359ZM110.587 4.89787C110.002 4.58752 109.871 4.9 107.779 4.77218C107.606 4.82497 107.434 4.87775 107.262 4.93053C108.387 4.91967 109.476 4.90877 110.59 4.89788C110.589 4.89788 110.588 4.89788 110.587 4.89787ZM96.7112 4.77545C96.3859 4.35656 91.6246 4.64881 89.5516 4.56725C89.1666 4.7772 92.2153 4.68519 92.9475 4.70788C93.3005 4.71908 95.2856 4.93686 96.7311 4.81818C96.7245 4.80394 96.7179 4.78969 96.7112 4.77545ZM255.901 4.47309C255.557 4.48613 255.211 4.49917 254.86 4.51219C255.737 4.55653 256.592 4.60082 257.428 4.64505C256.118 4.61853 254.635 4.59214 253.342 4.56507C253.592 4.47765 253.841 4.39022 254.087 4.30279C254.672 4.35965 255.306 4.41635 255.901 4.47309ZM251.468 4.52756C253.872 4.4898 251.373 4.72765 250.751 4.62545C250.384 4.56419 251.221 4.5316 251.468 4.52756ZM245.252 4.38946C246.303 4.23528 248.649 4.22055 247.824 4.52664C246.59 4.38618 245.836 4.50604 244.1 4.42671C244.355 4.36792 244.608 4.30913 244.861 4.25033C244.862 4.25033 244.863 4.25033 244.864 4.25032C244.994 4.2967 245.123 4.34308 245.252 4.38946ZM252.566 4.34094C254.141 4.51262 249.566 4.46233 251.008 4.34418C251.08 4.33877 252.509 4.33438 252.566 4.34094ZM28.1912 4.10354C28.0029 4.20269 29.1958 4.20333 29.6096 4.21085C31.3386 4.24396 33.5924 4.2049 35.3688 4.22176C35.2322 4.18876 35.0961 4.15577 34.9606 4.12277C32.752 4.11679 30.4574 4.11037 28.1912 4.10354ZM41.0279 4.2318C42.2312 4.2337 43.5301 4.23567 44.7526 4.23746C44.8651 4.23763 45.398 4.15299 45.002 4.13163C43.7198 4.16516 42.3089 4.19842 41.0279 4.2318ZM118.421 4.30563C117.468 4.24936 120.214 3.96518 120.091 4.27116C119.534 4.28266 118.977 4.29415 118.421 4.30563ZM127.281 4.18823C126.682 4.21703 126.084 4.24583 125.486 4.27462C125.485 4.23942 125.484 4.20422 125.483 4.16903C126.082 4.17543 126.682 4.18184 127.281 4.18823ZM23.3117 4.02226C23.9552 4.1443 25.4479 4.12928 26.3917 4.13382C25.7345 4.02889 24.221 4.07627 23.3117 4.02226ZM104.165 4.17348C104.239 4.25562 100.475 4.23234 101.781 4.08883C102.573 4.11705 103.367 4.14527 104.165 4.17348ZM96.4846 4.04654C97.2903 4.02919 97.9181 4.05784 97.7514 4.18664C97.3223 4.18083 96.8941 4.17502 96.467 4.1692C96.4729 4.12832 96.4787 4.08743 96.4846 4.04654ZM241.003 4.15054C239.664 4.16401 238.261 4.17743 236.889 4.19069C236.938 4.15544 236.988 4.12018 237.037 4.08492C238.373 4.0719 239.715 4.05876 241.008 4.04556C241.006 4.08055 241.005 4.11555 241.003 4.15054ZM22.5497 3.70422C21.6298 3.7249 20.6417 3.74528 19.7439 3.76576C20.6423 3.79187 21.6313 3.81808 22.5517 3.84399C22.5518 3.7972 22.5519 3.75041 22.552 3.70361C22.5513 3.70381 22.5505 3.70402 22.5497 3.70422ZM259.745 3.65679C255.509 3.50415 260.907 3.31621 261.988 3.55376C261.989 3.55355 261.99 3.55334 261.992 3.55314C262.09 3.57415 261.882 3.67789 262.046 3.71898C261.609 3.67374 261.177 3.62845 260.768 3.58305C260.389 3.64215 260.006 3.70123 259.618 3.76029C259.49 3.73787 259.361 3.71544 259.233 3.69301C259.404 3.68094 259.575 3.66887 259.745 3.65679ZM276.588 3.49535C280.381 3.48967 276.516 3.77373 274.622 3.58C274.603 3.53307 276.265 3.4957 276.588 3.49535ZM266.668 3.5983C266.082 3.62389 265.482 3.64945 264.869 3.67497C264.79 3.64574 264.711 3.61651 264.632 3.58728C265.106 3.55636 265.572 3.52542 266.029 3.49446C266.244 3.52908 266.457 3.56369 266.668 3.5983ZM247.037 3.19385C246.047 3.16313 244.806 3.49336 247.948 3.40157C247.946 3.36638 247.944 3.33119 247.943 3.296C247.819 3.30184 247.454 3.33551 247.434 3.33292C247.376 3.32421 247.445 3.20657 247.037 3.19385ZM283.58 2.51343C283.676 2.49894 283.755 2.12741 284.866 2.49891C285.173 2.47199 285.56 2.44391 285.883 2.41633C285.97 2.497 286.056 2.57767 286.141 2.65833C284.835 2.61181 284.703 2.77782 284.609 2.7826C284.174 2.80291 284.497 2.71423 284.212 2.71617C283.49 2.72148 281.812 2.79393 282.578 2.54393C282.861 2.45433 283.48 2.52788 283.58 2.51343ZM281.016 2.32566C281.182 2.3553 280.649 2.46826 280.775 2.49792C280.904 2.52384 282.47 2.62102 282.048 2.80817C281.796 2.80268 281.537 2.79718 281.273 2.79167C281.183 2.74218 281.092 2.69268 281 2.64318C280.727 2.6918 280.507 2.73994 280.257 2.78828C279.842 2.66753 278.922 2.5137 280.002 2.4045C279.618 2.41803 279.185 2.43177 278.81 2.44499C278.614 2.50577 278.415 2.56656 278.214 2.62733C278.319 2.53608 278.424 2.44483 278.527 2.35358C279.329 2.34499 280.203 2.33542 281.016 2.32566ZM292.958 2.08532C292.915 2.13681 292.873 2.18828 292.835 2.23917C292.889 2.22992 292.951 2.21991 293.016 2.20974C293.025 2.20853 293.052 2.20658 293.061 2.20552C294.518 1.99986 296.563 1.85281 295.339 2.21531C294.584 2.27652 293.832 2.3435 293.079 2.41663C293.07 2.41759 293.046 2.41938 293.038 2.42049C291.968 2.5553 290.793 2.58699 289.588 2.63478C289.464 2.60246 289.335 2.57013 289.201 2.5378C290.654 2.63891 290.184 2.07663 291.421 2.19735C291.622 2.21418 291.059 2.45211 292.29 2.25198C292.246 2.20794 292.192 2.16443 292.151 2.11989C292.43 2.11398 292.655 2.10571 292.958 2.08532ZM305.799 1.6462C303.015 1.48357 306.109 1.3897 306.589 1.60949C306.588 1.60941 306.587 1.60933 306.586 1.60925C307.917 2.11983 304.995 1.67251 304.788 1.71299C304.555 1.71299 303.929 1.97789 302.71 1.63681C303.635 1.59157 304.767 1.57163 305.799 1.6462ZM297.424 1.7735C297.636 1.75298 297.522 1.82981 297.613 1.82392C297.614 1.82388 297.615 1.82384 297.616 1.82379C298.961 1.7264 302.175 1.57086 302.528 1.80172C301.525 1.81602 297.066 2.05538 296.789 1.93277C297.001 1.87919 297.212 1.82611 297.424 1.7735ZM288.213 2.44592C287.42 2.31233 289.228 2.26111 289.695 2.31665C289.788 2.32921 289.074 2.58375 288.213 2.44592ZM225.857 2.3055C224.08 2.39573 226.415 2.48241 225.607 2.62186C225.946 2.60978 226.284 2.5977 226.621 2.58561C226.367 2.49225 226.112 2.39887 225.857 2.3055ZM144.218 2.03537C143.801 2.01883 143.999 2.10363 143.962 2.10486C143.688 2.10241 143.43 2.03329 143.325 2.04055C141.38 2.17919 142.673 2.25082 142.693 2.26737C142.734 2.35121 142.223 2.44911 142.931 2.54516C143.361 2.51561 143.79 2.48606 144.221 2.45651C144.434 2.50317 144.647 2.54983 144.861 2.59649C145.715 2.49683 144.597 2.46903 144.471 2.33636C144.422 2.2842 145.225 2.22207 144.218 2.03537ZM222.643 2.02727C222.35 2.17473 221.626 2.361 222.337 2.50843C222.337 2.50843 222.338 2.50843 222.339 2.50843C222.47 2.5354 223.003 2.54989 223.166 2.58777C224.326 2.39072 223.885 2.18835 222.643 2.02727ZM151.931 1.77413C152.625 1.80871 153.316 1.84328 154.011 1.87784C153.999 1.96613 153.987 2.05442 153.975 2.14271C153.603 2.11881 153.233 2.09491 152.862 2.07101C152.732 2.11126 152.602 2.1515 152.472 2.19175C152.933 2.29258 153.392 2.39341 153.854 2.49423C154.409 2.45918 154.965 2.42413 155.52 2.38907C155.265 2.34242 155.01 2.29576 154.754 2.24911C156.112 2.19802 155.816 2.41265 156.939 2.495C157.323 2.4133 157.708 2.3316 158.092 2.2499C158.648 2.33222 159.204 2.41453 159.759 2.49684C160.692 2.45863 160.777 2.39605 160.146 2.30222C160.612 2.19523 161.123 2.36375 161.683 2.32022C161.73 2.31671 161.642 2.21584 161.683 2.21463C164.582 2.14717 164.425 2.41195 164.887 2.4233C165.213 2.43109 166.513 2.25256 166.533 2.19162C166.561 2.1095 163.848 1.78531 168.095 1.77741C165.893 1.55315 163.412 1.78074 165.02 2.10961C164.328 2.07645 161.264 2.1579 161.068 2.14799C160.783 2.13305 160.883 2.00839 160.526 2.00506C160.313 2.00326 159.758 2.28815 158.092 2.03873C157.879 2.08547 157.666 2.13222 157.453 2.17896C157.253 2.14047 157.054 2.10197 156.854 2.06347C157.265 1.92645 157.676 1.78942 158.087 1.65239C156.46 1.80102 155.107 1.52079 154.115 1.75641C153.256 1.72873 152.841 1.70148 153.209 1.581C152.952 1.58094 152.694 1.58087 152.437 1.5808C152.269 1.64524 152.1 1.70969 151.931 1.77413ZM217.385 2.24137C216.524 2.105 216.211 2.40052 216.346 2.41716C217.106 2.50862 217.833 2.31232 217.385 2.24137ZM145.766 2.19276C146.706 2.26916 147.646 2.34555 148.586 2.42193C148.586 2.32855 148.586 2.23517 148.587 2.14179C147.646 2.15879 146.706 2.17578 145.766 2.19276ZM226.116 2.09533C226.201 2.16525 226.287 2.23516 226.372 2.30507C227.366 2.0486 228.442 2.41441 228.944 2.3382C229.055 2.32155 228.831 2.19819 228.618 2.17188C228.483 2.15547 226.283 2.07161 226.116 2.09533ZM268.978 2.04322C268.597 2.0918 268.209 2.14036 267.815 2.18891C267.837 2.11009 267.858 2.03127 267.879 1.95245C268.074 1.93704 268.266 1.92162 268.458 1.9062C268.632 1.95187 268.806 1.99755 268.978 2.04322ZM264.593 2.18486C263.921 2.18086 263.257 2.17673 262.565 2.1726C265.159 2.092 263.035 2.06371 264.593 1.95599C264.593 2.03228 264.593 2.10857 264.593 2.18486ZM257.676 2.04622C257.757 1.99901 257.839 1.9518 257.92 1.90459C258.624 1.90275 259.321 1.90085 259.999 1.89892C259.569 1.73698 259.133 1.57502 258.692 1.41305C258.437 1.41333 258.176 1.41362 257.921 1.41388C257.84 1.62466 257.758 1.83544 257.676 2.04622ZM125.734 1.67655C125.319 1.67353 123.879 1.81538 123.941 1.86789C124.539 1.9327 125.137 1.99749 125.736 2.06229C125.739 1.9687 125.742 1.87512 125.745 1.78154C125.829 1.82817 125.914 1.8748 125.999 1.92143C126.34 1.88661 126.681 1.85179 127.022 1.81696C127.194 1.89883 127.365 1.9807 127.536 2.06257C127.708 1.96927 127.879 1.87597 128.051 1.78268C126.415 1.61632 126.464 1.78181 126.123 1.7799C125.949 1.77902 125.839 1.72102 125.778 1.69183C125.763 1.68674 125.749 1.68165 125.734 1.67655ZM146.416 1.59729C144.455 1.57339 143.335 1.81937 141.917 1.61281C142.825 2.05208 148.7 1.60072 150.77 1.96728C150.985 1.89695 151.2 1.82662 151.415 1.75629C150.288 1.81865 149.507 1.67343 148.957 1.65241C148.52 1.63572 148.566 1.7095 148.532 1.70843C148.531 1.70843 148.529 1.70843 148.528 1.70843C147.505 1.67782 147.189 1.60671 146.416 1.59729ZM227.563 1.74986C227.015 1.63913 226.129 1.651 226.113 1.81336C226.623 1.85993 227.113 1.90651 227.645 1.95303C227.537 1.91156 227.654 1.76881 227.563 1.74986ZM256.896 1.59473C256.493 1.54292 255.517 1.59159 255.938 1.73077C256.016 1.75547 256.976 1.65454 256.413 1.90904C257.347 1.9028 257.125 1.62452 256.896 1.59473ZM179.904 1.93557C180.252 1.93089 180.6 1.92621 180.947 1.92152C181.028 1.85601 181.109 1.7905 181.19 1.72499C180.762 1.79519 180.333 1.86538 179.904 1.93557ZM232.005 1.63334C232.449 1.95349 233.271 1.64064 234.134 1.90329C234.455 1.90497 234.774 1.90665 235.092 1.90832C235.093 1.90832 235.094 1.90832 235.094 1.90832C235.103 1.82083 235.111 1.73334 235.12 1.64585C234.097 1.64172 233.034 1.63758 232.005 1.63334ZM158.344 1.77512C158.557 1.81586 158.77 1.85659 158.982 1.89733C159.361 1.85 159.74 1.80268 160.118 1.75536C159.914 1.72134 159.709 1.68732 159.504 1.6533C159.117 1.69391 158.731 1.73452 158.344 1.77512ZM237.61 1.59955C236.487 1.56078 236.084 1.83996 237.499 1.83894C238.114 1.83818 238.8 1.64002 237.61 1.59955ZM104.43 1.76773C104.812 1.79179 105.194 1.81585 105.577 1.83991C105.707 1.78141 105.838 1.7229 105.968 1.6644C105.454 1.69884 104.942 1.73329 104.43 1.76773ZM262.177 1.6117C262.131 1.67043 262.086 1.72916 262.04 1.7879C261.695 1.77716 261.33 1.76646 261.01 1.75561C261.093 1.69718 261.176 1.63875 261.258 1.58031C261.557 1.59081 261.874 1.60124 262.177 1.6117ZM107.007 1.80546C107.314 1.81685 107.621 1.82824 107.929 1.83963C108.134 1.81128 108.337 1.78293 108.541 1.75458C108.257 1.72612 107.976 1.69766 107.686 1.66919C107.459 1.71461 107.233 1.76004 107.007 1.80546ZM248.198 1.6104C247.772 1.54075 246.024 1.7633 247.595 1.81656C248.587 1.85034 248.261 1.621 248.198 1.6104ZM250.478 1.53587C248.893 1.40473 250.042 2.08382 252.048 1.63825C250.06 1.70288 250.572 1.54377 250.478 1.53587ZM264.847 1.14642C264.889 1.14663 264.925 1.24445 265.259 1.24691C266.459 1.2554 267.983 1.28821 268.849 1.2906C270.873 1.29806 277.088 1.08769 277.817 1.36474C277.97 1.42326 277.619 1.60347 277.681 1.61221C277.872 1.63657 278.892 1.54324 278.703 1.67548C277.704 1.68146 276.666 1.687 275.651 1.69189C275.905 1.59805 276.154 1.5042 276.4 1.41034C273.815 1.47483 274.71 1.46362 273.974 1.66885C273.545 1.59321 273.107 1.51753 272.658 1.44184C271.765 1.52459 270.793 1.60741 269.858 1.68977C270.06 1.63051 270.277 1.57117 270.497 1.5118C269.082 1.40986 269.494 1.47894 268.72 1.62376C268.718 1.56538 268.716 1.507 268.714 1.44862C267.328 1.59656 267.07 1.42241 266.781 1.42142C266.208 1.42008 265.328 2.1144 263.07 1.43432C262.087 1.76806 262.101 1.09541 261.509 1.43918C259.832 1.0719 263.071 1.1971 264.5 1.20437C264.501 1.20437 264.501 1.20437 264.502 1.20436C264.619 1.20502 264.434 1.14297 264.847 1.14642ZM256.323 1.51377C257.345 1.20787 253.307 1.18906 254.648 1.62397C254.85 1.63775 255.05 1.65152 255.25 1.66529C255.612 1.61479 255.97 1.56428 256.326 1.51376C256.325 1.51376 256.324 1.51377 256.323 1.51377ZM218.931 1.36274C215.222 1.48976 217.335 1.66303 218.589 1.49174C218.839 1.45777 218.975 1.41132 218.931 1.36274ZM143.615 1.36319C143.561 1.39958 143.507 1.43598 143.453 1.47238C144.689 1.43874 147.081 1.58 147.048 1.33444C145.903 1.34404 144.759 1.35362 143.615 1.36319ZM153.394 1.2057C153.129 1.19082 152.045 1.15556 152.176 1.24748C152.645 1.31271 153.115 1.37794 153.585 1.44317C153.804 1.40254 154.023 1.36191 154.242 1.32127C153.936 1.30736 153.466 1.20959 153.394 1.2057Z" fill="#7B9BD8"/>
</svg>
