<?xml version="1.0" encoding="UTF-8"?>
<svg width="44px" height="44px" viewBox="0 0 44 44" version="1.1" xmlns="http://www.w3.org/2000/svg" xmlns:xlink="http://www.w3.org/1999/xlink">
    <title>icon-twitter</title>
    <g id="icon-twitter" stroke="none" stroke-width="1" fill="none" fill-rule="evenodd">
        <g>
            <rect id="Rectangle-2" x="0" y="0" width="44" height="44"></rect>
            <path d="M34,15.2093452 C33.1172994,15.5842324 32.1691843,15.8376773 31.1722054,15.9515766 C32.1896756,15.3677483 32.9691317,14.4444849 33.3371864,13.3439609 C32.3867069,13.8840398 31.3329831,14.2762759 30.2099041,14.48748 C29.3122291,13.5717595 28.0323131,13 26.6160515,13 C23.8978064,13 21.6934192,15.1090233 21.6934192,17.7121133 C21.6934192,18.0817203 21.7367661,18.4407672 21.8203074,18.7862367 C17.7283594,18.5893644 14.1006174,16.7126655 11.6724025,13.8621651 C11.2483909,14.5583842 11.0056482,15.3677483 11.0056482,16.231422 C11.0056482,17.8659905 11.8749507,19.3089667 13.1958492,20.1530286 C12.3888086,20.128891 11.6298437,19.9169327 10.9654538,19.5639202 L10.9654538,19.6235099 C10.9654538,21.9060223 12.6622882,23.8106302 14.9147511,24.2435986 C14.5009852,24.3514635 14.066728,24.4087903 13.6174964,24.4087903 C13.2998818,24.4087903 12.9917247,24.3801269 12.6906607,24.3258173 C13.3172205,26.1964817 15.1354262,27.5595022 17.2893734,27.5979715 C15.604361,28.8614243 13.4811507,29.6157245 11.1750952,29.6157245 C10.7778799,29.6157245 10.3853934,29.5930955 10,29.5485917 C12.1791672,30.885966 14.7665835,31.6666667 17.5470905,31.6666667 C26.6026534,31.6666667 31.5552345,24.4864832 31.5552345,18.2597352 C31.5552345,18.0553198 31.5505057,17.8524131 31.5402601,17.6495063 C32.5049258,16.9842136 33.3403389,16.1544834 34,15.2093452 Z" id="Shape" fill="#9B9B9B"></path>
        </g>
    </g>
</svg>