<svg width="286" height="71" viewBox="0 0 286 71" fill="none" xmlns="http://www.w3.org/2000/svg">
<path d="M253.141 57.3826C265.662 57.3826 272.881 54.0046 272.881 46.0403C272.881 40.672 268.685 37.115 258.57 36.2673L251.475 35.6643C248.266 35.3642 246.849 34.6375 246.849 33.1316C246.849 31.5018 249.009 30.6567 252.525 30.6567C256.964 30.6567 258.57 31.623 259.063 33.795L271.647 33.4923C270.537 27.2182 264.366 23.8403 253.018 23.8403C240.434 23.8403 234.819 28.0028 234.819 34.398C234.819 39.8874 239.015 43.0863 248.699 43.9894L255.978 44.6528C258.754 44.895 260.297 45.6191 260.297 47.3094C260.297 49.1787 258.26 50.266 253.758 50.266C249.009 50.266 247.28 48.9364 246.726 46.4642L233.832 46.7644C234.698 53.2806 240.311 57.3826 253.141 57.3826ZM20.3347 56.9613C24.3466 56.9613 27.6159 53.823 27.6159 49.9632C27.6159 46.1614 24.3466 42.9046 20.3374 42.9046C16.2651 42.9046 13.1191 46.1614 13.1191 49.9606C13.1191 53.823 16.2651 56.9613 20.3347 56.9613ZM45.8701 56.1162V38.9238C45.8701 35.1825 48.5858 32.7103 52.3484 32.7103C55.1848 32.7103 57.2812 34.8192 57.2812 37.5363V56.1162H70.8544V38.9238C70.8544 35.2431 73.6908 32.7103 77.2067 32.7103C80.0458 32.7103 82.3285 34.398 82.3285 37.5363V56.1162H95.8991V35.6643C95.8991 28.1239 89.8537 24.0799 81.7723 24.0799C76.2832 24.0799 71.9013 25.8913 68.9416 29.3903C66.5985 25.8913 62.7729 24.0825 57.0975 24.0825C52.1017 24.0825 48.1528 25.7096 45.3768 28.9691L45.0672 24.9882H32.2995V56.1162H45.8701ZM121.873 57.2615C133.47 57.2615 143.771 51.2902 143.771 40.7325C143.771 30.0538 133.84 23.9614 121.873 23.9614C110.152 23.9614 99.9739 29.8142 99.9739 40.7325C99.9739 51.2902 110.152 57.2615 121.873 57.2615ZM121.81 48.6363C117.244 48.6363 113.668 45.0162 113.668 40.6114C113.668 36.2673 117.247 32.5892 121.81 32.5892C126.375 32.5892 130.075 36.2673 130.075 40.6114C130.075 45.0162 126.375 48.6363 121.81 48.6363ZM161.414 56.1162V39.5267C161.414 35.3642 164.437 33.0105 168.506 33.0105C171.962 33.0105 174.058 34.8798 174.058 37.9575V56.1162H187.632V35.4853C187.632 28.0634 181.34 24.1431 173.258 24.1431C167.89 24.1431 163.82 25.8913 161.044 29.2692L160.551 24.9882H147.843V56.1162H161.414ZM234.284 24.9882H217.937L211.771 30.296L206.156 35.4827L206.279 28.9085V13.1642H192.709V56.1162H206.279V46.4037L209.549 43.9894L212.448 47.7306L219.11 56.1162H235.64L218.74 37.5363L234.284 24.9882Z" fill="black"/>
</svg>
