<svg width="350" height="61" viewBox="0 0 350 61" fill="none" xmlns="http://www.w3.org/2000/svg">
<mask id="mask0_3752_1347" style="mask-type:luminance" maskUnits="userSpaceOnUse" x="1" y="0" width="349" height="60">
<path d="M1.36914 0.205239L349.842 0.205239V59.1168L1.36914 59.1168L1.36914 0.205239Z" fill="white"/>
</mask>
<g mask="url(#mask0_3752_1347)">
<mask id="mask1_3752_1347" style="mask-type:luminance" maskUnits="userSpaceOnUse" x="1" y="0" width="349" height="60">
<path d="M1.36914 59.1168L349.842 59.1168V0.205239L1.36914 0.205239L1.36914 59.1168Z" fill="white"/>
</mask>
<g mask="url(#mask1_3752_1347)">
<path d="M138.025 6.65415C138.025 3.72987 140.394 1.36464 143.31 1.36464C146.236 1.36464 148.615 3.72987 148.615 6.65415C148.615 9.57465 146.236 11.9424 143.31 11.9424C140.394 11.9424 138.025 9.57465 138.025 6.65415Z" fill="black"/>
<path d="M221.572 41.837C221.572 38.9115 223.94 36.5437 226.856 36.5437C229.781 36.5437 232.159 38.9115 232.159 41.837C232.159 44.755 229.781 47.1252 226.856 47.1252C223.94 47.1252 221.572 44.755 221.572 41.837Z" fill="black"/>
<path d="M51.1207 39.5507C46.5603 39.5507 43.3912 35.942 43.3912 30.7854C43.3912 25.63 46.5603 22.0238 51.1207 22.0238C55.7072 22.0238 58.9113 25.63 58.9113 30.7854C58.9113 36.0235 55.774 39.5507 51.1207 39.5507ZM51.1207 14.3202C41.4726 14.3202 34.4707 21.2467 34.4707 30.7854C34.4707 40.324 41.4726 47.2493 51.1207 47.2493C60.8049 47.2493 67.8359 40.324 67.8359 30.7854C67.8359 21.2467 60.8049 14.3202 51.1207 14.3202Z" fill="black"/>
<path d="M127.77 31.6088C127.395 30.9056 126.965 30.3103 126.507 29.8377L126.216 29.5294L126.522 29.2361C126.965 28.771 127.418 28.2195 127.855 27.5803L136.369 14.9695H126.033L119.636 24.834C119.274 25.3629 118.542 25.6299 117.448 25.6299H115.99V6.98004C115.99 3.24981 113.658 2.74216 111.138 2.74216H106.824L106.832 46.7642H115.99V33.5592H116.848C117.892 33.5592 118.603 33.6795 118.929 34.2448L123.981 43.7459C125.392 46.3242 126.799 46.7642 129.445 46.7642H136.463L131.236 38.1493L127.77 31.6088Z" fill="black"/>
<path d="M172.231 14.25C167.573 14.25 164.6 16.3119 162.935 18.0554L162.379 18.6157L162.182 17.8537C161.693 15.986 160.044 14.9582 157.562 14.9582H153.457L153.483 46.7529H162.579V32.099C162.579 30.6663 162.766 29.4229 163.146 28.2885C164.159 24.8553 166.983 22.7207 170.513 22.7207C173.352 22.7207 174.462 24.2136 174.462 28.0717V41.9197C174.462 45.2125 175.99 46.7529 179.298 46.7529L183.627 46.7529L183.612 26.5312C183.612 18.4967 179.679 14.25 172.234 14.25" fill="black"/>
<path d="M143.431 14.9721H139.119L139.149 39.5557H139.146V46.7605H143.748C143.806 46.7605 143.852 46.7667 143.91 46.7667L146.054 46.7605H148.187V46.748H148.202L148.22 19.7991C148.22 16.5477 146.66 14.9721 143.434 14.9721" fill="black"/>
<path d="M86.8505 39.5507C82.2905 39.5507 79.1151 35.942 79.1151 30.7854C79.1151 25.63 82.2905 22.0238 86.8505 22.0238C91.4275 22.0238 94.6404 25.63 94.6404 30.7854C94.6404 36.0235 91.5042 39.5507 86.8505 39.5507ZM86.8505 14.3202C77.1928 14.3202 70.1895 21.2467 70.1895 30.7854C70.1895 40.324 77.1928 47.2493 86.8505 47.2493C96.5247 47.2493 103.567 40.324 103.567 30.7854C103.567 21.2467 96.5247 14.3202 86.8505 14.3202Z" fill="black"/>
</g>
</g>
<mask id="mask2_3752_1347" style="mask-type:luminance" maskUnits="userSpaceOnUse" x="1" y="0" width="349" height="60">
<path d="M1.36914 0.205239L349.842 0.205239V59.1168L1.36914 59.1168L1.36914 0.205239Z" fill="white"/>
</mask>
<g mask="url(#mask2_3752_1347)">
<mask id="mask3_3752_1347" style="mask-type:luminance" maskUnits="userSpaceOnUse" x="1" y="1" width="349" height="59">
<path d="M1.36914 1.36468L349.768 1.36468V59.0416L1.36914 59.0416L1.36914 1.36468Z" fill="white"/>
</mask>
<g mask="url(#mask3_3752_1347)">
<mask id="mask4_3752_1347" style="mask-type:luminance" maskUnits="userSpaceOnUse" x="1" y="0" width="349" height="60">
<path d="M1.36914 59.1168L349.842 59.1168V0.205239L1.36914 0.205239L1.36914 59.1168Z" fill="white"/>
</mask>
<g mask="url(#mask4_3752_1347)">
<path d="M281.825 39.5507C277.267 39.5507 274.089 35.942 274.089 30.7854C274.089 25.63 277.267 22.0238 281.825 22.0238C286.403 22.0238 289.617 25.63 289.617 30.7854C289.617 36.0235 286.479 39.5507 281.825 39.5507ZM281.825 14.3202C272.169 14.3202 265.166 21.2467 265.166 30.7854C265.166 40.324 272.169 47.2493 281.825 47.2493C291.5 47.2493 298.541 40.324 298.541 30.7854C298.541 21.2467 291.5 14.3202 281.825 14.3202Z" fill="black"/>
<path d="M202.79 38.1518C197.817 38.1518 196.047 33.8287 196.047 29.7776C196.047 27.9927 196.5 22.1755 202.312 22.1755C205.2 22.1755 209.05 23.0003 209.05 30.0772C209.05 36.7517 205.643 38.1518 202.79 38.1518ZM213.772 14.8868C212.046 14.8868 210.718 15.5724 210.052 16.8246L209.801 17.3109L209.379 16.9462C207.911 15.6802 205.278 14.1786 201.004 14.1786C192.498 14.1786 186.771 20.5436 186.771 30.0158C186.771 39.4767 192.697 46.0886 201.175 46.0886C204.07 46.0886 206.359 45.4155 208.173 44.0468L208.875 43.5216V44.4052C208.875 48.6519 206.119 50.9946 201.122 50.9946C198.694 50.9946 196.483 50.4055 195.005 49.8715C193.075 49.2912 191.944 49.7712 191.162 51.7003L190.44 53.4801L189.418 56.0798L190.051 56.4157C193.249 58.1066 197.412 59.1156 201.175 59.1156C208.921 59.1156 217.967 55.1648 217.967 44.0468L218 14.8868L213.772 14.8868Z" fill="black"/>
</g>
</g>
</g>
<mask id="mask5_3752_1347" style="mask-type:luminance" maskUnits="userSpaceOnUse" x="1" y="0" width="349" height="60">
<path d="M1.36914 0.205239L349.842 0.205239V59.1168L1.36914 59.1168L1.36914 0.205239Z" fill="white"/>
</mask>
<g mask="url(#mask5_3752_1347)">
<mask id="mask6_3752_1347" style="mask-type:luminance" maskUnits="userSpaceOnUse" x="1" y="0" width="349" height="60">
<path d="M1.36914 59.1168L349.842 59.1168V0.205239L1.36914 0.205239L1.36914 59.1168Z" fill="white"/>
</mask>
<g mask="url(#mask6_3752_1347)">
<path d="M17.244 39.1859L9.83942 39.1785V30.3581C9.83942 28.4729 10.5729 27.4927 12.1943 27.2671L17.244 27.2671C20.8482 27.2671 23.1769 29.5321 23.1795 33.1958C23.1769 36.9562 20.9061 39.1834 17.244 39.1859ZM9.83942 15.3918V13.0705C9.83942 11.0387 10.7023 10.0723 12.5958 9.94815H16.3848C19.6343 9.94815 21.5805 11.886 21.5805 15.1274C21.5805 17.5991 20.2482 20.4833 16.5043 20.4833L9.83942 20.4833V15.3918ZM26.7007 24.1947L25.3621 23.4452L26.5307 22.4499C27.8895 21.2855 30.1677 18.6683 30.1677 14.1459C30.1677 7.22693 24.7809 2.76093 16.4438 2.76093H6.92958V2.75842H5.84618C3.37442 2.8487 1.3968 4.85167 1.36914 7.32973L1.36914 46.6037H5.73555C5.74662 46.6062 5.7503 46.6037 5.75399 46.6062L16.6319 46.6037C25.8997 46.6037 31.8817 41.5774 31.8817 33.7923C31.8817 29.6008 29.9501 26.0172 26.7007 24.1947Z" fill="black"/>
<path d="M339.175 14.3527C335.401 14.3527 331.752 16.1138 329.41 19.0669L328.751 19.8992L328.234 18.9679C326.549 15.907 323.649 14.3527 319.617 14.3527C315.389 14.3527 312.553 16.7029 311.236 18.1005L310.374 19.0305L310.043 17.8072C309.562 16.0461 307.988 15.0759 305.604 15.0759H301.781L301.744 46.7478H310.431V32.767C310.431 31.5424 310.583 30.3303 310.891 29.063C311.721 25.6851 314 22.0513 317.831 22.4148C320.193 22.6404 321.347 24.4592 321.347 27.9726V46.7478H330.095V32.767C330.095 31.2365 330.238 30.0909 330.585 28.9415C331.289 25.7164 333.668 22.4098 337.364 22.4098C340.038 22.4098 341.027 23.919 341.027 27.9726V42.1176C341.027 45.3176 342.46 46.7478 345.669 46.7478H349.758L349.765 26.5286C349.765 18.4515 346.198 14.3527 339.175 14.3527Z" fill="black"/>
<path d="M260.138 35.7514C260.112 35.7827 256.374 39.7098 251.453 39.7098C246.969 39.7098 242.439 36.9685 242.439 30.8493C242.439 25.566 245.951 21.8734 250.979 21.8734C252.611 21.8734 254.468 22.4562 254.759 23.4364L254.802 23.6019C255.471 25.8242 257.498 25.9433 257.896 25.9433L262.656 25.9485V21.8034C262.656 16.3359 255.676 14.3529 250.979 14.3529C240.935 14.3529 233.646 21.3208 233.646 30.9158C233.646 40.5072 240.855 47.465 250.795 47.465C259.419 47.465 264.108 41.817 264.152 41.7606L264.403 41.4547L260.634 35.2252L260.138 35.7514Z" fill="black"/>
</g>
</g>
</svg>
