<svg width="286" height="44" viewBox="0 0 286 44" fill="none" xmlns="http://www.w3.org/2000/svg">
<path d="M167.453 5.51858C166.044 5.52239 164.659 5.88824 163.432 6.58104C162.205 7.27384 161.177 8.27033 160.446 9.47491L154.011 20.3787C152.653 22.6428 154.44 25.1334 156.811 25.1334H179.131L175.127 31.9021C174.841 32.4077 174.425 32.8277 173.922 33.1189C173.42 33.4101 172.848 33.5618 172.267 33.5585H168.812C168.58 33.5609 168.352 33.5037 168.15 33.3924C167.947 33.2811 167.776 33.1195 167.654 32.9232C167.532 32.7268 167.463 32.5023 167.452 32.2713C167.442 32.0403 167.492 31.8105 167.596 31.6042C168.013 30.8653 168.931 29.34 168.931 29.34H148.684L145.753 34.3212C144.382 36.633 146.206 39.1474 148.517 39.1474H186.341C187.779 39.152 189.193 38.7805 190.443 38.0698C191.693 37.359 192.736 36.3338 193.467 35.0958C194.897 32.6409 198.293 26.8733 199.747 24.4184C201.213 21.9755 199.366 19.5326 197.03 19.5326H174.71L178.845 12.5494C179.147 12.0964 179.557 11.7253 180.037 11.4695C180.517 11.2137 181.054 11.0811 181.598 11.0837H185.078C186.21 11.0837 186.687 12.2992 186.329 12.9308C185.972 13.5623 184.935 15.3022 184.935 15.3022H205.145L208.172 10.178C209.292 8.27133 207.898 5.50667 205.312 5.50667H167.417L167.453 5.51858ZM151.437 5.51858H113.649C110.908 5.51858 108.048 6.94859 106.595 9.43917C105.117 11.9059 93.1288 32.2119 91.8179 34.4165C90.519 36.6211 92.3184 39.1474 94.6303 39.1474H132.49C135.528 39.1474 138.21 37.4672 139.544 35.2149C140.867 32.9746 153.01 12.3945 154.285 10.2614C155.548 8.11642 153.928 5.49475 151.425 5.49475V5.51858H151.437ZM132.394 13.0976C131.858 14.0033 121.788 31.0322 121.24 31.9855C120.949 32.4714 120.537 32.8737 120.044 33.1535C119.551 33.4332 118.994 33.581 118.428 33.5823H114.912C113.792 33.5823 113.268 32.3668 113.697 31.6399L124.899 12.6686C125.193 12.1917 125.606 11.7987 126.096 11.5274C126.586 11.2561 127.138 11.1156 127.699 11.1194H131.226C132.239 11.1194 132.93 12.2038 132.382 13.1095L132.394 13.0976ZM97.6094 5.51858H54.9358L38.3717 33.5704H0V39.1713H78.6262C80.056 39.179 81.463 38.8137 82.7086 38.1115C83.9541 37.4094 84.995 36.3946 85.7285 35.1672L90.6143 26.8613C91.6273 25.1334 90.5667 22.9169 88.66 22.3449C90.0527 22.3205 91.4173 21.9492 92.6303 21.2646C93.8434 20.5801 94.8666 19.6039 95.6074 18.4243C96.9778 16.1244 99.1586 12.3945 100.398 10.2972C100.681 9.8118 100.83 9.2599 100.83 8.69799C100.829 8.13608 100.68 7.58436 100.396 7.09934C100.112 6.61433 99.7047 6.21345 99.215 5.93778C98.7254 5.66211 98.1713 5.52155 97.6094 5.5305V5.51858ZM74.9558 27.1235L72.0601 32.0212C71.7768 32.5047 71.3708 32.9048 70.8833 33.181C70.3957 33.4572 69.8438 33.5998 69.2835 33.5942H58.5585L63.5516 25.1573H73.7642C73.9998 25.1479 74.2335 25.2022 74.4409 25.3146C74.6482 25.4269 74.8213 25.5931 74.9421 25.7956C75.0629 25.9981 75.1268 26.2295 75.1271 26.4653C75.1274 26.7011 75.0641 26.9326 74.9439 27.1354L74.9558 27.1235ZM83.226 13.0857L80.3422 17.9715C80.0583 18.4536 79.6519 18.852 79.1642 19.1261C78.6765 19.4003 78.125 19.5406 77.5656 19.5326H66.8406L71.8218 11.0956H82.0463C83.1188 11.0956 83.7146 12.2038 83.2141 13.0857H83.226ZM216.621 5.51858L196.756 39.1593H244.923L248.212 33.5704H220.268L225.249 25.1453H253.193L256.506 19.5445H228.562L233.543 11.0956H286V5.51858H216.621Z" fill="black"/>
</svg>
