<?xml version="1.0" encoding="UTF-8"?>
<svg width="31px" height="26px" viewBox="0 0 31 26" version="1.1" xmlns="http://www.w3.org/2000/svg" xmlns:xlink="http://www.w3.org/1999/xlink">
    <!-- Generator: Sketch 56.3 (81716) - https://sketch.com -->
    <title>icon-twitter</title>
    <desc>Created with Sketch.</desc>
    <g id="Exploracion" stroke="none" stroke-width="1" fill="none" fill-rule="evenodd">
        <g id="Home---Blog" transform="translate(-83.000000, -974.000000)">
            <g id="icon-twitter" transform="translate(68.000000, 957.000000)">
                <g>
                    <rect id="Rectangle-2" x="0" y="0" width="60" height="60"></rect>
                    <path d="M45.452,19.929 C44.332,20.426 43.129,20.762 41.864,20.913 C43.155,20.139 44.144,18.915 44.611,17.456 C43.405,18.172 42.068,18.692 40.643,18.972 C39.504,17.758 37.88,17 36.083,17 C32.634,17 29.837,19.796 29.837,23.247 C29.837,23.737 29.892,24.213 29.998,24.671 C24.806,24.41 20.203,21.922 17.122,18.143 C16.584,19.066 16.276,20.139 16.276,21.284 C16.276,23.451 17.379,25.364 19.055,26.483 C18.031,26.451 17.068,26.17 16.225,25.702 L16.225,25.781 C16.225,28.807 18.378,31.332 21.236,31.906 C20.711,32.049 20.16,32.125 19.59,32.125 C19.187,32.125 18.796,32.087 18.414,32.015 C19.209,34.495 21.516,36.302 24.249,36.353 C22.111,38.028 19.417,39.028 16.491,39.028 C15.987,39.028 15.489,38.998 15,38.939 C17.765,40.712 21.048,41.747 24.576,41.747 C36.066,41.747 42.35,32.228 42.35,23.973 C42.35,23.702 42.344,23.433 42.331,23.164 C43.555,22.282 44.615,21.182 45.452,19.929 Z" id="Shape" fill="#5B5B5B"></path>
                    <path d="M45.452,20.928 C44.332,21.425 43.129,21.761 41.864,21.912 C43.155,21.139 44.144,19.914 44.611,18.456 C43.405,19.172 42.068,19.692 40.643,19.972 C39.504,18.758 37.88,18 36.083,18 C32.634,18 29.837,20.796 29.837,24.247 C29.837,24.736 29.892,25.213 29.998,25.671 C24.806,25.41 20.203,22.923 17.122,19.144 C16.584,20.067 16.276,21.14 16.276,22.285 C16.276,24.452 17.379,26.364 19.055,27.484 C18.031,27.452 17.068,27.171 16.225,26.703 L16.225,26.782 C16.225,29.809 18.378,32.333 21.236,32.907 C20.711,33.051 20.16,33.126 19.59,33.126 C19.187,33.126 18.796,33.088 18.414,33.016 C19.209,35.497 21.516,37.303 24.249,37.354 C22.111,39.03 19.417,40.029 16.491,40.029 C15.987,40.029 15.489,39.999 15,39.94 C17.765,41.713 21.048,42.748 24.576,42.748 C36.066,42.748 42.35,33.229 42.35,24.974 C42.35,24.703 42.344,24.434 42.331,24.166 C43.555,23.281 44.615,22.181 45.452,20.928 Z" id="Shape" fill="#252525"></path>
                </g>
            </g>
        </g>
    </g>
</svg>