<?xml version="1.0" encoding="UTF-8"?>
<svg width="25px" height="24px" viewBox="0 0 25 24" version="1.1" xmlns="http://www.w3.org/2000/svg" xmlns:xlink="http://www.w3.org/1999/xlink">
    <!-- Generator: Sketch 56.3 (81716) - https://sketch.com -->
    <title>icon-linkedin</title>
    <desc>Created with Sketch.</desc>
    <g id="Exploracion" stroke="none" stroke-width="1" fill="none" fill-rule="evenodd">
        <g id="Home---Blog" transform="translate(-166.000000, -975.000000)">
            <g id="icon-linkedin" transform="translate(148.000000, 957.000000)">
                <g id="Shape">
                    <path d="M18.131756,41.925 L23.119756,41.925 L23.119756,24.876 L18.131756,24.876 L18.131756,41.925 L18.131756,41.925 Z M20.625756,18 C19.017756,18 17.967756,19.083 18.000756,20.527 C17.967756,21.905 19.018756,23.021 20.593756,23.021 C22.234756,23.021 23.284756,21.905 23.284756,20.527 C23.251756,19.083 22.233756,18 20.625756,18 Z M36.606756,25.115 C35.011756,25.115 33.384756,24.786 31.650756,27.475 L31.551756,27.475 L31.464756,24.876 L27.047756,24.876 C27.112756,26.287 27.121756,28.394 27.121756,30.396 L27.121756,41.925 L32.109756,41.925 L32.109756,32.07 C32.109756,31.61 32.174756,31.151 32.305756,30.822 C32.633756,29.903 33.454756,28.951 34.832756,28.951 C36.637756,28.951 37.359756,30.362 37.359756,32.43 L37.359756,41.925 L42.347756,41.925 L42.347756,31.807 C42.349756,27.081 39.887756,25.115 36.606756,25.115 Z" fill="#5B5B5B"></path>
                    <path d="M20.625756,18 C19.017756,18 17.967756,19.083 18.000756,20.527 C17.967756,21.905 19.018756,23.021 20.593756,23.021 C22.234756,23.021 23.284756,21.905 23.284756,20.527 C23.251756,19.083 22.233756,18 20.625756,18 Z M18.131756,41.924 L23.119756,41.924 L23.119756,24.875 L18.131756,24.875 L18.131756,41.924 L18.131756,41.924 Z M36.606756,25.115 C35.011756,25.115 33.384756,24.786 31.650756,27.475 L31.551756,27.475 L31.464756,24.876 L27.047756,24.876 C27.112756,26.287 27.121756,28.394 27.121756,30.396 L27.121756,41.925 L32.109756,41.925 L32.109756,32.071 C32.109756,31.611 32.174756,31.152 32.305756,30.823 C32.633756,29.904 33.454756,28.952 34.832756,28.952 C36.637756,28.952 37.359756,30.363 37.359756,32.431 L37.359756,41.925 L42.347756,41.925 L42.347756,31.806 C42.349756,27.08 39.887756,25.115 36.606756,25.115 Z" fill="#252525"></path>
                </g>
            </g>
        </g>
    </g>
</svg>