<?xml version="1.0" encoding="UTF-8"?>
<svg width="44px" height="44px" viewBox="0 0 44 44" version="1.1" xmlns="http://www.w3.org/2000/svg" xmlns:xlink="http://www.w3.org/1999/xlink">
    <title>icon-linkedin</title>
    <g id="icon-linkedin" stroke="none" stroke-width="1" fill="none" fill-rule="evenodd">
        <g fill="#9B9B9B" id="Shape">
            <path d="M12.5882525,10 C11.0032195,10 9.96821656,11.086395 10.0007452,12.5349216 C9.96821656,13.9172414 11.0042052,15.0367398 12.5567096,15.0367398 C14.1742713,15.0367398 15.2092742,13.9172414 15.2092742,12.5349216 C15.1767456,11.086395 14.1732856,10 12.5882525,10 Z M15.0466309,33.9989969 L15.0466309,16.8965517 L10.1298742,16.8965517 L10.1298742,33.9989969 L15.0466309,33.9989969 Z M28.3409971,17.1373041 C26.7687784,17.1373041 25.1650167,16.8072727 23.4557833,19.5047022 L23.3581973,19.5047022 L23.2724399,16.8975549 L18.9185276,16.8975549 C18.9825992,18.3129781 18.9914706,20.4265831 18.9914706,22.4348589 L18.9914706,34 L23.9082274,34 L23.9082274,24.1151097 C23.9082274,23.6536677 23.972299,23.1932288 24.101428,22.8631975 C24.4247432,21.9413166 25.2340169,20.9863323 26.592335,20.9863323 C28.3715543,20.9863323 29.083242,22.4017555 29.083242,24.4762382 L29.083242,34 L33.9999988,34 L33.9999988,23.849279 C34.0019702,19.1084639 31.5751348,17.1373041 28.3409971,17.1373041 Z"></path>
        </g>
    </g>
</svg>